<?xml version="1.0" standalone="no"?><!-- Generator: Gravit.io --><svg xmlns="http://www.w3.org/2000/svg" xmlns:xlink="http://www.w3.org/1999/xlink" style="isolation:isolate" viewBox="0 0 720 720" width="720" height="720"><defs><clipPath id="_clipPath_wZEYPvFRVKqLks2Mh7Tcdvt3QkUQTItY"><rect width="720" height="720"/></clipPath></defs><g clip-path="url(#_clipPath_wZEYPvFRVKqLks2Mh7Tcdvt3QkUQTItY)"><rect width="720" height="720" style="fill:rgb(0,0,0)" fill-opacity="0"/><g><path d=" M 81.301 288.98 C 70.061 237.492 93.645 188.549 133.934 179.754 C 174.223 170.958 216.058 205.619 227.299 257.108 C 238.539 308.596 214.955 357.539 174.666 366.334 C 134.377 375.13 92.542 340.469 81.301 288.98 Z " fill="rgb(53,31,61)"/><path d=" M 228.007 184.269 C 231.025 124.187 267.54 77.119 309.498 79.227 C 351.457 81.335 383.071 131.825 380.053 191.907 C 377.034 251.989 340.519 299.057 298.561 296.949 C 256.603 294.841 224.989 244.351 228.007 184.269 Z " fill="rgb(53,31,61)"/><path d=" M 408.2 215.948 C 426.027 164.285 472.433 133.36 511.764 146.932 C 551.096 160.504 568.555 213.466 550.728 265.129 C 532.901 316.791 486.496 347.716 447.164 334.144 C 407.833 320.573 390.374 267.61 408.2 215.948 Z " fill="rgb(53,31,61)"/><path d=" M 514.905 359.705 C 541.403 320.897 586.311 305.364 615.128 325.04 C 643.945 344.716 645.828 392.197 619.331 431.005 C 592.833 469.813 547.925 485.346 519.108 465.67 C 490.291 445.995 488.408 398.513 514.905 359.705 Z " fill="rgb(53,31,61)"/><path d=" M 371.453 641.681 L 279.934 610.814 L 215.324 602.983 C 113.523 590.643 75.514 514.341 130.498 432.698 L 130.498 432.698 L 250.483 339.761 C 328.386 279.42 416.821 306.364 447.845 399.891 L 494.277 539.87 L 494.277 539.87 C 516.77 626.511 461.735 672.131 371.453 641.681 Z " fill="rgb(53,31,61)"/><circle vector-effect="non-scaling-stroke" cx="249.70399206487502" cy="318.2280216307791" r="10.235996588001129" fill="rgb(145,101,152)"/><circle vector-effect="non-scaling-stroke" cx="377.71841575284753" cy="288.9697382959828" r="10.235996588001115" fill="rgb(145,101,152)"/><circle vector-effect="non-scaling-stroke" cx="462.2479359634373" cy="379.53708137875776" r="10.235996588001115" fill="rgb(145,101,152)"/><path d=" M 322.199 653.079 C 306.929 653.079 277.003 647.044 261.137 643.632 C 251.243 641.585 245.272 640.22 235.036 637.49 C 225.311 634.078 212.182 630.235 200.745 627.596 C 194.262 625.89 186.244 623.672 178.396 622.478 C 164.407 619.577 154.445 615.466 142.912 612.583 C 131.481 607.977 116.673 599.48 111.351 594.158 C 103.995 586.802 93.779 571.81 91.22 566.18 C 86.704 558.943 80.918 541.963 79.96 529.671 C 79.96 513.984 80.984 498.11 82.007 482.756 C 85.419 467.232 86.955 454.437 94.271 443.264 C 101.818 431.189 104.349 422.62 113.894 413.075 C 122.782 404.187 144.134 397.485 139.158 392.509 C 135.429 388.78 123.5 386.098 111.18 378.69 C 104.395 374.611 97.701 368.551 90.196 362.654 C 86.784 359.754 80.643 348.835 74.501 338.088 C 67.336 330.069 62.047 299.677 62.047 292.879 C 62.047 278.98 60 266.315 60 252.788 C 61.535 232.316 61.063 228.922 68.61 209.299 C 74.648 195.714 77.06 193.931 88.831 178.235 C 99.238 169.023 109.133 162.54 121.416 160.322 C 134.211 157.252 139.503 156.74 150.077 156.74 C 159.659 156.74 172.596 161.517 179.761 164.758 C 184.197 167.317 188.291 171.07 190.168 173.117 C 191.677 173.117 201.029 182.33 201.029 182.33 C 201.029 178.515 202.622 179.6 202.792 175.847 C 202.968 174.949 203.284 171.301 203.645 170.217 C 203.804 169.74 204.509 165.963 204.413 165.44 C 204.583 163.905 204.785 162.478 205.01 162.028 C 205.235 161.578 205.436 160.152 205.692 157.763 C 205.47 157.875 206.119 154.863 206.034 153.84 C 206.137 153.177 208.083 146.045 208.251 144.115 C 209.016 140.893 211.225 135.268 211.834 134.05 C 218.829 120.402 213.783 129.811 218.829 119.72 C 219.493 118.392 221.729 114.09 225.994 108.119 C 232.477 98.906 244.419 87.306 244.419 87.306 C 246.516 85.208 253.837 79.207 257.043 77.07 C 261.99 72.463 268.814 69.327 268.814 68.881 C 268.644 68.198 283.315 62.057 283.315 62.057 C 292.357 58.474 298.056 57.546 308.223 56.086 C 314.706 55.403 316.933 55.332 320.165 55.233 C 325.285 55.075 328.384 55.918 332.278 56.427 C 335.11 56.997 338.919 57.68 343.196 59.498 C 344.136 59.968 362.985 69.657 362.985 70.075 C 368.445 73.999 378.851 83.041 381.41 86.282 C 384.993 90.206 393.016 100.622 395.058 104.707 C 400.347 120.061 401.029 121.767 402.394 133.879 C 402.394 147.651 402.991 151.281 402.394 165.099 C 402.223 168.085 398.385 188.471 401.176 188.633 C 401.221 188.939 401.285 189.12 401.37 189.154 C 405.635 190.092 416.724 166.976 423.548 156.399 C 430.031 148.039 434.467 144.115 441.291 138.827 C 461.422 126.544 479.117 123.814 495.712 123.814 C 516.042 123.814 530.515 130.297 544.333 137.974 C 552.181 142.239 556.209 146.504 559.687 149.404 C 568.331 156.61 569.809 159.846 574.188 166.293 C 581.865 179.771 582.718 188.471 583.912 194.442 C 585.618 208.602 585.448 217.815 584.254 227.709 C 584.254 239.338 578.48 262.8 573.847 272.065 C 570.108 282.53 559.687 292.879 561.734 295.096 C 565.146 296.973 577.259 293.987 581.439 294.329 C 591.419 294.67 607.86 298.967 615.473 302.773 C 633.491 311.782 648.229 335.529 651.811 349.518 C 657.1 363.678 660 375.593 660 388.415 C 660 401.235 659.147 410.763 653.517 422.876 C 649.593 432.259 651.038 431.437 643.964 440.277 C 637.651 450.854 632.192 457.337 624.174 466.038 C 618.374 472.691 617.862 472.009 611.379 476.785 C 602.678 482.415 601.484 483.439 596.196 486.51 C 590.907 489.239 584.936 492.139 578.453 494.357 C 563.44 497.599 564.976 497.087 552.522 496.575 C 537.68 496.063 534.78 494.187 521.302 492.481 C 514.308 491.372 505.948 487.192 502.707 490.604 C 500.916 493.334 502.707 496.063 503.901 498.963 C 506.195 507.809 507.484 512.441 509.19 518.582 C 511.578 524.212 511.919 527.624 513.625 533.766 C 514.99 541.443 514.308 539.225 515.409 544.398 C 515.409 552.372 516.919 558.965 516.919 565.53 C 517.378 578.804 517.208 588.528 514.308 601.494 C 510.725 615.142 506.801 621.283 499.124 631.519 C 491.959 641.244 481.687 647.421 477.287 651.821 C 474.487 654.621 460.694 664.361 460.057 664.786" fill="none" vector-effect="non-scaling-stroke" stroke-width="10" stroke="rgb(145,101,152)" stroke-linejoin="miter" stroke-linecap="square" stroke-miterlimit="3"/></g></g></svg>