<?xml version="1.0" standalone="no"?><!-- Generator: Gravit.io --><svg xmlns="http://www.w3.org/2000/svg" xmlns:xlink="http://www.w3.org/1999/xlink" style="isolation:isolate" viewBox="0 0 523 86.13" width="523" height="86.13"><defs><clipPath id="_clipPath_DY2rqXNth4gu01ymF6OOi9czrGSEwiXM"><rect width="523" height="86.13"/></clipPath></defs><g clip-path="url(#_clipPath_DY2rqXNth4gu01ymF6OOi9czrGSEwiXM)"><rect width="523" height="86.13" style="fill:rgb(0,0,0)" fill-opacity="0"/><path d=" M 330.84 80.904 L 331.056 80.256 L 331.056 80.256 Q 331.2 76.224 331.272 72.3 L 331.272 72.3 L 331.272 72.3 Q 331.344 68.376 331.344 63.984 L 331.344 63.984 L 331.344 63.984 Q 331.344 62.112 331.272 60.276 L 331.272 60.276 L 331.272 60.276 Q 331.2 58.44 331.056 56.712 L 331.056 56.712 L 331.056 64.632 L 331.056 64.632 Q 331.056 68.592 330.948 72.516 L 330.948 72.516 L 330.948 72.516 Q 330.84 76.44 330.408 80.256 L 330.408 80.256 L 330.408 80.256 Q 330.048 79.608 329.76 78.924 L 329.76 78.924 L 329.76 78.924 Q 329.472 78.24 329.328 77.448 L 329.328 77.448 L 329.328 77.448 Q 329.472 75.504 329.508 73.884 L 329.508 73.884 L 329.508 73.884 Q 329.544 72.264 329.544 70.32 L 329.544 70.32 L 330.408 69.888 L 330.408 69.888 Q 330.192 68.376 330.12 66.828 L 330.12 66.828 L 330.12 66.828 Q 330.048 65.28 330.048 63.768 L 330.048 63.768 L 330.048 63.768 Q 330.048 62.112 330.084 60.564 L 330.084 60.564 L 330.084 60.564 Q 330.12 59.016 330.12 57.36 L 330.12 57.36 L 330.12 57.36 Q 330.12 55.344 330.012 53.364 L 330.012 53.364 L 330.012 53.364 Q 329.904 51.384 329.544 49.368 L 329.544 49.368 L 329.328 49.368 L 329.328 49.368 Q 329.472 52.392 329.58 55.344 L 329.58 55.344 L 329.58 55.344 Q 329.688 58.296 329.688 61.248 L 329.688 61.248 L 329.688 61.248 Q 329.688 62.544 329.616 63.84 L 329.616 63.84 L 329.544 65.712 L 329.544 65.712 Q 329.4 58.8 329.04 52.176 L 329.04 52.176 L 329.04 52.176 Q 328.752 45.12 328.032 37.704 L 328.032 37.704 L 328.32 31.728 L 328.32 31.728 Q 327.528 31.656 326.664 31.656 L 326.664 31.656 L 325.008 31.656 L 324.792 30 L 324.792 30 Q 324.792 29.64 325.296 29.352 L 325.296 29.352 L 325.296 29.352 Q 325.8 29.064 327.312 29.064 L 327.312 29.064 L 328.032 29.064 L 328.032 28.2 L 328.032 28.2 Q 325.656 27.912 324.324 27.192 L 324.324 27.192 L 324.324 27.192 Q 322.992 26.472 322.992 25.68 L 322.992 25.68 L 322.992 25.68 Q 322.992 24.96 324.288 24.42 L 324.288 24.42 L 324.288 24.42 Q 325.584 23.88 327.636 23.556 L 327.636 23.556 L 327.636 23.556 Q 329.688 23.232 332.136 23.088 L 332.136 23.088 L 332.136 23.088 Q 334.584 22.944 336.888 22.944 L 336.888 22.944 L 336.888 22.944 Q 339.408 22.944 342.324 23.088 L 342.324 23.088 L 342.324 23.088 Q 345.24 23.232 348.192 23.808 L 348.192 23.808 L 348.192 23.808 Q 351.144 24.384 353.916 25.572 L 353.916 25.572 L 353.916 25.572 Q 356.688 26.76 358.92 28.884 L 358.92 28.884 L 358.92 28.884 Q 361.152 31.008 362.628 34.212 L 362.628 34.212 L 362.628 34.212 Q 364.104 37.416 364.536 42.024 L 364.536 42.024 L 364.536 42.024 Q 364.536 45.912 362.844 48.396 L 362.844 48.396 L 362.844 48.396 Q 361.152 50.88 358.776 52.392 L 358.776 52.392 L 358.776 52.392 Q 356.4 53.904 353.844 54.552 L 353.844 54.552 L 353.844 54.552 Q 351.288 55.2 349.632 55.416 L 349.632 55.416 L 349.632 55.416 Q 347.976 55.776 345.816 56.244 L 345.816 56.244 L 345.816 56.244 Q 343.656 56.712 342.144 56.712 L 342.144 56.712 L 342.144 56.712 Q 340.488 56.712 340.2 56.352 L 340.2 56.352 L 340.2 56.352 Q 339.912 55.992 339.912 55.416 L 339.912 55.416 L 339.912 55.416 Q 343.152 55.272 346.392 54.876 L 346.392 54.876 L 346.392 54.876 Q 349.632 54.48 352.872 53.472 L 352.872 53.472 L 352.872 53.472 Q 349.632 54.264 346.392 54.66 L 346.392 54.66 L 346.392 54.66 Q 343.152 55.056 339.912 55.2 L 339.912 55.2 L 339.912 55.2 Q 339.912 54.768 339.84 54.3 L 339.84 54.3 L 339.84 54.3 Q 339.768 53.832 339.408 53.832 L 339.408 53.832 L 339.408 53.832 Q 338.688 53.832 338.292 56.136 L 338.292 56.136 L 338.292 56.136 Q 337.896 58.44 337.716 61.644 L 337.716 61.644 L 337.716 61.644 Q 337.536 64.848 337.5 68.232 L 337.5 68.232 L 337.5 68.232 Q 337.464 71.616 337.464 73.848 L 337.464 73.848 L 337.464 73.848 Q 337.464 74.856 337.572 75.972 L 337.572 75.972 L 337.572 75.972 Q 337.68 77.088 337.68 77.88 L 337.68 77.88 L 337.68 77.88 Q 337.68 78.6 337.464 79.104 L 337.464 79.104 L 337.464 79.104 Q 337.248 79.608 336.24 79.608 L 336.24 79.608 L 336.24 70.536 L 336.24 70.536 Q 336.096 72.84 336.06 75.072 L 336.06 75.072 L 336.06 75.072 Q 336.024 77.304 336.024 79.608 L 336.024 79.608 L 334.728 79.608 L 334.728 80.184 L 334.728 80.184 Q 334.728 80.832 334.944 81.12 L 334.944 81.12 L 334.944 81.12 Q 334.152 82.488 333.144 82.488 L 333.144 82.488 L 333.144 82.488 Q 332.352 82.488 331.956 82.056 L 331.956 82.056 L 331.956 82.056 Q 331.56 81.624 330.84 80.904 L 330.84 80.904 L 330.84 80.904 Z  M 337.536 45.696 L 338.04 50.232 L 339.048 50.232 L 339.048 50.232 Q 341.568 50.232 344.844 49.944 L 344.844 49.944 L 344.844 49.944 Q 348.12 49.656 351 48.864 L 351 48.864 L 351 48.864 Q 353.88 48.072 355.86 46.632 L 355.86 46.632 L 355.86 46.632 Q 357.84 45.192 357.84 42.888 L 357.84 42.888 L 357.84 42.312 L 357.84 42.312 Q 357.84 41.592 357.732 40.728 L 357.732 40.728 L 357.732 40.728 Q 357.624 39.864 357.12 39.072 L 357.12 39.072 L 357.12 39.072 Q 357.192 39.432 357.48 40.512 L 357.48 40.512 L 357.48 40.512 Q 357.768 41.592 357.768 42.312 L 357.768 42.312 L 357.768 42.312 Q 357.768 44.544 356.22 45.948 L 356.22 45.948 L 356.22 45.948 Q 354.672 47.352 352.332 48.18 L 352.332 48.18 L 352.332 48.18 Q 349.992 49.008 347.22 49.332 L 347.22 49.332 L 347.22 49.332 Q 344.448 49.656 341.928 49.656 L 341.928 49.656 L 340.488 49.656 L 340.488 49.656 Q 339.768 49.656 339.048 49.584 L 339.048 49.584 L 339.048 49.584 Q 340.056 48.792 341.676 48.468 L 341.676 48.468 L 341.676 48.468 Q 343.296 48.144 345.096 47.928 L 345.096 47.928 L 345.096 47.928 Q 346.896 47.712 348.624 47.496 L 348.624 47.496 L 348.624 47.496 Q 350.352 47.28 351.576 46.776 L 351.576 46.776 L 352.008 47.64 L 352.008 47.64 Q 354.528 46.416 355.572 45.228 L 355.572 45.228 L 355.572 45.228 Q 356.616 44.04 356.616 41.952 L 356.616 41.952 L 356.616 41.952 Q 356.616 38.64 354.78 36.12 L 354.78 36.12 L 354.78 36.12 Q 352.944 33.6 349.848 32.736 L 349.848 32.736 L 349.632 33.168 L 349.632 33.168 Q 352.296 34.176 354.24 36.48 L 354.24 36.48 L 354.24 36.48 Q 356.184 38.784 356.184 42.024 L 356.184 42.024 L 356.184 42.024 Q 356.184 43.752 355.392 44.76 L 355.392 44.76 L 355.392 44.76 Q 354.672 45.624 353.088 46.344 L 353.088 46.344 L 353.088 46.344 Q 354.384 45.768 355.032 44.904 L 355.032 44.904 L 355.032 44.904 Q 355.824 43.896 356.112 42.672 L 356.112 42.672 L 356.112 42.672 Q 356.112 39.648 354.672 37.56 L 354.672 37.56 L 354.672 37.56 Q 353.232 35.472 350.64 34.212 L 350.64 34.212 L 350.64 34.212 Q 348.048 32.952 344.412 32.412 L 344.412 32.412 L 344.412 32.412 Q 340.776 31.872 336.384 31.872 L 336.384 31.872 L 336.384 31.872 Q 336.96 34.968 337.068 38.604 L 337.068 38.604 L 337.068 38.604 Q 337.176 42.24 337.536 45.696 L 337.536 45.696 L 337.536 45.696 Z  M 330.84 31.872 L 330.768 39.216 L 330.768 39.216 Q 330.912 39.072 331.056 37.992 L 331.056 37.992 L 331.056 37.992 Q 331.2 36.912 331.308 35.652 L 331.308 35.652 L 331.308 35.652 Q 331.416 34.392 331.524 33.276 L 331.524 33.276 L 331.524 33.276 Q 331.632 32.16 331.776 31.944 L 331.776 31.944 L 330.84 31.872 L 330.84 31.872 Z  M 353.088 46.344 L 352.728 46.488 L 353.088 46.344 L 353.088 46.344 Z  M 397.944 60.672 L 397.944 60.672 L 397.944 60.672 Q 395.208 61.608 393.768 61.716 L 393.768 61.716 L 393.768 61.716 Q 392.328 61.824 391.248 61.896 L 391.248 61.896 L 391.248 61.896 Q 387.216 61.896 383.976 60.384 L 383.976 60.384 L 383.976 60.384 Q 380.736 58.872 378.432 56.28 L 378.432 56.28 L 378.432 56.28 Q 376.128 53.688 374.868 50.196 L 374.868 50.196 L 374.868 50.196 Q 373.608 46.704 373.608 42.744 L 373.608 42.744 L 373.608 42.744 Q 373.608 40.44 374.04 37.956 L 374.04 37.956 L 374.04 37.956 Q 374.472 35.472 375.336 33.06 L 375.336 33.06 L 375.336 33.06 Q 376.2 30.648 377.568 28.56 L 377.568 28.56 L 377.568 28.56 Q 378.864 26.472 380.664 24.816 L 380.664 24.816 L 380.664 24.816 Q 378.792 26.328 377.496 28.416 L 377.496 28.416 L 377.496 28.416 Q 376.128 30.504 375.192 32.916 L 375.192 32.916 L 375.192 32.916 Q 374.256 35.328 373.824 37.884 L 373.824 37.884 L 373.824 37.884 Q 373.392 40.44 373.392 42.816 L 373.392 42.816 L 373.392 42.816 Q 373.392 45.84 374.364 49.26 L 374.364 49.26 L 374.364 49.26 Q 375.336 52.68 377.496 55.596 L 377.496 55.596 L 377.496 55.596 Q 379.656 58.512 383.076 60.456 L 383.076 60.456 L 383.076 60.456 Q 386.496 62.4 391.392 62.4 L 391.392 62.4 L 391.392 62.4 Q 393.696 62.4 396.216 61.752 L 396.216 61.752 L 396.216 61.752 Q 393.48 63.552 390.096 63.552 L 390.096 63.552 L 390.096 63.552 Q 387.36 63.552 384.948 62.724 L 384.948 62.724 L 384.948 62.724 Q 382.536 61.896 380.484 60.42 L 380.484 60.42 L 380.484 60.42 Q 378.432 58.944 376.776 56.928 L 376.776 56.928 L 376.776 56.928 Q 375.12 54.912 373.968 52.608 L 373.968 52.608 L 374.616 52.032 L 374.616 52.032 Q 373.392 49.584 372.852 47.136 L 372.852 47.136 L 372.852 47.136 Q 372.312 44.688 372.312 42.168 L 372.312 42.168 L 372.312 42.168 Q 372.312 38.496 373.356 35.112 L 373.356 35.112 L 373.356 35.112 Q 374.4 31.728 376.128 28.704 L 376.128 28.704 L 377.856 26.328 L 377.856 26.328 Q 378.288 25.536 379.116 24.744 L 379.116 24.744 L 379.116 24.744 Q 379.944 23.952 380.952 23.196 L 380.952 23.196 L 380.952 23.196 Q 381.96 22.44 383.076 21.828 L 383.076 21.828 L 383.076 21.828 Q 384.192 21.216 385.2 20.712 L 385.2 20.712 L 385.2 20.712 Q 387.792 19.416 390.384 18.372 L 390.384 18.372 L 390.384 18.372 Q 392.976 17.328 396.432 16.824 L 396.432 16.824 L 396.144 16.608 L 396.144 16.608 Q 389.52 17.256 384.912 19.812 L 384.912 19.812 L 384.912 19.812 Q 380.304 22.368 377.424 26.04 L 377.424 26.04 L 377.424 26.04 Q 374.544 29.712 373.248 34.068 L 373.248 34.068 L 373.248 34.068 Q 371.952 38.424 371.952 42.6 L 371.952 42.6 L 371.952 42.6 Q 371.952 44.832 372.348 47.1 L 372.348 47.1 L 372.348 47.1 Q 372.744 49.368 373.536 51.6 L 373.536 51.6 L 373.536 51.6 Q 371.736 47.28 371.736 42.456 L 371.736 42.456 L 371.736 42.456 Q 371.736 37.704 373.32 33.024 L 373.32 33.024 L 373.32 33.024 Q 374.904 28.344 378.288 24.384 L 378.288 24.384 L 378.288 24.384 Q 382.608 20.424 387.72 18.3 L 387.72 18.3 L 387.72 18.3 Q 392.832 16.176 397.584 16.176 L 397.584 16.176 L 397.584 16.176 Q 399.096 16.176 400.68 16.68 L 400.68 16.68 L 400.68 16.68 Q 402.264 17.184 403.56 18.228 L 403.56 18.228 L 403.56 18.228 Q 404.856 19.272 405.684 20.928 L 405.684 20.928 L 405.684 20.928 Q 406.512 22.584 406.512 24.96 L 406.512 24.96 L 406.512 24.96 Q 406.512 26.904 405.576 29.712 L 405.576 29.712 L 405.576 29.712 Q 404.64 32.52 402.804 35.148 L 402.804 35.148 L 402.804 35.148 Q 400.968 37.776 398.232 39.612 L 398.232 39.612 L 398.232 39.612 Q 395.496 41.448 391.896 41.448 L 391.896 41.448 L 389.52 41.448 L 389.52 41.448 Q 386.856 40.872 384.66 40.116 L 384.66 40.116 L 384.66 40.116 Q 382.464 39.36 380.52 38.928 L 380.52 38.928 L 380.52 38.928 Q 380.232 40.08 380.196 41.124 L 380.196 41.124 L 380.196 41.124 Q 380.16 42.168 380.16 43.176 L 380.16 43.176 L 380.16 43.176 Q 380.16 45.264 380.628 47.244 L 380.628 47.244 L 380.628 47.244 Q 381.096 49.224 382.104 50.88 L 382.104 50.88 L 382.104 50.88 Q 383.112 52.536 384.66 53.652 L 384.66 53.652 L 384.66 53.652 Q 386.208 54.768 388.44 55.056 L 388.44 55.056 L 388.44 55.056 Q 389.808 55.344 390.816 55.38 L 390.816 55.38 L 390.816 55.38 Q 391.824 55.416 392.508 55.452 L 392.508 55.452 L 392.508 55.452 Q 393.192 55.488 393.516 55.668 L 393.516 55.668 L 393.516 55.668 Q 393.84 55.848 393.84 56.352 L 393.84 56.352 L 393.84 56.352 Q 393.12 56.568 392.364 56.64 L 392.364 56.64 L 392.364 56.64 Q 391.608 56.712 390.816 56.712 L 390.816 56.712 L 390.816 56.712 Q 388.296 56.712 386.28 55.884 L 386.28 55.884 L 386.28 55.884 Q 384.264 55.056 382.824 53.976 L 382.824 53.976 L 382.824 53.976 Q 384.48 55.632 386.784 56.316 L 386.784 56.316 L 386.784 56.316 Q 389.088 57 391.32 57 L 391.32 57 L 391.32 57 Q 392.544 57 393.84 56.784 L 393.84 56.784 L 393.84 56.784 Q 393.696 57.216 393.696 57.288 L 393.696 57.288 L 393.696 57.288 Q 393.696 57.72 394.056 57.864 L 394.056 57.864 L 394.056 57.864 Q 394.344 57.792 395.064 57.468 L 395.064 57.468 L 395.064 57.468 Q 395.784 57.144 396.54 56.82 L 396.54 56.82 L 396.54 56.82 Q 397.296 56.496 398.016 56.244 L 398.016 56.244 L 398.016 56.244 Q 398.736 55.992 399.024 55.992 L 399.024 55.992 L 399.024 55.992 Q 399.384 55.992 399.672 56.1 L 399.672 56.1 L 399.672 56.1 Q 399.96 56.208 399.96 56.928 L 399.96 56.928 L 399.96 56.928 Q 399.96 57.648 399.456 58.656 L 399.456 58.656 L 399.456 58.656 Q 398.952 59.664 397.944 60.672 Z  M 388.008 32.16 L 388.008 32.16 L 389.592 32.448 L 389.592 32.448 Q 390.384 32.592 391.032 32.592 L 391.032 32.592 L 391.032 32.592 Q 391.752 32.592 392.724 32.124 L 392.724 32.124 L 392.724 32.124 Q 393.696 31.656 394.668 30.792 L 394.668 30.792 L 394.668 30.792 Q 395.64 29.928 396.396 28.632 L 396.396 28.632 L 396.396 28.632 Q 397.152 27.336 397.512 25.68 L 397.512 25.68 L 397.656 25.248 L 397.656 25.248 Q 396.648 25.248 394.632 25.752 L 394.632 25.752 L 394.632 25.752 Q 392.616 26.256 390.456 27.084 L 390.456 27.084 L 390.456 27.084 Q 388.296 27.912 386.424 29.028 L 386.424 29.028 L 386.424 29.028 Q 384.552 30.144 383.832 31.44 L 383.832 31.44 L 383.832 31.44 Q 384.912 31.656 385.956 31.836 L 385.956 31.836 L 385.956 31.836 Q 387 32.016 388.008 32.16 Z  M 381.168 36.408 L 384.696 37.488 L 384.696 37.488 Q 384.84 37.344 384.876 37.056 L 384.876 37.056 L 384.876 37.056 Q 384.912 36.768 384.912 36.624 L 384.912 36.624 L 381.528 35.4 L 381.168 36.408 L 381.168 36.408 Z  M 382.68 53.832 L 382.68 53.832 L 382.68 53.832 Q 382.176 53.256 381.672 52.68 L 381.672 52.68 L 381.672 52.68 Q 381.24 52.176 380.952 51.672 L 380.952 51.672 L 380.952 51.672 Q 381.6 52.896 382.68 53.832 Z  M 427.248 59.448 L 425.448 60.168 L 425.448 60.168 Q 424.728 60.312 423.864 60.312 L 423.864 60.312 L 421.776 60.312 L 421.776 60.312 Q 419.904 60.312 419.148 60.744 L 419.148 60.744 L 419.148 60.744 Q 418.392 61.176 418.248 61.176 L 418.248 61.176 L 417.96 59.88 L 417.96 58.584 L 417.6 51.816 L 417.6 51.816 Q 417.456 49.872 416.808 47.64 L 416.808 47.64 L 416.808 47.64 Q 416.16 45.408 415.8 43.104 L 415.8 43.104 L 415.8 43.104 Q 415.584 41.592 415.44 40.224 L 415.44 40.224 L 415.152 37.416 L 415.152 37.416 Q 415.008 35.976 414.828 34.464 L 414.828 34.464 L 414.828 34.464 Q 414.648 32.952 414.288 31.224 L 414.288 31.224 L 414.288 31.224 Q 414.288 30.792 414.324 30.36 L 414.324 30.36 L 414.324 30.36 Q 414.36 29.928 414.36 29.496 L 414.36 29.496 L 414.36 29.496 Q 414.36 27.264 414 25.104 L 414 25.104 L 414 25.104 Q 413.64 22.944 412.992 20.856 L 412.992 20.856 L 412.992 20.856 Q 413.496 20.64 413.928 20.46 L 413.928 20.46 L 413.928 20.46 Q 414.36 20.28 414.72 20.28 L 414.72 20.28 L 414.72 20.28 Q 415.08 20.28 415.512 21.108 L 415.512 21.108 L 415.512 21.108 Q 415.944 21.936 416.448 24.528 L 416.448 24.528 L 416.448 24.528 Q 416.592 24.528 416.88 24.42 L 416.88 24.42 L 416.88 24.42 Q 417.168 24.312 417.312 24.312 L 417.312 24.312 L 417.312 24.312 Q 417.24 23.088 416.952 21.684 L 416.952 21.684 L 416.952 21.684 Q 416.664 20.28 416.376 18.984 L 416.376 18.984 L 416.376 18.984 Q 416.088 17.688 415.836 16.644 L 415.836 16.644 L 415.836 16.644 Q 415.584 15.6 415.584 14.952 L 415.584 14.952 L 415.584 14.952 Q 415.584 14.808 415.62 14.592 L 415.62 14.592 L 415.62 14.592 Q 415.656 14.376 415.944 14.376 L 415.944 14.376 L 415.944 14.376 Q 416.304 14.376 416.88 15.168 L 416.88 15.168 L 416.88 15.168 Q 417.456 15.96 418.104 17.184 L 418.104 17.184 L 418.104 17.184 Q 418.752 18.408 419.364 19.812 L 419.364 19.812 L 419.364 19.812 Q 419.976 21.216 420.48 22.44 L 420.48 22.44 L 420.48 22.44 Q 422.424 18.768 424.908 16.86 L 424.908 16.86 L 424.908 16.86 Q 427.392 14.952 431.424 14.952 L 431.424 14.952 L 431.424 14.952 Q 434.376 14.952 436.248 15.636 L 436.248 15.636 L 436.248 15.636 Q 438.12 16.32 439.164 17.148 L 439.164 17.148 L 439.164 17.148 Q 440.208 17.976 440.568 18.696 L 440.568 18.696 L 441 19.416 L 441 19.416 Q 441 19.848 440.568 19.992 L 440.568 19.992 L 440.568 19.992 Q 438.696 18.192 436.32 17.256 L 436.32 17.256 L 436.32 17.256 Q 433.944 16.32 431.424 16.32 L 431.424 16.32 L 431.424 16.32 Q 428.976 16.32 427.752 16.968 L 427.752 16.968 L 427.752 16.968 Q 426.6 17.544 425.304 18.408 L 425.304 18.408 L 425.304 18.408 Q 426.672 17.544 427.824 17.04 L 427.824 17.04 L 427.824 17.04 Q 429.048 16.536 431.352 16.536 L 431.352 16.536 L 431.352 16.536 Q 433.872 16.536 436.176 17.508 L 436.176 17.508 L 436.176 17.508 Q 438.48 18.48 440.136 19.992 L 440.136 19.992 L 440.136 19.992 Q 439.776 20.136 439.524 20.316 L 439.524 20.316 L 439.524 20.316 Q 439.272 20.496 439.272 20.856 L 439.272 20.856 L 439.272 20.856 Q 439.632 20.856 440.064 21.324 L 440.064 21.324 L 440.064 21.324 Q 440.496 21.792 440.856 22.44 L 440.856 22.44 L 440.856 22.44 Q 441.216 23.088 441.468 23.772 L 441.468 23.772 L 441.468 23.772 Q 441.72 24.456 441.72 24.888 L 441.72 24.888 L 441.72 24.888 Q 441.72 26.112 440.784 26.112 L 440.784 26.112 L 440.784 26.112 Q 440.064 26.112 439.056 25.608 L 439.056 25.608 L 439.056 25.608 Q 438.84 25.536 438.156 24.816 L 438.156 24.816 L 438.156 24.816 Q 437.472 24.096 436.464 23.34 L 436.464 23.34 L 436.464 23.34 Q 435.456 22.584 434.16 21.936 L 434.16 21.936 L 434.16 21.936 Q 432.864 21.288 431.28 21.288 L 431.28 21.288 L 431.28 21.288 Q 429.984 21.288 429.012 21.828 L 429.012 21.828 L 429.012 21.828 Q 428.04 22.368 427.248 23.268 L 427.248 23.268 L 427.248 23.268 Q 426.456 24.168 425.808 25.32 L 425.808 25.32 L 424.872 27.048 L 424.872 27.048 Q 425.952 25.104 427.248 23.52 L 427.248 23.52 L 427.248 23.52 Q 428.688 21.648 430.848 21.648 L 430.848 21.648 L 430.848 21.648 Q 432.72 21.648 434.304 22.476 L 434.304 22.476 L 434.304 22.476 Q 435.888 23.304 436.896 24.528 L 436.896 24.528 L 436.896 24.528 Q 435.672 24.024 434.016 23.52 L 434.016 23.52 L 434.016 23.52 Q 432.36 23.016 430.848 23.016 L 430.848 23.016 L 430.848 23.016 Q 430.056 23.016 429.48 23.376 L 429.48 23.376 L 429.48 23.376 Q 428.904 23.736 428.508 24.276 L 428.508 24.276 L 428.508 24.276 Q 428.112 24.816 427.788 25.464 L 427.788 25.464 L 427.788 25.464 Q 427.464 26.112 427.104 26.688 L 427.104 26.688 L 426.168 26.832 L 426.168 26.832 Q 424.944 28.92 424.188 31.692 L 424.188 31.692 L 424.188 31.692 Q 423.432 34.464 423.432 37.488 L 423.432 37.488 L 423.432 37.488 Q 423.432 39.288 423.612 40.728 L 423.612 40.728 L 423.612 40.728 Q 423.792 42.168 424.152 43.68 L 424.152 43.68 L 425.016 45.912 L 424.872 43.824 L 424.872 43.824 Q 424.728 41.376 424.584 39.468 L 424.584 39.468 L 424.584 39.468 Q 424.44 37.56 424.44 35.256 L 424.44 35.256 L 424.44 35.256 Q 424.584 33.168 425.016 31.296 L 425.016 31.296 L 425.016 31.296 Q 425.376 29.712 426.096 28.344 L 426.096 28.344 L 426.096 28.344 Q 425.232 30.072 424.944 32.304 L 424.944 32.304 L 424.944 32.304 Q 424.584 34.752 424.584 37.488 L 424.584 37.488 L 424.584 37.488 Q 424.584 39.648 424.8 41.592 L 424.8 41.592 L 424.8 41.592 Q 425.016 43.536 425.34 45.48 L 425.34 45.48 L 425.34 45.48 Q 425.664 47.424 426.024 49.476 L 426.024 49.476 L 426.024 49.476 Q 426.384 51.528 426.6 53.976 L 426.6 53.976 L 426.816 55.344 L 427.248 59.448 L 427.248 59.448 Z  M 426.096 28.344 L 426.312 27.984 L 426.096 28.344 L 426.096 28.344 Z  M 459.576 59.448 L 457.776 60.168 L 457.776 60.168 Q 457.056 60.312 456.192 60.312 L 456.192 60.312 L 454.104 60.312 L 454.104 60.312 Q 452.232 60.312 451.476 60.744 L 451.476 60.744 L 451.476 60.744 Q 450.72 61.176 450.576 61.176 L 450.576 61.176 L 450.288 59.88 L 450.288 58.584 L 449.928 51.816 L 449.928 51.816 Q 449.784 49.872 449.136 47.64 L 449.136 47.64 L 449.136 47.64 Q 448.488 45.408 448.128 43.104 L 448.128 43.104 L 448.128 43.104 Q 447.912 41.592 447.768 40.224 L 447.768 40.224 L 447.48 37.416 L 447.48 37.416 Q 447.336 35.976 447.156 34.464 L 447.156 34.464 L 447.156 34.464 Q 446.976 32.952 446.616 31.224 L 446.616 31.224 L 446.616 31.224 Q 446.616 30.792 446.652 30.36 L 446.652 30.36 L 446.652 30.36 Q 446.688 29.928 446.688 29.496 L 446.688 29.496 L 446.688 29.496 Q 446.688 27.264 446.328 25.104 L 446.328 25.104 L 446.328 25.104 Q 445.968 22.944 445.32 20.856 L 445.32 20.856 L 445.32 20.856 Q 445.824 20.64 446.256 20.46 L 446.256 20.46 L 446.256 20.46 Q 446.688 20.28 447.048 20.28 L 447.048 20.28 L 447.048 20.28 Q 447.408 20.28 447.84 21.108 L 447.84 21.108 L 447.84 21.108 Q 448.272 21.936 448.776 24.528 L 448.776 24.528 L 448.776 24.528 Q 448.92 24.528 449.208 24.42 L 449.208 24.42 L 449.208 24.42 Q 449.496 24.312 449.64 24.312 L 449.64 24.312 L 449.64 24.312 Q 449.568 23.088 449.28 21.684 L 449.28 21.684 L 449.28 21.684 Q 448.992 20.28 448.704 18.984 L 448.704 18.984 L 448.704 18.984 Q 448.416 17.688 448.164 16.644 L 448.164 16.644 L 448.164 16.644 Q 447.912 15.6 447.912 14.952 L 447.912 14.952 L 447.912 14.952 Q 447.912 14.808 447.948 14.592 L 447.948 14.592 L 447.948 14.592 Q 447.984 14.376 448.272 14.376 L 448.272 14.376 L 448.272 14.376 Q 448.632 14.376 449.208 15.168 L 449.208 15.168 L 449.208 15.168 Q 449.784 15.96 450.432 17.184 L 450.432 17.184 L 450.432 17.184 Q 451.08 18.408 451.692 19.812 L 451.692 19.812 L 451.692 19.812 Q 452.304 21.216 452.808 22.44 L 452.808 22.44 L 452.808 22.44 Q 454.752 18.768 457.236 16.86 L 457.236 16.86 L 457.236 16.86 Q 459.72 14.952 463.752 14.952 L 463.752 14.952 L 463.752 14.952 Q 466.704 14.952 468.576 15.636 L 468.576 15.636 L 468.576 15.636 Q 470.448 16.32 471.492 17.148 L 471.492 17.148 L 471.492 17.148 Q 472.536 17.976 472.896 18.696 L 472.896 18.696 L 473.328 19.416 L 473.328 19.416 Q 473.328 19.848 472.896 19.992 L 472.896 19.992 L 472.896 19.992 Q 471.024 18.192 468.648 17.256 L 468.648 17.256 L 468.648 17.256 Q 466.272 16.32 463.752 16.32 L 463.752 16.32 L 463.752 16.32 Q 461.304 16.32 460.08 16.968 L 460.08 16.968 L 460.08 16.968 Q 458.928 17.544 457.632 18.408 L 457.632 18.408 L 457.632 18.408 Q 459 17.544 460.152 17.04 L 460.152 17.04 L 460.152 17.04 Q 461.376 16.536 463.68 16.536 L 463.68 16.536 L 463.68 16.536 Q 466.2 16.536 468.504 17.508 L 468.504 17.508 L 468.504 17.508 Q 470.808 18.48 472.464 19.992 L 472.464 19.992 L 472.464 19.992 Q 472.104 20.136 471.852 20.316 L 471.852 20.316 L 471.852 20.316 Q 471.6 20.496 471.6 20.856 L 471.6 20.856 L 471.6 20.856 Q 471.96 20.856 472.392 21.324 L 472.392 21.324 L 472.392 21.324 Q 472.824 21.792 473.184 22.44 L 473.184 22.44 L 473.184 22.44 Q 473.544 23.088 473.796 23.772 L 473.796 23.772 L 473.796 23.772 Q 474.048 24.456 474.048 24.888 L 474.048 24.888 L 474.048 24.888 Q 474.048 26.112 473.112 26.112 L 473.112 26.112 L 473.112 26.112 Q 472.392 26.112 471.384 25.608 L 471.384 25.608 L 471.384 25.608 Q 471.168 25.536 470.484 24.816 L 470.484 24.816 L 470.484 24.816 Q 469.8 24.096 468.792 23.34 L 468.792 23.34 L 468.792 23.34 Q 467.784 22.584 466.488 21.936 L 466.488 21.936 L 466.488 21.936 Q 465.192 21.288 463.608 21.288 L 463.608 21.288 L 463.608 21.288 Q 462.312 21.288 461.34 21.828 L 461.34 21.828 L 461.34 21.828 Q 460.368 22.368 459.576 23.268 L 459.576 23.268 L 459.576 23.268 Q 458.784 24.168 458.136 25.32 L 458.136 25.32 L 457.2 27.048 L 457.2 27.048 Q 458.28 25.104 459.576 23.52 L 459.576 23.52 L 459.576 23.52 Q 461.016 21.648 463.176 21.648 L 463.176 21.648 L 463.176 21.648 Q 465.048 21.648 466.632 22.476 L 466.632 22.476 L 466.632 22.476 Q 468.216 23.304 469.224 24.528 L 469.224 24.528 L 469.224 24.528 Q 468 24.024 466.344 23.52 L 466.344 23.52 L 466.344 23.52 Q 464.688 23.016 463.176 23.016 L 463.176 23.016 L 463.176 23.016 Q 462.384 23.016 461.808 23.376 L 461.808 23.376 L 461.808 23.376 Q 461.232 23.736 460.836 24.276 L 460.836 24.276 L 460.836 24.276 Q 460.44 24.816 460.116 25.464 L 460.116 25.464 L 460.116 25.464 Q 459.792 26.112 459.432 26.688 L 459.432 26.688 L 458.496 26.832 L 458.496 26.832 Q 457.272 28.92 456.516 31.692 L 456.516 31.692 L 456.516 31.692 Q 455.76 34.464 455.76 37.488 L 455.76 37.488 L 455.76 37.488 Q 455.76 39.288 455.94 40.728 L 455.94 40.728 L 455.94 40.728 Q 456.12 42.168 456.48 43.68 L 456.48 43.68 L 457.344 45.912 L 457.2 43.824 L 457.2 43.824 Q 457.056 41.376 456.912 39.468 L 456.912 39.468 L 456.912 39.468 Q 456.768 37.56 456.768 35.256 L 456.768 35.256 L 456.768 35.256 Q 456.912 33.168 457.344 31.296 L 457.344 31.296 L 457.344 31.296 Q 457.704 29.712 458.424 28.344 L 458.424 28.344 L 458.424 28.344 Q 457.56 30.072 457.272 32.304 L 457.272 32.304 L 457.272 32.304 Q 456.912 34.752 456.912 37.488 L 456.912 37.488 L 456.912 37.488 Q 456.912 39.648 457.128 41.592 L 457.128 41.592 L 457.128 41.592 Q 457.344 43.536 457.668 45.48 L 457.668 45.48 L 457.668 45.48 Q 457.992 47.424 458.352 49.476 L 458.352 49.476 L 458.352 49.476 Q 458.712 51.528 458.928 53.976 L 458.928 53.976 L 459.144 55.344 L 459.576 59.448 L 459.576 59.448 Z  M 458.424 28.344 L 458.64 27.984 L 458.424 28.344 L 458.424 28.344 Z  M 492.912 16.032 L 492.912 16.032 L 492.912 16.032 Q 492.984 16.392 493.704 16.392 L 493.704 16.392 L 493.848 16.392 L 493.848 16.392 Q 494.28 16.392 494.424 16.464 L 494.424 16.464 L 494.424 16.464 Q 498.168 17.616 501.876 19.812 L 501.876 19.812 L 501.876 19.812 Q 505.584 22.008 508.572 25.068 L 508.572 25.068 L 508.572 25.068 Q 511.56 28.128 513.396 32.016 L 513.396 32.016 L 513.396 32.016 Q 515.232 35.904 515.232 40.368 L 515.232 40.368 L 515.232 40.368 Q 515.232 44.256 513.72 47.856 L 513.72 47.856 L 513.72 47.856 Q 512.208 51.456 509.544 54.12 L 509.544 54.12 L 509.544 54.12 Q 512.28 51.744 513.9 48.18 L 513.9 48.18 L 513.9 48.18 Q 515.52 44.616 515.52 40.512 L 515.52 40.512 L 515.52 40.512 Q 515.52 35.904 513.576 31.908 L 513.576 31.908 L 513.576 31.908 Q 511.632 27.912 508.608 24.744 L 508.608 24.744 L 508.608 24.744 Q 505.584 21.576 501.876 19.308 L 501.876 19.308 L 501.876 19.308 Q 498.168 17.04 494.64 15.816 L 494.64 15.816 L 494.64 15.816 Q 497.376 15.816 500.22 17.04 L 500.22 17.04 L 500.22 17.04 Q 503.064 18.264 505.656 20.244 L 505.656 20.244 L 505.656 20.244 Q 508.248 22.224 510.444 24.78 L 510.444 24.78 L 510.444 24.78 Q 512.64 27.336 514.152 30 L 514.152 30 L 513.648 30.72 L 513.648 30.72 Q 515.088 32.88 515.844 35.4 L 515.844 35.4 L 515.844 35.4 Q 516.6 37.92 516.6 40.584 L 516.6 40.584 L 516.6 40.584 Q 516.6 45.696 514.404 49.548 L 514.404 49.548 L 514.404 49.548 Q 512.208 53.4 508.86 55.956 L 508.86 55.956 L 508.86 55.956 Q 505.512 58.512 501.516 59.808 L 501.516 59.808 L 501.516 59.808 Q 497.52 61.104 493.992 61.104 L 493.992 61.104 L 493.992 61.104 Q 491.976 61.104 489.924 60.672 L 489.924 60.672 L 489.924 60.672 Q 487.872 60.24 485.784 59.232 L 485.784 59.232 L 485.784 59.664 L 485.784 59.664 Q 487.8 60.816 489.924 61.248 L 489.924 61.248 L 489.924 61.248 Q 492.048 61.68 494.136 61.68 L 494.136 61.68 L 494.136 61.68 Q 499.32 61.68 504.324 59.412 L 504.324 59.412 L 504.324 59.412 Q 509.328 57.144 512.784 53.04 L 512.784 53.04 L 512.784 53.04 Q 509.472 57.288 504.54 59.664 L 504.54 59.664 L 504.54 59.664 Q 499.608 62.04 494.28 62.04 L 494.28 62.04 L 494.28 62.04 Q 488.808 62.04 485.424 59.916 L 485.424 59.916 L 485.424 59.916 Q 482.04 57.792 480.132 54.696 L 480.132 54.696 L 480.132 54.696 Q 478.224 51.6 477.576 48.144 L 477.576 48.144 L 477.576 48.144 Q 476.928 44.688 476.928 41.952 L 476.928 41.952 L 476.928 41.952 Q 476.928 38.28 477.9 34.752 L 477.9 34.752 L 477.9 34.752 Q 478.872 31.224 480.888 28.272 L 480.888 28.272 L 480.888 28.272 Q 482.904 25.32 486.072 23.196 L 486.072 23.196 L 486.072 23.196 Q 489.24 21.072 493.704 20.208 L 493.704 20.208 L 491.616 19.704 L 491.616 19.704 Q 490.104 19.344 489.456 18.84 L 489.456 18.84 L 489.456 18.84 Q 488.808 18.336 488.808 17.976 L 488.808 17.976 L 488.808 17.976 Q 488.808 17.4 490.068 16.716 L 490.068 16.716 L 490.068 16.716 Q 491.328 16.032 492.912 16.032 Z  M 489.24 24.456 L 489.672 25.104 L 489.672 25.104 Q 491.616 24.384 493.416 24.384 L 493.416 24.384 L 493.416 24.384 Q 495.216 24.384 496.188 24.924 L 496.188 24.924 L 496.188 24.924 Q 497.16 25.464 497.16 26.04 L 497.16 26.04 L 497.16 26.04 Q 497.16 26.4 496.332 26.832 L 496.332 26.832 L 496.332 26.832 Q 495.504 27.264 494.244 28.02 L 494.244 28.02 L 494.244 28.02 Q 492.984 28.776 491.508 29.928 L 491.508 29.928 L 491.508 29.928 Q 490.032 31.08 488.772 32.844 L 488.772 32.844 L 488.772 32.844 Q 487.512 34.608 486.684 37.128 L 486.684 37.128 L 486.684 37.128 Q 485.856 39.648 485.856 43.032 L 485.856 43.032 L 485.856 43.032 Q 485.856 48 488.088 50.52 L 488.088 50.52 L 488.088 50.52 Q 490.32 53.04 494.28 53.04 L 494.28 53.04 L 494.28 53.04 Q 496.8 53.04 499.428 52.176 L 499.428 52.176 L 499.428 52.176 Q 502.056 51.312 504.18 49.728 L 504.18 49.728 L 504.18 49.728 Q 506.304 48.144 507.636 45.84 L 507.636 45.84 L 507.636 45.84 Q 508.968 43.536 508.968 40.656 L 508.968 40.656 L 508.968 40.656 Q 508.968 38.496 508.212 36.336 L 508.212 36.336 L 508.212 36.336 Q 507.456 34.176 506.124 32.196 L 506.124 32.196 L 506.124 32.196 Q 504.792 30.216 502.956 28.488 L 502.956 28.488 L 502.956 28.488 Q 501.12 26.76 498.96 25.536 L 498.96 25.536 L 498.96 25.536 Q 496.872 24.384 495.54 23.772 L 495.54 23.772 L 495.54 23.772 Q 494.208 23.16 493.632 22.584 L 493.632 22.584 L 493.632 22.584 Q 493.056 22.872 492.012 23.268 L 492.012 23.268 L 492.012 23.268 Q 490.968 23.664 489.24 24.456 L 489.24 24.456 L 489.24 24.456 Z  M 494.784 21.216 L 494.496 21.72 L 494.496 21.72 Q 497.808 22.8 500.832 24.96 L 500.832 24.96 L 500.832 24.96 Q 503.424 26.904 505.584 29.208 L 505.584 29.208 L 505.584 29.208 Q 503.496 26.76 501.048 24.816 L 501.048 24.816 L 501.048 24.816 Q 498.24 22.512 494.784 21.216 L 494.784 21.216 L 494.784 21.216 Z  M 508.464 46.272 L 508.464 46.272 L 508.464 46.272 Q 507.384 48.576 505.44 50.376 L 505.44 50.376 L 505.44 50.376 Q 506.736 49.512 507.636 48.288 L 507.636 48.288 L 507.636 48.288 Q 508.536 47.064 509.112 45.84 L 509.112 45.84 L 509.112 45.84 Q 509.688 44.616 509.976 43.608 L 509.976 43.608 L 509.976 43.608 Q 510.192 42.672 510.336 42.096 L 510.336 42.096 L 510.336 42.096 Q 509.544 43.968 508.464 46.272 Z  M 513.288 52.464 L 513.288 52.464 L 513.288 52.464 Q 513.216 52.608 513.072 52.752 L 513.072 52.752 L 513.072 52.752 Q 513 52.824 512.928 52.824 L 512.928 52.824 L 512.928 52.824 Q 512.856 52.824 513.288 52.068 L 513.288 52.068 L 513.288 52.068 Q 513.72 51.312 514.332 50.268 L 514.332 50.268 L 514.332 50.268 Q 514.944 49.224 515.52 48.072 L 515.52 48.072 L 515.52 48.072 Q 516.024 47.208 516.24 46.56 L 516.24 46.56 L 516.24 46.56 Q 515.232 49.656 513.288 52.464 Z  M 517.32 40.8 L 517.32 40.8 L 517.32 40.8 Q 517.32 41.952 517.176 43.068 L 517.176 43.068 L 517.176 43.068 Q 517.032 44.184 516.672 45.12 L 516.672 45.12 L 516.672 45.12 Q 517.176 43.32 517.176 41.088 L 517.176 41.088 L 517.176 41.088 Q 517.176 39.432 516.888 37.848 L 516.888 37.848 L 516.888 37.848 Q 516.672 36.48 516.312 35.184 L 516.312 35.184 L 516.312 35.184 Q 516.672 36.48 516.96 37.776 L 516.96 37.776 L 516.96 37.776 Q 517.32 39.216 517.32 40.8 Z  M 493.992 21.648 L 494.496 20.568 L 493.848 20.28 L 493.848 20.28 Q 493.776 20.424 493.632 20.568 L 493.632 20.568 L 493.632 20.568 Q 493.488 20.712 493.488 20.856 L 493.488 20.856 L 493.488 20.856 Q 493.488 21 493.668 21.252 L 493.668 21.252 L 493.668 21.252 Q 493.848 21.504 493.992 21.648 L 493.992 21.648 L 493.992 21.648 Z  M 506.016 29.712 L 506.016 29.712 L 506.016 29.712 Q 505.8 29.424 505.584 29.208 L 505.584 29.208 L 505.584 29.208 Q 505.8 29.496 506.016 29.712 Z  M 516.24 46.56 L 516.24 46.56 L 516.24 46.56 Q 516.312 46.416 516.312 46.272 L 516.312 46.272 L 516.312 46.272 Q 516.312 46.416 516.24 46.56 Z  M 516.384 46.128 L 516.384 46.128 L 516.384 46.128 Q 516.312 46.2 516.312 46.272 L 516.312 46.272 L 516.312 46.272 Q 516.312 46.2 516.384 46.128 Z  M 248.832 5.304 L 248.616 6.816 L 248.616 6.816 Q 248.76 8.904 248.832 10.884 L 248.832 10.884 L 248.832 10.884 Q 248.904 12.864 248.904 14.952 L 248.904 14.952 L 248.904 14.952 Q 248.904 19.272 248.652 23.628 L 248.652 23.628 L 248.652 23.628 Q 248.4 27.984 248.04 32.448 L 248.04 32.448 L 248.04 32.448 Q 247.68 36.912 247.32 41.592 L 247.32 41.592 L 247.32 41.592 Q 246.96 46.272 246.672 51.312 L 246.672 51.312 L 246.672 51.312 Q 246.672 52.104 246.636 52.932 L 246.636 52.932 L 246.636 52.932 Q 246.6 53.76 246.456 54.768 L 246.456 54.768 L 246.456 55.632 L 246.456 55.632 Q 246.456 55.848 246.312 56.208 L 246.312 56.208 L 246.312 56.208 Q 246.168 56.568 246.024 56.712 L 246.024 56.712 L 246.024 56.712 Q 245.088 57.792 244.332 58.332 L 244.332 58.332 L 244.332 58.332 Q 243.576 58.872 242.928 59.124 L 242.928 59.124 L 242.928 59.124 Q 242.28 59.376 241.704 59.412 L 241.704 59.412 L 241.704 59.412 Q 241.128 59.448 240.552 59.52 L 240.552 59.52 L 240.984 59.52 L 240.984 59.52 Q 241.2 59.52 241.812 59.448 L 241.812 59.448 L 241.812 59.448 Q 242.424 59.376 243.18 59.196 L 243.18 59.196 L 243.18 59.196 Q 243.936 59.016 244.62 58.692 L 244.62 58.692 L 244.62 58.692 Q 245.304 58.368 245.592 57.792 L 245.592 57.792 L 246.24 56.496 L 246.24 56.496 Q 246.672 55.704 246.78 54.804 L 246.78 54.804 L 246.78 54.804 Q 246.888 53.904 246.924 53.004 L 246.924 53.004 L 246.924 53.004 Q 246.96 52.104 246.96 51.24 L 246.96 51.24 L 246.96 51.24 Q 246.96 50.376 247.104 49.584 L 247.104 49.584 L 247.104 49.584 Q 247.32 45.048 247.716 40.512 L 247.716 40.512 L 247.716 40.512 Q 248.112 35.976 248.472 31.368 L 248.472 31.368 L 248.472 31.368 Q 248.832 26.76 249.12 22.044 L 249.12 22.044 L 249.12 22.044 Q 249.408 17.328 249.408 12.432 L 249.408 12.432 L 249.408 12.432 Q 249.408 10.92 249.372 9.516 L 249.372 9.516 L 249.372 9.516 Q 249.336 8.112 249.264 6.816 L 249.264 6.816 L 249.264 6.816 Q 249.48 7.104 249.732 7.716 L 249.732 7.716 L 249.732 7.716 Q 249.984 8.328 250.128 9.624 L 250.128 9.624 L 250.128 9.624 Q 250.488 10.416 250.56 11.352 L 250.56 11.352 L 250.56 11.352 Q 250.632 12.288 250.776 13.296 L 250.776 13.296 L 250.776 13.296 Q 250.776 18.192 250.416 22.764 L 250.416 22.764 L 250.416 22.764 Q 250.056 27.336 249.696 31.872 L 249.696 31.872 L 249.048 32.088 L 248.4 44.4 L 248.4 44.4 Q 248.4 49.584 247.932 52.932 L 247.932 52.932 L 247.932 52.932 Q 247.464 56.28 247.104 57.36 L 247.104 57.36 L 247.104 57.576 L 247.104 57.576 Q 246.024 58.656 245.268 59.196 L 245.268 59.196 L 245.268 59.196 Q 244.512 59.736 243.864 60.024 L 243.864 60.024 L 243.864 60.024 Q 243.216 60.312 242.676 60.348 L 242.676 60.348 L 242.676 60.348 Q 242.136 60.384 241.56 60.384 L 241.56 60.384 L 236.952 60.384 L 236.952 60.384 Q 235.008 60.168 232.776 60.204 L 232.776 60.204 L 232.776 60.204 Q 230.544 60.24 228.096 59.736 L 228.096 59.736 L 228.096 59.736 Q 225.648 59.232 223.092 57.648 L 223.092 57.648 L 223.092 57.648 Q 220.536 56.064 217.944 52.608 L 217.944 52.608 L 217.944 52.608 Q 217.944 52.752 217.872 52.824 L 217.872 52.824 L 217.872 52.824 Q 217.8 52.896 217.728 53.04 L 217.728 53.04 L 217.728 53.04 Q 220.104 56.28 223.452 58.368 L 223.452 58.368 L 223.452 58.368 Q 226.8 60.456 230.688 60.816 L 230.688 60.816 L 236.736 60.816 L 236.736 60.816 Q 237.6 60.96 238.5 60.996 L 238.5 60.996 L 238.5 60.996 Q 239.4 61.032 240.48 61.032 L 240.48 61.032 L 240.48 61.032 Q 241.56 61.032 243.324 60.744 L 243.324 60.744 L 243.324 60.744 Q 245.088 60.456 246.672 58.872 L 246.672 58.872 L 246.672 58.872 Q 246.96 58.512 247.068 58.332 L 247.068 58.332 L 247.068 58.332 Q 247.176 58.152 247.32 57.792 L 247.32 57.792 L 247.536 57.36 L 247.536 57.36 Q 247.896 56.712 248.076 56.028 L 248.076 56.028 L 248.076 56.028 Q 248.256 55.344 248.4 54.696 L 248.4 54.696 L 248.4 54.696 Q 248.4 55.488 248.292 56.064 L 248.292 56.064 L 248.292 56.064 Q 248.184 56.64 247.752 57.792 L 247.752 57.792 L 247.536 58.008 L 246.672 59.304 L 246.672 59.304 Q 246.024 59.952 245.232 60.312 L 245.232 60.312 L 245.232 60.312 Q 244.44 60.672 243.72 60.852 L 243.72 60.852 L 243.72 60.852 Q 243 61.032 242.388 61.104 L 242.388 61.104 L 242.388 61.104 Q 241.776 61.176 241.488 61.248 L 241.488 61.248 L 239.112 61.248 L 239.112 61.248 Q 238.176 61.248 237.564 61.212 L 237.564 61.212 L 237.564 61.212 Q 236.952 61.176 236.628 61.14 L 236.628 61.14 L 236.628 61.14 Q 236.304 61.104 236.088 61.032 L 236.088 61.032 L 233.928 61.032 L 233.928 61.032 Q 233.28 61.032 232.632 61.068 L 232.632 61.068 L 232.632 61.068 Q 231.984 61.104 231.264 61.104 L 231.264 61.104 L 231.264 61.104 Q 227.88 61.104 224.676 59.484 L 224.676 59.484 L 224.676 59.484 Q 221.472 57.864 218.772 54.912 L 218.772 54.912 L 218.772 54.912 Q 216.072 51.96 213.984 47.928 L 213.984 47.928 L 213.984 47.928 Q 211.896 43.896 210.816 39 L 210.816 39 L 210.816 39 Q 210.816 38.208 210.708 37.488 L 210.708 37.488 L 210.708 37.488 Q 210.6 36.768 210.6 35.976 L 210.6 35.976 L 210.6 35.976 Q 210.6 33.312 211.428 30.54 L 211.428 30.54 L 211.428 30.54 Q 212.256 27.768 214.416 25.536 L 214.416 25.536 L 214.416 25.536 Q 216.576 23.304 220.248 21.9 L 220.248 21.9 L 220.248 21.9 Q 223.92 20.496 229.536 20.496 L 229.536 20.496 L 229.536 20.496 Q 232.128 20.496 234.576 20.604 L 234.576 20.604 L 234.576 20.604 Q 237.024 20.712 239.544 20.856 L 239.544 20.856 L 239.544 20.856 Q 239.256 21.072 239.256 21.36 L 239.256 21.36 L 239.256 21.36 Q 239.256 21.72 239.4 21.972 L 239.4 21.972 L 239.4 21.972 Q 239.544 22.224 239.544 22.512 L 239.544 22.512 L 239.544 22.512 Q 239.544 22.872 239.004 23.124 L 239.004 23.124 L 239.004 23.124 Q 238.464 23.376 236.736 23.376 L 236.736 23.376 L 236.736 23.376 Q 236.16 23.376 235.404 23.34 L 235.404 23.34 L 235.404 23.34 Q 234.648 23.304 233.712 23.232 L 233.712 23.232 L 233.712 23.88 L 233.712 23.88 Q 237.168 24.384 239.292 25.212 L 239.292 25.212 L 239.292 25.212 Q 241.416 26.04 241.92 26.688 L 241.92 26.688 L 242.064 26.832 L 242.352 23.664 L 242.352 23.664 Q 242.568 21.72 242.568 19.272 L 242.568 19.272 L 242.568 19.272 Q 242.568 16.752 242.424 14.304 L 242.424 14.304 L 242.424 14.304 Q 242.28 11.856 242.28 10.488 L 242.28 10.488 L 242.28 10.488 Q 242.28 8.76 242.496 8.184 L 242.496 8.184 L 242.496 8.184 Q 242.712 7.608 243.072 7.608 L 243.072 7.608 L 243.072 7.608 Q 243.36 7.608 243.54 8.832 L 243.54 8.832 L 243.54 8.832 Q 243.72 10.056 243.828 11.604 L 243.828 11.604 L 243.828 11.604 Q 243.936 13.152 243.936 14.664 L 243.936 14.664 L 243.936 16.752 L 243.936 16.752 Q 243.936 18.84 243.864 20.964 L 243.864 20.964 L 243.864 20.964 Q 243.792 23.088 243.648 25.176 L 243.648 25.176 L 243.648 25.176 Q 243.864 22.44 244.008 19.812 L 244.008 19.812 L 244.008 19.812 Q 244.152 17.184 244.152 14.448 L 244.152 14.448 L 244.152 14.448 Q 244.152 12.792 244.08 11.172 L 244.08 11.172 L 244.08 11.172 Q 244.008 9.552 243.864 7.896 L 243.864 7.896 L 243.864 7.896 Q 244.296 8.328 244.512 8.328 L 244.512 8.328 L 244.512 8.328 Q 244.8 8.328 244.944 7.896 L 244.944 7.896 L 244.944 7.896 Q 244.872 7.32 244.8 6.672 L 244.8 6.672 L 244.8 6.672 Q 244.728 6.096 244.728 5.52 L 244.728 5.52 L 244.728 4.44 L 244.728 4.44 Q 245.088 3.576 245.664 3.108 L 245.664 3.108 L 245.664 3.108 Q 246.24 2.64 246.672 2.64 L 246.672 2.64 L 246.672 2.64 Q 247.896 2.64 248.832 5.304 L 248.832 5.304 L 248.832 5.304 Z  M 236.952 28.416 L 236.952 28.416 L 236.952 28.416 Q 234.576 28.56 231.588 28.704 L 231.588 28.704 L 231.588 28.704 Q 228.6 28.848 225.936 29.46 L 225.936 29.46 L 225.936 29.46 Q 223.272 30.072 221.364 31.296 L 221.364 31.296 L 221.364 31.296 Q 219.456 32.52 219.24 34.68 L 219.24 34.68 L 219.24 34.68 Q 219.24 37.056 220.248 40.008 L 220.248 40.008 L 220.248 40.008 Q 221.256 42.96 222.912 45.588 L 222.912 45.588 L 222.912 45.588 Q 224.568 48.216 226.692 50.088 L 226.692 50.088 L 226.692 50.088 Q 228.816 51.96 231.12 52.176 L 231.12 52.176 L 235.224 52.176 L 235.224 52.176 Q 235.584 52.176 235.764 52.212 L 235.764 52.212 L 235.764 52.212 Q 235.944 52.248 236.304 52.392 L 236.304 52.392 L 238.032 52.392 L 238.032 52.392 Q 239.112 52.608 240.192 52.608 L 240.192 52.608 L 240.192 52.608 Q 240.192 46.56 240.732 40.188 L 240.732 40.188 L 240.732 40.188 Q 241.272 33.816 241.92 27.696 L 241.92 27.696 L 241.92 27.696 Q 240.984 28.416 236.952 28.416 Z  M 242.136 43.32 L 242.136 43.32 L 242.136 43.32 Q 242.136 44.112 242.028 44.94 L 242.028 44.94 L 242.028 44.94 Q 241.92 45.768 241.92 46.776 L 241.92 46.776 L 241.92 46.776 Q 242.712 42.744 242.856 38.28 L 242.856 38.28 L 242.856 38.28 Q 243 33.816 243.216 29.712 L 243.216 29.712 L 243.216 29.712 Q 242.856 33.168 242.676 36.516 L 242.676 36.516 L 242.676 36.516 Q 242.496 39.864 242.136 43.32 Z  M 248.4 51.096 L 248.4 51.096 L 248.4 51.096 Q 248.4 50.304 248.472 49.476 L 248.472 49.476 L 248.472 49.476 Q 248.544 48.648 248.688 47.712 L 248.688 47.712 L 248.688 47.712 Q 248.616 49.872 248.616 51.78 L 248.616 51.78 L 248.616 51.78 Q 248.616 53.688 248.4 54.48 L 248.4 54.48 L 248.4 54.48 Q 248.4 54.12 248.436 53.796 L 248.436 53.796 L 248.436 53.796 Q 248.472 53.472 248.472 53.112 L 248.472 53.112 L 248.472 53.112 Q 248.472 52.536 248.436 52.032 L 248.436 52.032 L 248.436 52.032 Q 248.4 51.528 248.4 51.096 Z  M 249.336 36.84 L 249.48 39.432 L 249.48 39.432 Q 249.336 39.792 249.264 40.26 L 249.264 40.26 L 249.264 40.26 Q 249.192 40.728 249.048 41.232 L 249.048 41.232 L 249.336 36.84 L 249.336 36.84 Z  M 248.976 41.952 L 248.832 45.048 L 248.832 45.048 Q 248.832 45.696 248.796 46.344 L 248.796 46.344 L 248.796 46.344 Q 248.76 46.992 248.688 47.568 L 248.688 47.568 L 248.688 47.568 Q 248.688 46.128 248.76 44.652 L 248.76 44.652 L 248.76 44.652 Q 248.832 43.176 248.976 41.952 L 248.976 41.952 L 248.976 41.952 Z  M 241.704 48.072 L 241.704 49.512 L 241.704 49.512 Q 241.776 49.224 241.776 48.936 L 241.776 48.936 L 241.776 48.936 Q 241.776 48.648 241.92 48.288 L 241.92 48.288 L 241.92 47.496 L 241.92 47.496 Q 241.848 47.64 241.848 47.748 L 241.848 47.748 L 241.848 47.748 Q 241.848 47.856 241.776 47.928 L 241.776 47.928 L 241.704 48.072 L 241.704 48.072 Z  M 241.416 52.824 L 241.488 52.968 L 241.488 52.968 Q 241.56 52.32 241.632 51.636 L 241.632 51.636 L 241.632 51.636 Q 241.704 50.952 241.704 50.232 L 241.704 50.232 L 241.704 50.016 L 241.416 52.824 L 241.416 52.824 Z  M 284.184 60.672 L 284.184 60.672 L 284.184 60.672 Q 281.448 61.608 280.008 61.716 L 280.008 61.716 L 280.008 61.716 Q 278.568 61.824 277.488 61.896 L 277.488 61.896 L 277.488 61.896 Q 273.456 61.896 270.216 60.384 L 270.216 60.384 L 270.216 60.384 Q 266.976 58.872 264.672 56.28 L 264.672 56.28 L 264.672 56.28 Q 262.368 53.688 261.108 50.196 L 261.108 50.196 L 261.108 50.196 Q 259.848 46.704 259.848 42.744 L 259.848 42.744 L 259.848 42.744 Q 259.848 40.44 260.28 37.956 L 260.28 37.956 L 260.28 37.956 Q 260.712 35.472 261.576 33.06 L 261.576 33.06 L 261.576 33.06 Q 262.44 30.648 263.808 28.56 L 263.808 28.56 L 263.808 28.56 Q 265.104 26.472 266.904 24.816 L 266.904 24.816 L 266.904 24.816 Q 265.032 26.328 263.736 28.416 L 263.736 28.416 L 263.736 28.416 Q 262.368 30.504 261.432 32.916 L 261.432 32.916 L 261.432 32.916 Q 260.496 35.328 260.064 37.884 L 260.064 37.884 L 260.064 37.884 Q 259.632 40.44 259.632 42.816 L 259.632 42.816 L 259.632 42.816 Q 259.632 45.84 260.604 49.26 L 260.604 49.26 L 260.604 49.26 Q 261.576 52.68 263.736 55.596 L 263.736 55.596 L 263.736 55.596 Q 265.896 58.512 269.316 60.456 L 269.316 60.456 L 269.316 60.456 Q 272.736 62.4 277.632 62.4 L 277.632 62.4 L 277.632 62.4 Q 279.936 62.4 282.456 61.752 L 282.456 61.752 L 282.456 61.752 Q 279.72 63.552 276.336 63.552 L 276.336 63.552 L 276.336 63.552 Q 273.6 63.552 271.188 62.724 L 271.188 62.724 L 271.188 62.724 Q 268.776 61.896 266.724 60.42 L 266.724 60.42 L 266.724 60.42 Q 264.672 58.944 263.016 56.928 L 263.016 56.928 L 263.016 56.928 Q 261.36 54.912 260.208 52.608 L 260.208 52.608 L 260.856 52.032 L 260.856 52.032 Q 259.632 49.584 259.092 47.136 L 259.092 47.136 L 259.092 47.136 Q 258.552 44.688 258.552 42.168 L 258.552 42.168 L 258.552 42.168 Q 258.552 38.496 259.596 35.112 L 259.596 35.112 L 259.596 35.112 Q 260.64 31.728 262.368 28.704 L 262.368 28.704 L 264.096 26.328 L 264.096 26.328 Q 264.528 25.536 265.356 24.744 L 265.356 24.744 L 265.356 24.744 Q 266.184 23.952 267.192 23.196 L 267.192 23.196 L 267.192 23.196 Q 268.2 22.44 269.316 21.828 L 269.316 21.828 L 269.316 21.828 Q 270.432 21.216 271.44 20.712 L 271.44 20.712 L 271.44 20.712 Q 274.032 19.416 276.624 18.372 L 276.624 18.372 L 276.624 18.372 Q 279.216 17.328 282.672 16.824 L 282.672 16.824 L 282.384 16.608 L 282.384 16.608 Q 275.76 17.256 271.152 19.812 L 271.152 19.812 L 271.152 19.812 Q 266.544 22.368 263.664 26.04 L 263.664 26.04 L 263.664 26.04 Q 260.784 29.712 259.488 34.068 L 259.488 34.068 L 259.488 34.068 Q 258.192 38.424 258.192 42.6 L 258.192 42.6 L 258.192 42.6 Q 258.192 44.832 258.588 47.1 L 258.588 47.1 L 258.588 47.1 Q 258.984 49.368 259.776 51.6 L 259.776 51.6 L 259.776 51.6 Q 257.976 47.28 257.976 42.456 L 257.976 42.456 L 257.976 42.456 Q 257.976 37.704 259.56 33.024 L 259.56 33.024 L 259.56 33.024 Q 261.144 28.344 264.528 24.384 L 264.528 24.384 L 264.528 24.384 Q 268.848 20.424 273.96 18.3 L 273.96 18.3 L 273.96 18.3 Q 279.072 16.176 283.824 16.176 L 283.824 16.176 L 283.824 16.176 Q 285.336 16.176 286.92 16.68 L 286.92 16.68 L 286.92 16.68 Q 288.504 17.184 289.8 18.228 L 289.8 18.228 L 289.8 18.228 Q 291.096 19.272 291.924 20.928 L 291.924 20.928 L 291.924 20.928 Q 292.752 22.584 292.752 24.96 L 292.752 24.96 L 292.752 24.96 Q 292.752 26.904 291.816 29.712 L 291.816 29.712 L 291.816 29.712 Q 290.88 32.52 289.044 35.148 L 289.044 35.148 L 289.044 35.148 Q 287.208 37.776 284.472 39.612 L 284.472 39.612 L 284.472 39.612 Q 281.736 41.448 278.136 41.448 L 278.136 41.448 L 275.76 41.448 L 275.76 41.448 Q 273.096 40.872 270.9 40.116 L 270.9 40.116 L 270.9 40.116 Q 268.704 39.36 266.76 38.928 L 266.76 38.928 L 266.76 38.928 Q 266.472 40.08 266.436 41.124 L 266.436 41.124 L 266.436 41.124 Q 266.4 42.168 266.4 43.176 L 266.4 43.176 L 266.4 43.176 Q 266.4 45.264 266.868 47.244 L 266.868 47.244 L 266.868 47.244 Q 267.336 49.224 268.344 50.88 L 268.344 50.88 L 268.344 50.88 Q 269.352 52.536 270.9 53.652 L 270.9 53.652 L 270.9 53.652 Q 272.448 54.768 274.68 55.056 L 274.68 55.056 L 274.68 55.056 Q 276.048 55.344 277.056 55.38 L 277.056 55.38 L 277.056 55.38 Q 278.064 55.416 278.748 55.452 L 278.748 55.452 L 278.748 55.452 Q 279.432 55.488 279.756 55.668 L 279.756 55.668 L 279.756 55.668 Q 280.08 55.848 280.08 56.352 L 280.08 56.352 L 280.08 56.352 Q 279.36 56.568 278.604 56.64 L 278.604 56.64 L 278.604 56.64 Q 277.848 56.712 277.056 56.712 L 277.056 56.712 L 277.056 56.712 Q 274.536 56.712 272.52 55.884 L 272.52 55.884 L 272.52 55.884 Q 270.504 55.056 269.064 53.976 L 269.064 53.976 L 269.064 53.976 Q 270.72 55.632 273.024 56.316 L 273.024 56.316 L 273.024 56.316 Q 275.328 57 277.56 57 L 277.56 57 L 277.56 57 Q 278.784 57 280.08 56.784 L 280.08 56.784 L 280.08 56.784 Q 279.936 57.216 279.936 57.288 L 279.936 57.288 L 279.936 57.288 Q 279.936 57.72 280.296 57.864 L 280.296 57.864 L 280.296 57.864 Q 280.584 57.792 281.304 57.468 L 281.304 57.468 L 281.304 57.468 Q 282.024 57.144 282.78 56.82 L 282.78 56.82 L 282.78 56.82 Q 283.536 56.496 284.256 56.244 L 284.256 56.244 L 284.256 56.244 Q 284.976 55.992 285.264 55.992 L 285.264 55.992 L 285.264 55.992 Q 285.624 55.992 285.912 56.1 L 285.912 56.1 L 285.912 56.1 Q 286.2 56.208 286.2 56.928 L 286.2 56.928 L 286.2 56.928 Q 286.2 57.648 285.696 58.656 L 285.696 58.656 L 285.696 58.656 Q 285.192 59.664 284.184 60.672 Z  M 274.248 32.16 L 274.248 32.16 L 275.832 32.448 L 275.832 32.448 Q 276.624 32.592 277.272 32.592 L 277.272 32.592 L 277.272 32.592 Q 277.992 32.592 278.964 32.124 L 278.964 32.124 L 278.964 32.124 Q 279.936 31.656 280.908 30.792 L 280.908 30.792 L 280.908 30.792 Q 281.88 29.928 282.636 28.632 L 282.636 28.632 L 282.636 28.632 Q 283.392 27.336 283.752 25.68 L 283.752 25.68 L 283.896 25.248 L 283.896 25.248 Q 282.888 25.248 280.872 25.752 L 280.872 25.752 L 280.872 25.752 Q 278.856 26.256 276.696 27.084 L 276.696 27.084 L 276.696 27.084 Q 274.536 27.912 272.664 29.028 L 272.664 29.028 L 272.664 29.028 Q 270.792 30.144 270.072 31.44 L 270.072 31.44 L 270.072 31.44 Q 271.152 31.656 272.196 31.836 L 272.196 31.836 L 272.196 31.836 Q 273.24 32.016 274.248 32.16 Z  M 267.408 36.408 L 270.936 37.488 L 270.936 37.488 Q 271.08 37.344 271.116 37.056 L 271.116 37.056 L 271.116 37.056 Q 271.152 36.768 271.152 36.624 L 271.152 36.624 L 267.768 35.4 L 267.408 36.408 L 267.408 36.408 Z  M 268.92 53.832 L 268.92 53.832 L 268.92 53.832 Q 268.416 53.256 267.912 52.68 L 267.912 52.68 L 267.912 52.68 Q 267.48 52.176 267.192 51.672 L 267.192 51.672 L 267.192 51.672 Q 267.84 52.896 268.92 53.832 Z  M 16.56 44.904 L 16.56 44.904 L 16.56 46.416 L 16.56 46.416 Q 16.56 47.64 16.596 48.828 L 16.596 48.828 L 16.596 48.828 Q 16.632 50.016 16.92 51.024 L 16.92 51.024 L 16.92 51.024 Q 16.56 54.552 16.38 58.08 L 16.38 58.08 L 16.38 58.08 Q 16.2 61.608 16.2 65.136 L 16.2 65.136 L 14.616 65.208 L 14.616 65.208 Q 14.256 65.208 14.076 64.74 L 14.076 64.74 L 14.076 64.74 Q 13.896 64.272 13.788 63.588 L 13.788 63.588 L 13.788 63.588 Q 13.68 62.904 13.644 62.112 L 13.644 62.112 L 13.644 62.112 Q 13.608 61.32 13.608 60.672 L 13.608 60.672 L 13.608 59.232 L 12.888 59.232 L 12.888 59.232 Q 12.888 59.664 12.672 61.104 L 12.672 61.104 L 12.672 61.104 Q 12.456 62.544 12.132 64.128 L 12.132 64.128 L 12.132 64.128 Q 11.808 65.712 11.304 66.972 L 11.304 66.972 L 11.304 66.972 Q 10.8 68.232 10.152 68.232 L 10.152 68.232 L 10.152 68.232 Q 9.648 68.232 9.288 67.26 L 9.288 67.26 L 9.288 67.26 Q 8.928 66.288 8.712 65.064 L 8.712 65.064 L 8.712 65.064 Q 8.496 63.84 8.352 62.724 L 8.352 62.724 L 8.352 62.724 Q 8.208 61.608 8.208 61.248 L 8.208 61.248 L 8.208 61.248 Q 7.56 54.912 7.56 48.54 L 7.56 48.54 L 7.56 48.54 Q 7.56 42.168 6.984 35.832 L 6.984 35.832 L 6.984 35.832 Q 6.768 33.672 6.336 31.62 L 6.336 31.62 L 6.336 31.62 Q 5.904 29.568 5.436 27.48 L 5.436 27.48 L 5.436 27.48 Q 4.968 25.392 4.644 23.304 L 4.644 23.304 L 4.644 23.304 Q 4.32 21.216 4.32 18.912 L 4.32 18.912 L 4.32 18.912 Q 4.32 15.672 5.976 13.836 L 5.976 13.836 L 5.976 13.836 Q 7.632 12 10.116 11.064 L 10.116 11.064 L 10.116 11.064 Q 12.6 10.128 15.48 9.912 L 15.48 9.912 L 15.48 9.912 Q 18.36 9.696 20.808 9.696 L 20.808 9.696 L 20.808 9.696 Q 25.776 9.696 30.564 10.416 L 30.564 10.416 L 30.564 10.416 Q 35.352 11.136 39.096 13.224 L 39.096 13.224 L 39.096 13.224 Q 42.84 15.312 45.108 19.092 L 45.108 19.092 L 45.108 19.092 Q 47.376 22.872 47.376 28.92 L 47.376 28.92 L 47.376 28.92 Q 47.376 34.032 45.828 37.848 L 45.828 37.848 L 45.828 37.848 Q 44.28 41.664 41.472 44.184 L 41.472 44.184 L 41.472 44.184 Q 38.664 46.704 34.668 47.964 L 34.668 47.964 L 34.668 47.964 Q 30.672 49.224 25.776 49.224 L 25.776 49.224 L 25.776 49.224 Q 25.56 49.224 24.84 49.188 L 24.84 49.188 L 24.84 49.188 Q 24.12 49.152 23.328 49.044 L 23.328 49.044 L 23.328 49.044 Q 22.536 48.936 21.924 48.684 L 21.924 48.684 L 21.924 48.684 Q 21.312 48.432 21.312 48 L 21.312 48 L 21.528 47.496 L 21.528 47.496 Q 22.752 47.568 23.976 47.604 L 23.976 47.604 L 23.976 47.604 Q 25.2 47.64 26.424 47.64 L 26.424 47.64 L 26.424 47.64 Q 28.584 47.64 30.708 47.424 L 30.708 47.424 L 30.708 47.424 Q 32.832 47.208 34.848 46.56 L 34.848 46.56 L 34.848 46.56 Q 36.864 45.912 38.592 44.76 L 38.592 44.76 L 38.592 44.76 Q 40.176 43.68 41.544 42.024 L 41.544 42.024 L 41.544 42.024 Q 40.104 43.68 38.448 44.76 L 38.448 44.76 L 38.448 44.76 Q 36.648 45.912 34.596 46.488 L 34.596 46.488 L 34.596 46.488 Q 32.544 47.064 30.348 47.244 L 30.348 47.244 L 30.348 47.244 Q 28.152 47.424 25.92 47.424 L 25.92 47.424 L 25.92 47.424 Q 24.912 47.424 23.832 47.388 L 23.832 47.388 L 23.832 47.388 Q 22.752 47.352 21.744 47.28 L 21.744 47.28 L 21.672 45.912 L 21.672 45.912 Q 21.096 45.984 20.664 46.02 L 20.664 46.02 L 20.664 46.02 Q 20.232 46.056 19.872 46.056 L 19.872 46.056 L 19.872 46.056 Q 19.008 46.056 18.288 45.804 L 18.288 45.804 L 18.288 45.804 Q 17.568 45.552 16.56 44.904 Z  M 23.112 17.904 L 23.112 17.904 L 23.112 17.904 Q 20.664 17.904 17.928 18.084 L 17.928 18.084 L 17.928 18.084 Q 15.192 18.264 12.888 19.056 L 12.888 19.056 L 12.528 19.632 L 12.528 19.632 Q 15.264 18.84 17.568 18.696 L 17.568 18.696 L 17.568 18.696 Q 19.872 18.552 21.96 18.552 L 21.96 18.552 L 22.248 18.552 L 22.248 18.552 Q 25.344 18.552 28.368 18.732 L 28.368 18.732 L 28.368 18.732 Q 31.392 18.912 33.768 19.956 L 33.768 19.956 L 33.768 19.956 Q 36.144 21 37.62 23.196 L 37.62 23.196 L 37.62 23.196 Q 39.096 25.392 39.096 29.424 L 39.096 29.424 L 39.096 29.424 Q 39.096 30.648 38.88 31.728 L 38.88 31.728 L 38.88 31.728 Q 38.664 32.808 38.304 33.888 L 38.304 33.888 L 38.304 33.888 Q 38.592 32.88 38.772 31.836 L 38.772 31.836 L 38.772 31.836 Q 38.952 30.792 38.952 29.712 L 38.952 29.712 L 38.952 29.712 Q 38.952 26.976 38.016 24.744 L 38.016 24.744 L 38.016 24.744 Q 37.08 22.512 34.992 20.712 L 34.992 20.712 L 34.488 20.424 L 34.488 20.424 Q 33.408 19.92 31.788 19.632 L 31.788 19.632 L 31.788 19.632 Q 30.168 19.344 28.368 19.164 L 28.368 19.164 L 28.368 19.164 Q 26.568 18.984 24.732 18.948 L 24.732 18.948 L 24.732 18.948 Q 22.896 18.912 21.312 18.912 L 21.312 18.912 L 19.296 18.912 L 19.296 18.912 Q 18 18.912 16.308 19.128 L 16.308 19.128 L 16.308 19.128 Q 14.616 19.344 13.392 19.704 L 13.392 19.704 L 13.392 19.704 Q 13.392 21.504 13.716 23.268 L 13.716 23.268 L 13.716 23.268 Q 14.04 25.032 14.4 26.76 L 14.4 26.76 L 15.192 30.216 L 15.192 30.216 Q 15.624 31.944 15.768 33.672 L 15.768 33.672 L 16.416 42.672 L 16.416 42.672 Q 16.92 42.312 17.532 42.06 L 17.532 42.06 L 17.532 42.06 Q 18.144 41.808 19.152 41.808 L 19.152 41.808 L 19.512 41.808 L 19.512 41.808 Q 21.096 42.312 22.788 42.384 L 22.788 42.384 L 22.788 42.384 Q 24.48 42.456 26.136 42.456 L 26.136 42.456 L 26.136 42.456 Q 29.592 42.456 32.292 41.808 L 32.292 41.808 L 32.292 41.808 Q 34.992 41.16 36.864 39.612 L 36.864 39.612 L 36.864 39.612 Q 38.736 38.064 39.708 35.508 L 39.708 35.508 L 39.708 35.508 Q 40.68 32.952 40.68 29.208 L 40.68 29.208 L 40.68 29.208 Q 40.68 27.552 40.14 25.572 L 40.14 25.572 L 40.14 25.572 Q 39.6 23.592 38.52 21.864 L 38.52 21.864 L 38.52 21.864 Q 37.44 20.136 35.784 18.984 L 35.784 18.984 L 35.784 18.984 Q 34.2 17.832 32.112 17.76 L 32.112 17.76 L 32.112 17.76 Q 34.128 17.976 35.712 19.056 L 35.712 19.056 L 35.712 19.056 Q 37.296 20.136 38.376 21.792 L 38.376 21.792 L 38.376 21.792 Q 39.456 23.448 39.996 25.428 L 39.996 25.428 L 39.996 25.428 Q 40.536 27.408 40.536 29.28 L 40.536 29.28 L 40.536 29.28 Q 40.536 35.832 37.368 38.928 L 37.368 38.928 L 37.368 38.928 Q 34.2 42.024 27.648 42.024 L 27.648 42.024 L 27.648 42.024 Q 26.064 42.024 24.48 41.88 L 24.48 41.88 L 21.312 41.592 L 21.312 41.592 Q 23.688 41.016 26.172 40.908 L 26.172 40.908 L 26.172 40.908 Q 28.656 40.8 30.924 40.368 L 30.924 40.368 L 30.924 40.368 Q 33.192 39.936 35.028 38.748 L 35.028 38.748 L 35.028 38.748 Q 36.864 37.56 38.016 34.752 L 38.016 34.752 L 38.664 34.968 L 38.664 34.968 Q 39.528 32.592 39.528 30 L 39.528 30 L 39.528 30 Q 39.528 26.04 38.196 23.664 L 38.196 23.664 L 38.196 23.664 Q 36.864 21.288 34.632 19.992 L 34.632 19.992 L 34.632 19.992 Q 32.4 18.696 29.412 18.3 L 29.412 18.3 L 29.412 18.3 Q 26.424 17.904 23.112 17.904 Z  M 45.936 28.776 L 45.936 28.776 L 45.936 28.776 Q 45.936 25.824 45.144 23.34 L 45.144 23.34 L 45.144 23.34 Q 44.352 20.856 42.696 18.48 L 42.696 18.48 L 42.696 18.48 Q 44.208 20.856 44.964 23.556 L 44.964 23.556 L 44.964 23.556 Q 45.72 26.256 45.72 29.064 L 45.72 29.064 L 45.72 29.064 Q 45.72 33.6 43.92 37.776 L 43.92 37.776 L 43.92 37.776 Q 44.856 35.76 45.36 33.528 L 45.36 33.528 L 45.36 33.528 Q 45.936 31.152 45.936 28.776 Z  M 33.84 12.504 L 33.84 12.504 L 33.84 12.504 Q 34.848 12.864 35.82 13.116 L 35.82 13.116 L 35.82 13.116 Q 36.792 13.368 37.8 13.8 L 37.8 13.8 L 37.8 13.8 Q 36 12.864 33.84 12.504 Z  M 40.68 15.96 L 40.68 15.96 L 40.68 15.96 Q 40.392 15.384 39.384 14.736 L 39.384 14.736 L 39.384 14.736 Q 38.448 14.16 37.872 13.872 L 37.872 13.872 L 37.872 13.872 Q 38.592 14.448 39.24 14.808 L 39.24 14.808 L 39.24 14.808 Q 39.96 15.24 40.68 15.96 Z  M 78.408 40.512 L 78.408 40.512 L 78.408 40.512 Q 76.464 40.512 75.492 40.44 L 75.492 40.44 L 75.492 40.44 Q 74.52 40.368 73.728 40.368 L 73.728 40.368 L 73.728 40.368 Q 71.568 40.368 69.912 40.584 L 69.912 40.584 L 69.912 40.584 Q 68.256 40.8 67.104 41.448 L 67.104 41.448 L 67.104 41.448 Q 65.952 42.096 65.376 43.32 L 65.376 43.32 L 65.376 43.32 Q 64.8 44.544 64.8 46.56 L 64.8 46.56 L 64.8 46.56 Q 64.8 49.512 65.484 50.916 L 65.484 50.916 L 65.484 50.916 Q 66.168 52.32 67.428 52.932 L 67.428 52.932 L 67.428 52.932 Q 68.688 53.544 70.488 53.688 L 70.488 53.688 L 70.488 53.688 Q 72.288 53.832 74.52 54.336 L 74.52 54.336 L 74.52 54.336 Q 75.816 54.48 77.112 54.516 L 77.112 54.516 L 77.112 54.516 Q 78.408 54.552 79.704 54.552 L 79.704 54.552 L 84.888 54.552 L 84.888 54.552 Q 81.288 54.336 77.724 54.3 L 77.724 54.3 L 77.724 54.3 Q 74.16 54.264 71.316 53.688 L 71.316 53.688 L 71.316 53.688 Q 68.472 53.112 66.708 51.672 L 66.708 51.672 L 66.708 51.672 Q 64.944 50.232 64.944 47.28 L 64.944 47.28 L 64.944 47.28 Q 64.944 44.904 65.556 43.644 L 65.556 43.644 L 65.556 43.644 Q 66.168 42.384 67.212 41.772 L 67.212 41.772 L 67.212 41.772 Q 68.256 41.16 69.696 41.052 L 69.696 41.052 L 69.696 41.052 Q 71.136 40.944 72.792 40.944 L 72.792 40.944 L 72.792 40.944 Q 74.808 40.944 76.896 41.16 L 76.896 41.16 L 76.896 41.16 Q 75.24 41.664 73.548 41.916 L 73.548 41.916 L 73.548 41.916 Q 71.856 42.168 70.416 42.42 L 70.416 42.42 L 70.416 42.42 Q 68.976 42.672 67.932 43.068 L 67.932 43.068 L 67.932 43.068 Q 66.888 43.464 66.528 44.184 L 66.528 44.184 L 66.528 47.424 L 65.952 47.712 L 65.952 47.712 Q 66.24 49.512 66.492 50.412 L 66.492 50.412 L 66.492 50.412 Q 66.744 51.312 67.896 51.78 L 67.896 51.78 L 67.896 51.78 Q 69.048 52.248 71.604 52.536 L 71.604 52.536 L 71.604 52.536 Q 74.16 52.824 79.056 53.472 L 79.056 53.472 L 84.24 53.472 L 84.24 53.472 Q 85.608 53.472 85.86 53.364 L 85.86 53.364 L 85.86 53.364 Q 86.112 53.256 86.184 53.256 L 86.184 53.256 L 85.536 49.368 L 85.536 49.368 Q 85.392 47.928 85.176 46.776 L 85.176 46.776 L 85.176 46.776 Q 84.96 45.624 84.6 44.328 L 84.6 44.328 L 84.6 44.328 Q 84.528 44.544 84.168 44.544 L 84.168 44.544 L 84.168 44.544 Q 84.528 45.768 84.78 47.136 L 84.78 47.136 L 84.78 47.136 Q 85.032 48.504 85.212 49.728 L 85.212 49.728 L 85.212 49.728 Q 85.392 50.952 85.5 51.816 L 85.5 51.816 L 85.5 51.816 Q 85.608 52.68 85.752 52.824 L 85.752 52.824 L 85.32 52.968 L 85.32 52.968 Q 85.176 53.04 84.888 53.04 L 84.888 53.04 L 84.456 53.04 L 84.456 53.04 Q 83.952 53.04 83.304 52.932 L 83.304 52.932 L 83.304 52.932 Q 82.656 52.824 81.648 52.824 L 81.648 52.824 L 79.272 52.824 L 79.272 52.824 Q 76.464 52.824 74.088 52.536 L 74.088 52.536 L 74.088 52.536 Q 71.856 52.248 70.2 51.816 L 70.2 51.816 L 70.2 51.816 Q 71.856 52.176 74.232 52.392 L 74.232 52.392 L 74.232 52.392 Q 76.752 52.68 78.912 52.68 L 78.912 52.68 L 78.912 52.68 Q 79.848 52.68 80.892 52.644 L 80.892 52.644 L 80.892 52.644 Q 81.936 52.608 83.16 52.608 L 83.16 52.608 L 85.536 52.608 L 85.536 52.608 Q 85.32 52.392 85.032 52.392 L 85.032 52.392 L 84.888 52.392 L 84.888 52.392 Q 84.6 47.424 83.592 42.888 L 83.592 42.888 L 83.592 42.888 Q 82.584 38.352 80.352 34.932 L 80.352 34.932 L 80.352 34.932 Q 78.12 31.512 74.52 29.46 L 74.52 29.46 L 74.52 29.46 Q 70.92 27.408 65.52 27.408 L 65.52 27.408 L 65.52 27.408 Q 64.008 27.408 62.496 27.624 L 62.496 27.624 L 62.496 27.624 Q 60.984 27.84 59.4 28.2 L 59.4 28.2 L 59.4 28.2 Q 59.544 28.056 59.544 27.912 L 59.544 27.912 L 59.544 27.912 Q 59.544 27.552 59.256 27.228 L 59.256 27.228 L 59.256 27.228 Q 58.968 26.904 58.968 26.544 L 58.968 26.544 L 58.968 26.544 Q 58.968 26.112 59.868 25.716 L 59.868 25.716 L 59.868 25.716 Q 60.768 25.32 63.72 24.96 L 63.72 24.96 L 63.72 24.96 Q 63.576 24.816 63.54 24.528 L 63.54 24.528 L 63.54 24.528 Q 63.504 24.24 63.504 24.096 L 63.504 24.096 L 63.504 24.096 Q 59.616 24.096 57.456 23.916 L 57.456 23.916 L 57.456 23.916 Q 55.296 23.736 55.296 22.872 L 55.296 22.872 L 55.296 22.872 Q 55.296 22.512 56.196 21.864 L 56.196 21.864 L 56.196 21.864 Q 57.096 21.216 58.752 20.604 L 58.752 20.604 L 58.752 20.604 Q 60.408 19.992 62.748 19.524 L 62.748 19.524 L 62.748 19.524 Q 65.088 19.056 67.968 19.056 L 67.968 19.056 L 67.968 19.056 Q 73.512 19.056 77.472 20.748 L 77.472 20.748 L 77.472 20.748 Q 81.432 22.44 84.132 25.212 L 84.132 25.212 L 84.132 25.212 Q 86.832 27.984 88.524 31.512 L 88.524 31.512 L 88.524 31.512 Q 90.216 35.04 91.26 38.604 L 91.26 38.604 L 91.26 38.604 Q 92.304 42.168 92.808 45.516 L 92.808 45.516 L 92.808 45.516 Q 93.312 48.864 93.744 51.312 L 93.744 51.312 L 93.744 51.312 Q 93.744 51.744 93.78 52.176 L 93.78 52.176 L 93.78 52.176 Q 93.816 52.608 93.816 53.184 L 93.816 53.184 L 93.816 53.184 Q 93.816 55.272 93.06 56.82 L 93.06 56.82 L 93.06 56.82 Q 92.304 58.368 90.972 59.412 L 90.972 59.412 L 90.972 59.412 Q 89.64 60.456 87.876 60.996 L 87.876 60.996 L 87.876 60.996 Q 86.112 61.536 84.096 61.536 L 84.096 61.536 L 84.096 61.536 Q 82.512 61.536 79.992 61.464 L 79.992 61.464 L 79.992 61.464 Q 77.472 61.392 75.168 61.032 L 75.168 61.032 L 75.168 61.032 Q 73.656 60.672 71.856 60.492 L 71.856 60.492 L 71.856 60.492 Q 70.056 60.312 68.184 59.88 L 68.184 59.88 L 68.184 59.88 Q 66.312 59.448 64.548 58.656 L 64.548 58.656 L 64.548 58.656 Q 62.784 57.864 61.38 56.244 L 61.38 56.244 L 61.38 56.244 Q 59.976 54.624 59.148 52.032 L 59.148 52.032 L 59.148 52.032 Q 58.32 49.44 58.32 45.48 L 58.32 45.48 L 58.32 45.48 Q 58.32 41.736 60.048 39.468 L 60.048 39.468 L 60.048 39.468 Q 61.776 37.2 64.188 35.94 L 64.188 35.94 L 64.188 35.94 Q 66.6 34.68 69.12 34.284 L 69.12 34.284 L 69.12 34.284 Q 71.64 33.888 73.224 33.888 L 73.224 33.888 L 73.224 33.888 Q 75.24 33.888 75.888 34.176 L 75.888 34.176 L 75.888 34.176 Q 76.536 34.464 76.536 34.752 L 76.536 34.752 L 76.536 34.752 Q 76.536 34.968 76.464 35.112 L 76.464 35.112 L 76.464 35.112 Q 74.664 35.112 71.856 35.256 L 71.856 35.256 L 71.856 35.256 Q 69.048 35.4 66.42 36.192 L 66.42 36.192 L 66.42 36.192 Q 63.792 36.984 61.92 38.604 L 61.92 38.604 L 61.92 38.604 Q 60.048 40.224 60.048 43.176 L 60.048 43.176 L 60.048 43.176 Q 60.696 40.512 62.244 38.964 L 62.244 38.964 L 62.244 38.964 Q 63.792 37.416 65.808 36.66 L 65.808 36.66 L 65.808 36.66 Q 67.824 35.904 69.948 35.724 L 69.948 35.724 L 69.948 35.724 Q 72.072 35.544 73.8 35.544 L 73.8 35.544 L 76.248 35.544 L 76.248 35.544 Q 75.96 35.832 75.96 36.12 L 75.96 36.12 L 75.96 36.12 Q 75.96 36.408 76.248 36.624 L 76.248 36.624 L 79.056 36.624 L 79.056 36.624 Q 80.208 36.84 80.712 37.38 L 80.712 37.38 L 80.712 37.38 Q 81.216 37.92 81.216 38.352 L 81.216 38.352 L 81.216 38.352 Q 81.216 39 80.568 39.504 L 80.568 39.504 L 80.568 39.504 Q 79.92 40.008 78.408 40.512 Z  M 66.312 57.936 L 66.312 57.936 L 66.312 57.936 Q 68.328 58.728 70.452 59.16 L 70.452 59.16 L 70.452 59.16 Q 72.576 59.592 74.664 59.736 L 74.664 59.736 L 74.664 59.736 Q 76.752 59.952 78.552 59.952 L 78.552 59.952 L 78.552 59.952 Q 77.112 59.808 75.672 59.448 L 75.672 59.448 L 75.672 59.448 Q 74.16 59.088 73.008 58.8 L 73.008 58.8 L 73.008 58.8 Q 71.784 58.512 70.596 58.404 L 70.596 58.404 L 70.596 58.404 Q 69.408 58.296 68.148 58.08 L 68.148 58.08 L 68.148 58.08 Q 66.888 57.864 65.592 57.396 L 65.592 57.396 L 65.592 57.396 Q 64.296 56.928 63 55.992 L 63 55.992 L 63 55.992 Q 64.368 57.216 66.312 57.936 Z  M 66.744 50.232 L 67.032 50.376 L 67.032 50.376 Q 66.96 50.304 67.464 50.808 L 67.464 50.808 L 67.464 50.808 Q 67.896 51.24 68.616 51.456 L 68.616 51.456 L 68.616 51.456 Q 68.256 51.312 67.536 51.096 L 67.536 51.096 L 67.536 51.096 Q 66.744 50.808 66.744 50.232 L 66.744 50.232 L 66.744 50.232 Z  M 68.832 51.456 L 68.832 51.456 L 68.832 51.456 Q 68.76 51.456 68.616 51.456 L 68.616 51.456 L 68.616 51.456 Q 68.688 51.456 68.832 51.456 Z  M 128.88 23.376 L 128.88 23.376 L 128.88 23.376 Q 128.232 23.376 127.116 23.592 L 127.116 23.592 L 127.116 23.592 Q 126 23.808 124.884 24.096 L 124.884 24.096 L 124.884 24.096 Q 123.768 24.384 122.868 24.672 L 122.868 24.672 L 122.868 24.672 Q 121.968 24.96 121.752 25.104 L 121.752 25.104 L 121.752 25.104 Q 123.624 24.816 125.208 24.42 L 125.208 24.42 L 125.208 24.42 Q 126.792 24.024 128.664 24.024 L 128.664 24.024 L 128.664 24.024 Q 128.304 24.672 127.728 25.032 L 127.728 25.032 L 127.728 25.032 Q 127.152 25.392 126.468 25.572 L 126.468 25.572 L 126.468 25.572 Q 125.784 25.752 124.992 25.86 L 124.992 25.86 L 124.992 25.86 Q 124.2 25.968 123.336 26.184 L 123.336 26.184 L 122.832 25.536 L 122.832 25.536 Q 121.464 26.04 120.744 26.148 L 120.744 26.148 L 120.744 26.148 Q 120.024 26.256 119.232 26.256 L 119.232 26.256 L 119.232 26.256 Q 118.368 26.256 117.468 26.22 L 117.468 26.22 L 117.468 26.22 Q 116.568 26.184 115.488 26.184 L 115.488 26.184 L 115.488 26.184 Q 115.488 26.544 115.416 26.76 L 115.416 26.76 L 115.416 26.76 Q 117.072 26.76 118.224 26.724 L 118.224 26.724 L 118.224 26.724 Q 119.376 26.688 121.032 26.472 L 121.032 26.472 L 121.032 26.472 Q 119.448 26.76 118.26 26.904 L 118.26 26.904 L 118.26 26.904 Q 117.072 27.048 115.416 27.048 L 115.416 27.048 L 115.416 27.048 Q 115.128 28.704 114.912 30.288 L 114.912 30.288 L 114.912 30.288 Q 114.696 31.872 114.696 33.384 L 114.696 33.384 L 114.696 33.384 Q 114.696 34.248 114.768 35.4 L 114.768 35.4 L 114.768 35.4 Q 114.84 36.552 114.948 37.74 L 114.948 37.74 L 114.948 37.74 Q 115.056 38.928 115.128 39.972 L 115.128 39.972 L 115.128 39.972 Q 115.2 41.016 115.2 41.52 L 115.2 41.52 L 115.2 45.84 L 115.2 45.84 Q 115.56 47.28 117.288 48 L 117.288 48 L 117.288 48 Q 119.016 48.72 122.256 48.72 L 122.256 48.72 L 124.56 48.72 L 124.56 48.72 Q 125.784 48.72 126.252 48.972 L 126.252 48.972 L 126.252 48.972 Q 126.72 49.224 126.72 49.656 L 126.72 49.656 L 126.72 49.656 Q 126.72 50.016 126.144 50.052 L 126.144 50.052 L 126.144 50.052 Q 125.568 50.088 124.992 50.088 L 124.992 50.088 L 124.992 50.088 Q 122.904 50.088 120.6 49.8 L 120.6 49.8 L 120.6 49.8 Q 118.44 49.512 116.352 49.152 L 116.352 49.152 L 116.352 49.152 Q 118.44 49.656 120.744 50.088 L 120.744 50.088 L 120.744 50.088 Q 123.12 50.448 125.352 50.448 L 125.352 50.448 L 126 50.448 L 126 50.448 Q 126.288 50.448 126.648 50.376 L 126.648 50.376 L 126.648 50.376 Q 126.648 50.736 126.684 51.024 L 126.684 51.024 L 126.684 51.024 Q 126.72 51.312 126.864 51.672 L 126.864 51.672 L 127.44 51.528 L 127.44 51.528 Q 127.656 51.456 127.944 51.42 L 127.944 51.42 L 127.944 51.42 Q 128.232 51.384 128.376 51.24 L 128.376 51.24 L 128.376 51.24 Q 130.68 51.456 130.68 52.824 L 130.68 52.824 L 130.68 52.824 Q 130.68 53.616 130.248 54.12 L 130.248 54.12 L 130.248 54.12 Q 129.816 54.624 129.168 54.912 L 129.168 54.912 L 129.168 54.912 Q 128.52 55.2 127.728 55.308 L 127.728 55.308 L 127.728 55.308 Q 126.936 55.416 126.216 55.416 L 126.216 55.416 L 126.216 55.416 Q 123.696 55.416 121.284 55.092 L 121.284 55.092 L 121.284 55.092 Q 118.872 54.768 116.568 54.408 L 116.568 54.408 L 116.568 54.408 Q 118.584 55.128 121.68 55.56 L 121.68 55.56 L 121.68 55.56 Q 124.776 55.992 127.944 55.992 L 127.944 55.992 L 127.944 55.992 Q 127.152 56.496 126.072 56.784 L 126.072 56.784 L 126.072 56.784 Q 124.992 57.072 123.84 57.072 L 123.84 57.072 L 118.656 56.424 L 118.656 56.424 Q 117.648 56.28 117.108 56.136 L 117.108 56.136 L 117.108 56.136 Q 116.568 55.992 116.064 55.812 L 116.064 55.812 L 116.064 55.812 Q 115.56 55.632 114.948 55.416 L 114.948 55.416 L 114.948 55.416 Q 114.336 55.2 113.256 54.912 L 113.256 54.912 L 113.256 54.12 L 113.256 54.12 Q 111.384 53.616 110.232 52.392 L 110.232 52.392 L 110.232 52.392 Q 109.08 51.168 108.432 49.728 L 108.432 49.728 L 108.432 49.728 Q 107.784 48.288 107.568 46.812 L 107.568 46.812 L 107.568 46.812 Q 107.352 45.336 107.352 44.184 L 107.352 44.184 L 107.352 44.184 Q 107.352 42.96 107.388 41.916 L 107.388 41.916 L 107.388 41.916 Q 107.424 40.872 107.424 39.792 L 107.424 39.792 L 107.424 39.792 Q 107.424 39 107.388 37.776 L 107.388 37.776 L 107.388 37.776 Q 107.352 36.552 107.28 35.184 L 107.28 35.184 L 107.28 35.184 Q 107.208 33.816 107.172 32.376 L 107.172 32.376 L 107.172 32.376 Q 107.136 30.936 107.136 29.64 L 107.136 29.64 L 107.136 29.64 Q 107.136 28.848 107.172 28.128 L 107.172 28.128 L 107.172 28.128 Q 107.208 27.408 107.28 26.832 L 107.28 26.832 L 106.56 26.832 L 106.56 26.832 Q 106.488 27.336 106.488 27.984 L 106.488 27.984 L 106.488 29.28 L 106.488 29.28 Q 106.488 31.368 106.56 33.42 L 106.56 33.42 L 106.56 33.42 Q 106.632 35.472 106.668 37.2 L 106.668 37.2 L 106.668 37.2 Q 106.704 38.928 106.776 40.188 L 106.776 40.188 L 106.776 40.188 Q 106.848 41.448 106.848 42.024 L 106.848 42.024 L 106.848 44.904 L 106.848 45.48 L 106.848 45.48 Q 106.632 43.536 106.416 39.936 L 106.416 39.936 L 106.416 39.936 Q 106.2 35.76 106.2 30.72 L 106.2 30.72 L 106.2 29.424 L 106.2 29.424 Q 106.2 28.632 106.236 27.912 L 106.236 27.912 L 106.236 27.912 Q 106.272 27.192 106.416 26.832 L 106.416 26.832 L 103.968 26.688 L 103.968 26.688 Q 103.176 26.184 102.384 25.896 L 102.384 25.896 L 102.384 25.896 Q 101.592 25.608 100.944 25.608 L 100.944 25.608 L 100.944 24.168 L 100.944 24.168 Q 100.944 23.736 101.052 23.412 L 101.052 23.412 L 101.052 23.412 Q 101.16 23.088 101.736 23.088 L 101.736 23.088 L 101.736 23.088 Q 101.88 23.088 102.456 23.232 L 102.456 23.232 L 102.456 22.368 L 102.456 22.368 Q 101.664 21.936 101.16 21.18 L 101.16 21.18 L 101.16 21.18 Q 100.656 20.424 100.656 19.632 L 100.656 19.632 L 100.656 19.632 Q 100.656 17.76 103.32 17.76 L 103.32 17.76 L 103.32 17.76 Q 104.328 17.76 105.408 17.904 L 105.408 17.904 L 105.408 17.904 Q 106.488 18.048 107.64 18.12 L 107.64 18.12 L 107.64 18.12 Q 107.928 16.536 108.144 15.276 L 108.144 15.276 L 108.144 15.276 Q 108.36 14.016 108.576 12.828 L 108.576 12.828 L 108.576 12.828 Q 108.792 11.64 109.08 10.452 L 109.08 10.452 L 109.08 10.452 Q 109.368 9.264 109.8 7.968 L 109.8 7.968 L 109.8 7.968 Q 110.448 6.528 110.808 4.836 L 110.808 4.836 L 110.808 4.836 Q 111.168 3.144 111.312 1.488 L 111.312 1.488 L 112.824 1.56 L 112.824 1.56 Q 113.184 1.56 113.436 1.776 L 113.436 1.776 L 113.436 1.776 Q 113.688 1.992 113.688 2.784 L 113.688 2.784 L 113.688 2.784 Q 113.688 3.432 113.472 4.512 L 113.472 4.512 L 114.336 4.728 L 114.336 4.728 Q 114.912 2.784 115.74 1.56 L 115.74 1.56 L 115.74 1.56 Q 116.568 0.336 117.36 0.336 L 117.36 0.336 L 117.36 0.336 Q 118.584 0.336 118.872 3.432 L 118.872 3.432 L 118.872 4.728 L 118.872 4.728 Q 118.872 6.6 118.62 8.22 L 118.62 8.22 L 118.62 8.22 Q 118.368 9.84 118.008 11.424 L 118.008 11.424 L 118.008 11.424 Q 117.648 13.008 117.288 14.664 L 117.288 14.664 L 117.288 14.664 Q 116.928 16.32 116.64 18.264 L 116.64 18.264 L 116.64 18.264 Q 118.224 18.48 119.736 18.48 L 119.736 18.48 L 119.736 18.48 Q 120.456 18.48 121.176 18.444 L 121.176 18.444 L 121.176 18.444 Q 121.896 18.408 122.616 18.408 L 122.616 18.408 L 122.616 18.408 Q 123.336 18.408 124.128 17.832 L 124.128 17.832 L 124.128 17.832 Q 124.92 17.256 125.568 17.256 L 125.568 17.256 L 125.568 17.256 Q 126.144 17.256 126.432 17.616 L 126.432 17.616 L 126.432 17.616 Q 126.72 17.976 126.72 18.408 L 126.72 18.408 L 126.72 18.408 Q 125.424 18.768 124.164 19.164 L 124.164 19.164 L 124.164 19.164 Q 122.904 19.56 121.752 19.92 L 121.752 19.92 L 121.752 19.92 Q 122.904 19.776 124.2 19.38 L 124.2 19.38 L 124.2 19.38 Q 125.496 18.984 126.936 18.624 L 126.936 18.624 L 126.936 18.624 Q 126.936 18.984 126.972 19.272 L 126.972 19.272 L 126.972 19.272 Q 127.008 19.56 127.152 19.92 L 127.152 19.92 L 127.152 19.92 Q 127.296 19.92 127.512 19.848 L 127.512 19.848 L 127.512 19.848 Q 127.944 19.704 128.016 19.704 L 128.016 19.704 L 128.016 19.704 Q 128.736 20.064 128.952 20.604 L 128.952 20.604 L 128.952 20.604 Q 129.168 21.144 129.168 21.792 L 129.168 21.792 L 129.168 21.792 Q 129.168 22.296 129.024 22.692 L 129.024 22.692 L 129.024 22.692 Q 128.88 23.088 128.88 23.376 Z  M 109.8 49.944 L 109.8 49.944 L 109.8 49.944 Q 108.792 48 108.72 46.128 L 108.72 46.128 L 108.72 46.128 Q 108.648 44.256 108.504 42.6 L 108.504 42.6 L 107.856 31.656 L 107.64 32.952 L 107.64 32.952 Q 107.64 37.776 107.964 41.7 L 107.964 41.7 L 107.964 41.7 Q 108.288 45.624 108.936 47.784 L 108.936 47.784 L 108.936 47.784 Q 108.936 48.432 108.9 48.648 L 108.9 48.648 L 108.9 48.648 Q 108.864 48.864 108.864 49.008 L 108.864 49.008 L 108.864 49.008 Q 108.864 49.152 109.044 49.368 L 109.044 49.368 L 109.044 49.368 Q 109.224 49.584 109.8 49.944 Z  M 113.904 46.056 L 113.904 46.056 L 113.904 46.056 Q 113.76 45.48 113.76 44.832 L 113.76 44.832 L 113.76 41.304 L 113.76 41.304 Q 113.688 42.024 113.616 42.708 L 113.616 42.708 L 113.616 42.708 Q 113.544 43.392 113.544 44.112 L 113.544 44.112 L 113.544 44.112 Q 113.544 45.984 113.76 46.992 L 113.76 46.992 L 113.76 46.992 Q 113.976 47.856 114.624 48.432 L 114.624 48.432 L 114.624 48.432 Q 114.264 48 114.12 47.496 L 114.12 47.496 L 114.12 47.496 Q 114.048 46.92 113.904 46.056 Z  M 106.848 45.48 L 106.92 45.984 L 106.848 45.48 L 106.848 45.48 Z  M 114.768 48.504 L 114.768 48.504 L 114.768 48.504 Q 114.696 48.432 114.624 48.432 L 114.624 48.432 L 114.624 48.432 Q 114.696 48.432 114.768 48.504 Z  M 161.712 40.512 L 161.712 40.512 L 161.712 40.512 Q 159.768 40.512 158.796 40.44 L 158.796 40.44 L 158.796 40.44 Q 157.824 40.368 157.032 40.368 L 157.032 40.368 L 157.032 40.368 Q 154.872 40.368 153.216 40.584 L 153.216 40.584 L 153.216 40.584 Q 151.56 40.8 150.408 41.448 L 150.408 41.448 L 150.408 41.448 Q 149.256 42.096 148.68 43.32 L 148.68 43.32 L 148.68 43.32 Q 148.104 44.544 148.104 46.56 L 148.104 46.56 L 148.104 46.56 Q 148.104 49.512 148.788 50.916 L 148.788 50.916 L 148.788 50.916 Q 149.472 52.32 150.732 52.932 L 150.732 52.932 L 150.732 52.932 Q 151.992 53.544 153.792 53.688 L 153.792 53.688 L 153.792 53.688 Q 155.592 53.832 157.824 54.336 L 157.824 54.336 L 157.824 54.336 Q 159.12 54.48 160.416 54.516 L 160.416 54.516 L 160.416 54.516 Q 161.712 54.552 163.008 54.552 L 163.008 54.552 L 168.192 54.552 L 168.192 54.552 Q 164.592 54.336 161.028 54.3 L 161.028 54.3 L 161.028 54.3 Q 157.464 54.264 154.62 53.688 L 154.62 53.688 L 154.62 53.688 Q 151.776 53.112 150.012 51.672 L 150.012 51.672 L 150.012 51.672 Q 148.248 50.232 148.248 47.28 L 148.248 47.28 L 148.248 47.28 Q 148.248 44.904 148.86 43.644 L 148.86 43.644 L 148.86 43.644 Q 149.472 42.384 150.516 41.772 L 150.516 41.772 L 150.516 41.772 Q 151.56 41.16 153 41.052 L 153 41.052 L 153 41.052 Q 154.44 40.944 156.096 40.944 L 156.096 40.944 L 156.096 40.944 Q 158.112 40.944 160.2 41.16 L 160.2 41.16 L 160.2 41.16 Q 158.544 41.664 156.852 41.916 L 156.852 41.916 L 156.852 41.916 Q 155.16 42.168 153.72 42.42 L 153.72 42.42 L 153.72 42.42 Q 152.28 42.672 151.236 43.068 L 151.236 43.068 L 151.236 43.068 Q 150.192 43.464 149.832 44.184 L 149.832 44.184 L 149.832 47.424 L 149.256 47.712 L 149.256 47.712 Q 149.544 49.512 149.796 50.412 L 149.796 50.412 L 149.796 50.412 Q 150.048 51.312 151.2 51.78 L 151.2 51.78 L 151.2 51.78 Q 152.352 52.248 154.908 52.536 L 154.908 52.536 L 154.908 52.536 Q 157.464 52.824 162.36 53.472 L 162.36 53.472 L 167.544 53.472 L 167.544 53.472 Q 168.912 53.472 169.164 53.364 L 169.164 53.364 L 169.164 53.364 Q 169.416 53.256 169.488 53.256 L 169.488 53.256 L 168.84 49.368 L 168.84 49.368 Q 168.696 47.928 168.48 46.776 L 168.48 46.776 L 168.48 46.776 Q 168.264 45.624 167.904 44.328 L 167.904 44.328 L 167.904 44.328 Q 167.832 44.544 167.472 44.544 L 167.472 44.544 L 167.472 44.544 Q 167.832 45.768 168.084 47.136 L 168.084 47.136 L 168.084 47.136 Q 168.336 48.504 168.516 49.728 L 168.516 49.728 L 168.516 49.728 Q 168.696 50.952 168.804 51.816 L 168.804 51.816 L 168.804 51.816 Q 168.912 52.68 169.056 52.824 L 169.056 52.824 L 168.624 52.968 L 168.624 52.968 Q 168.48 53.04 168.192 53.04 L 168.192 53.04 L 167.76 53.04 L 167.76 53.04 Q 167.256 53.04 166.608 52.932 L 166.608 52.932 L 166.608 52.932 Q 165.96 52.824 164.952 52.824 L 164.952 52.824 L 162.576 52.824 L 162.576 52.824 Q 159.768 52.824 157.392 52.536 L 157.392 52.536 L 157.392 52.536 Q 155.16 52.248 153.504 51.816 L 153.504 51.816 L 153.504 51.816 Q 155.16 52.176 157.536 52.392 L 157.536 52.392 L 157.536 52.392 Q 160.056 52.68 162.216 52.68 L 162.216 52.68 L 162.216 52.68 Q 163.152 52.68 164.196 52.644 L 164.196 52.644 L 164.196 52.644 Q 165.24 52.608 166.464 52.608 L 166.464 52.608 L 168.84 52.608 L 168.84 52.608 Q 168.624 52.392 168.336 52.392 L 168.336 52.392 L 168.192 52.392 L 168.192 52.392 Q 167.904 47.424 166.896 42.888 L 166.896 42.888 L 166.896 42.888 Q 165.888 38.352 163.656 34.932 L 163.656 34.932 L 163.656 34.932 Q 161.424 31.512 157.824 29.46 L 157.824 29.46 L 157.824 29.46 Q 154.224 27.408 148.824 27.408 L 148.824 27.408 L 148.824 27.408 Q 147.312 27.408 145.8 27.624 L 145.8 27.624 L 145.8 27.624 Q 144.288 27.84 142.704 28.2 L 142.704 28.2 L 142.704 28.2 Q 142.848 28.056 142.848 27.912 L 142.848 27.912 L 142.848 27.912 Q 142.848 27.552 142.56 27.228 L 142.56 27.228 L 142.56 27.228 Q 142.272 26.904 142.272 26.544 L 142.272 26.544 L 142.272 26.544 Q 142.272 26.112 143.172 25.716 L 143.172 25.716 L 143.172 25.716 Q 144.072 25.32 147.024 24.96 L 147.024 24.96 L 147.024 24.96 Q 146.88 24.816 146.844 24.528 L 146.844 24.528 L 146.844 24.528 Q 146.808 24.24 146.808 24.096 L 146.808 24.096 L 146.808 24.096 Q 142.92 24.096 140.76 23.916 L 140.76 23.916 L 140.76 23.916 Q 138.6 23.736 138.6 22.872 L 138.6 22.872 L 138.6 22.872 Q 138.6 22.512 139.5 21.864 L 139.5 21.864 L 139.5 21.864 Q 140.4 21.216 142.056 20.604 L 142.056 20.604 L 142.056 20.604 Q 143.712 19.992 146.052 19.524 L 146.052 19.524 L 146.052 19.524 Q 148.392 19.056 151.272 19.056 L 151.272 19.056 L 151.272 19.056 Q 156.816 19.056 160.776 20.748 L 160.776 20.748 L 160.776 20.748 Q 164.736 22.44 167.436 25.212 L 167.436 25.212 L 167.436 25.212 Q 170.136 27.984 171.828 31.512 L 171.828 31.512 L 171.828 31.512 Q 173.52 35.04 174.564 38.604 L 174.564 38.604 L 174.564 38.604 Q 175.608 42.168 176.112 45.516 L 176.112 45.516 L 176.112 45.516 Q 176.616 48.864 177.048 51.312 L 177.048 51.312 L 177.048 51.312 Q 177.048 51.744 177.084 52.176 L 177.084 52.176 L 177.084 52.176 Q 177.12 52.608 177.12 53.184 L 177.12 53.184 L 177.12 53.184 Q 177.12 55.272 176.364 56.82 L 176.364 56.82 L 176.364 56.82 Q 175.608 58.368 174.276 59.412 L 174.276 59.412 L 174.276 59.412 Q 172.944 60.456 171.18 60.996 L 171.18 60.996 L 171.18 60.996 Q 169.416 61.536 167.4 61.536 L 167.4 61.536 L 167.4 61.536 Q 165.816 61.536 163.296 61.464 L 163.296 61.464 L 163.296 61.464 Q 160.776 61.392 158.472 61.032 L 158.472 61.032 L 158.472 61.032 Q 156.96 60.672 155.16 60.492 L 155.16 60.492 L 155.16 60.492 Q 153.36 60.312 151.488 59.88 L 151.488 59.88 L 151.488 59.88 Q 149.616 59.448 147.852 58.656 L 147.852 58.656 L 147.852 58.656 Q 146.088 57.864 144.684 56.244 L 144.684 56.244 L 144.684 56.244 Q 143.28 54.624 142.452 52.032 L 142.452 52.032 L 142.452 52.032 Q 141.624 49.44 141.624 45.48 L 141.624 45.48 L 141.624 45.48 Q 141.624 41.736 143.352 39.468 L 143.352 39.468 L 143.352 39.468 Q 145.08 37.2 147.492 35.94 L 147.492 35.94 L 147.492 35.94 Q 149.904 34.68 152.424 34.284 L 152.424 34.284 L 152.424 34.284 Q 154.944 33.888 156.528 33.888 L 156.528 33.888 L 156.528 33.888 Q 158.544 33.888 159.192 34.176 L 159.192 34.176 L 159.192 34.176 Q 159.84 34.464 159.84 34.752 L 159.84 34.752 L 159.84 34.752 Q 159.84 34.968 159.768 35.112 L 159.768 35.112 L 159.768 35.112 Q 157.968 35.112 155.16 35.256 L 155.16 35.256 L 155.16 35.256 Q 152.352 35.4 149.724 36.192 L 149.724 36.192 L 149.724 36.192 Q 147.096 36.984 145.224 38.604 L 145.224 38.604 L 145.224 38.604 Q 143.352 40.224 143.352 43.176 L 143.352 43.176 L 143.352 43.176 Q 144 40.512 145.548 38.964 L 145.548 38.964 L 145.548 38.964 Q 147.096 37.416 149.112 36.66 L 149.112 36.66 L 149.112 36.66 Q 151.128 35.904 153.252 35.724 L 153.252 35.724 L 153.252 35.724 Q 155.376 35.544 157.104 35.544 L 157.104 35.544 L 159.552 35.544 L 159.552 35.544 Q 159.264 35.832 159.264 36.12 L 159.264 36.12 L 159.264 36.12 Q 159.264 36.408 159.552 36.624 L 159.552 36.624 L 162.36 36.624 L 162.36 36.624 Q 163.512 36.84 164.016 37.38 L 164.016 37.38 L 164.016 37.38 Q 164.52 37.92 164.52 38.352 L 164.52 38.352 L 164.52 38.352 Q 164.52 39 163.872 39.504 L 163.872 39.504 L 163.872 39.504 Q 163.224 40.008 161.712 40.512 Z  M 149.616 57.936 L 149.616 57.936 L 149.616 57.936 Q 151.632 58.728 153.756 59.16 L 153.756 59.16 L 153.756 59.16 Q 155.88 59.592 157.968 59.736 L 157.968 59.736 L 157.968 59.736 Q 160.056 59.952 161.856 59.952 L 161.856 59.952 L 161.856 59.952 Q 160.416 59.808 158.976 59.448 L 158.976 59.448 L 158.976 59.448 Q 157.464 59.088 156.312 58.8 L 156.312 58.8 L 156.312 58.8 Q 155.088 58.512 153.9 58.404 L 153.9 58.404 L 153.9 58.404 Q 152.712 58.296 151.452 58.08 L 151.452 58.08 L 151.452 58.08 Q 150.192 57.864 148.896 57.396 L 148.896 57.396 L 148.896 57.396 Q 147.6 56.928 146.304 55.992 L 146.304 55.992 L 146.304 55.992 Q 147.672 57.216 149.616 57.936 Z  M 150.048 50.232 L 150.336 50.376 L 150.336 50.376 Q 150.264 50.304 150.768 50.808 L 150.768 50.808 L 150.768 50.808 Q 151.2 51.24 151.92 51.456 L 151.92 51.456 L 151.92 51.456 Q 151.56 51.312 150.84 51.096 L 150.84 51.096 L 150.84 51.096 Q 150.048 50.808 150.048 50.232 L 150.048 50.232 L 150.048 50.232 Z  M 152.136 51.456 L 152.136 51.456 L 152.136 51.456 Q 152.064 51.456 151.92 51.456 L 151.92 51.456 L 151.92 51.456 Q 151.992 51.456 152.136 51.456 Z " fill-rule="evenodd" fill="rgb(255,255,255)"/></g></svg>