<?xml version="1.0" standalone="no"?><!-- Generator: Gravit.io --><svg xmlns="http://www.w3.org/2000/svg" xmlns:xlink="http://www.w3.org/1999/xlink" style="isolation:isolate" viewBox="0 0 7.005 10.8" width="7.005" height="10.8"><defs><clipPath id="_clipPath_6IuQuiu8K2J77AxuUVpBW461touTvjG9"><rect width="7.005" height="10.8"/></clipPath></defs><g clip-path="url(#_clipPath_6IuQuiu8K2J77AxuUVpBW461touTvjG9)"><rect width="7.005" height="10.8" style="fill:rgb(0,0,0)" fill-opacity="0"/><g><path d=" M 5.711 3.473 C 5.711 4.684 4.713 5.682 3.502 5.682 C 2.292 5.682 1.294 4.684 1.294 3.473 L 1.294 3.473 C 1.294 2.262 2.292 1.264 3.502 1.264 C 4.713 1.264 5.711 2.262 5.711 3.473 Z  M 0.885 3.473 C 0.885 3.473 0.885 3.473 0.885 3.473 C 0.885 2.033 2.063 0.855 3.502 0.855 C 4.942 0.855 6.12 2.033 6.12 3.473 L 6.12 3.473 L 6.12 3.473 C 6.12 3.473 6.12 3.473 6.12 3.473 C 6.12 3.473 6.12 3.473 6.12 3.473 C 6.12 4.913 4.942 6.091 3.502 6.091 C 2.063 6.091 0.885 4.913 0.885 3.473 C 0.885 3.473 0.885 3.473 0.885 3.473 Z  M 3.502 0.446 C 5.204 0.446 6.578 1.821 6.578 3.522 C 6.578 5.027 4.141 8.12 3.502 8.921 C 2.864 8.12 0.427 5.027 0.427 3.522 C 0.427 1.821 1.801 0.446 3.502 0.446 L 3.502 0.446 L 3.502 0.446 Z " fill-rule="evenodd" fill="rgb(57,255,20)"/><path d=" M 3.502 9.543 L 3.65 9.363 C 3.781 9.199 6.987 5.387 6.987 3.522 C 6.987 1.608 5.417 0.037 3.502 0.037 C 1.588 0.037 0.018 1.608 0.018 3.522 C 0.018 5.387 3.208 9.199 3.355 9.363 L 3.502 9.543 Z  M 3.502 0.446 C 5.204 0.446 6.578 1.821 6.578 3.522 C 6.578 5.027 4.141 8.12 3.502 8.921 C 2.864 8.12 0.427 5.027 0.427 3.522 C 0.427 1.821 1.801 0.446 3.502 0.446 Z " fill="rgb(57,255,20)"/><path d=" M 4.484 8.758 C 4.386 8.888 4.288 9.019 4.19 9.134 C 5.711 9.216 6.529 9.576 6.529 9.723 C 6.529 9.903 5.466 10.328 3.486 10.328 C 1.506 10.328 0.443 9.903 0.443 9.723 C 0.443 9.576 1.261 9.216 2.783 9.134 C 2.684 9.019 2.603 8.888 2.488 8.758 C 1.343 8.856 0.034 9.118 0.034 9.723 C 0.034 10.525 2.292 10.737 3.47 10.737 C 4.664 10.737 6.906 10.525 6.906 9.723 C 6.938 9.118 5.629 8.856 4.484 8.758 Z " fill="rgb(57,255,20)"/><circle vector-effect="non-scaling-stroke" cx="3.502499687941434" cy="2.6222851960868914" r="0.6053516748953109" fill="rgb(255,255,255)"/><path d=" M 4.795 4.16 C 4.795 3.702 4.419 3.309 3.944 3.309 L 3.044 3.309 C 2.586 3.309 2.194 3.686 2.194 4.16 L 2.194 4.716 L 4.779 4.716 L 4.779 4.16 L 4.795 4.16 Z " fill="rgb(255,255,255)"/></g></g></svg>