<?xml version="1.0" standalone="no"?><!-- Generator: Gravit.io --><svg xmlns="http://www.w3.org/2000/svg" xmlns:xlink="http://www.w3.org/1999/xlink" style="isolation:isolate" viewBox="0 0 720 720" width="720" height="720"><defs><clipPath id="_clipPath_1OdxnqLE7oaZjYKiDCCL1q0Ol5ZzxIR4"><rect width="720" height="720"/></clipPath></defs><g clip-path="url(#_clipPath_1OdxnqLE7oaZjYKiDCCL1q0Ol5ZzxIR4)"><rect width="720" height="720" style="fill:rgb(0,0,0)" fill-opacity="0"/><path d=" M 158.608 254.144 C 150.372 216.418 167.652 180.557 197.172 174.112 C 226.692 167.668 257.345 193.064 265.581 230.79 C 273.817 268.516 256.537 304.377 227.017 310.822 C 197.497 317.266 166.843 291.87 158.608 254.144 Z " fill="rgb(53,31,61)"/><path d=" M 266.1 177.421 C 268.311 133.398 295.066 98.911 325.81 100.455 C 356.553 102 379.717 138.995 377.505 183.017 C 375.294 227.04 348.539 261.527 317.796 259.982 C 287.053 258.438 263.888 221.443 266.1 177.421 Z " fill="rgb(53,31,61)"/><path d=" M 398.129 200.632 C 411.191 162.779 445.193 140.12 474.011 150.064 C 502.83 160.008 515.622 198.814 502.56 236.668 C 489.499 274.521 455.497 297.18 426.678 287.236 C 397.86 277.292 385.067 238.486 398.129 200.632 Z " fill="rgb(53,31,61)"/><path d=" M 476.313 305.964 C 495.728 277.529 528.633 266.148 549.747 280.565 C 570.862 294.981 572.241 329.771 552.826 358.206 C 533.412 386.641 500.507 398.023 479.392 383.606 C 458.278 369.189 456.898 334.399 476.313 305.964 Z " fill="rgb(53,31,61)"/><path d=" M 371.204 512.571 L 304.147 489.954 L 256.808 484.216 C 182.217 475.174 154.367 419.267 194.654 359.447 L 194.654 359.447 L 282.569 291.351 C 339.649 247.139 404.446 266.881 427.177 335.409 L 461.198 437.972 L 461.198 437.972 C 477.679 501.455 437.354 534.882 371.204 512.571 Z " fill="rgb(53,31,61)"/><circle vector-effect="non-scaling-stroke" cx="281.9976958525345" cy="275.57373271889406" r="7.5" fill="rgb(145,101,152)"/><circle vector-effect="non-scaling-stroke" cx="375.79493087557603" cy="254.13594470046098" r="7.5" fill="rgb(145,101,152)"/><circle vector-effect="non-scaling-stroke" cx="437.73041474654366" cy="320.4953917050692" r="7.5" fill="rgb(145,101,152)"/><path d=" M 335.115 520.922 C 323.927 520.922 302 516.5 290.375 514 C 283.125 512.5 278.75 511.5 271.25 509.5 C 264.125 507 254.505 504.184 246.125 502.25 C 241.375 501 235.5 499.375 229.75 498.5 C 219.5 496.375 212.2 493.363 203.75 491.25 C 195.375 487.875 184.524 481.649 180.625 477.75 C 175.235 472.36 167.75 461.375 165.875 457.25 C 162.567 451.948 158.327 439.507 157.625 430.5 C 157.625 419.006 158.375 407.375 159.125 396.125 C 161.625 384.75 162.75 375.375 168.111 367.189 C 173.641 358.341 175.495 352.063 182.488 345.069 C 189.001 338.557 204.646 333.646 201 330 C 198.268 327.268 189.527 325.302 180.5 319.875 C 175.528 316.886 170.624 312.446 165.125 308.125 C 162.625 306 158.125 298 153.625 290.125 C 148.375 284.25 144.5 261.981 144.5 257 C 144.5 246.816 143 237.536 143 227.625 C 144.125 212.625 143.779 210.138 149.309 195.76 C 153.733 185.806 155.5 184.5 164.125 173 C 171.75 166.25 179 161.5 188 159.875 C 197.375 157.625 201.252 157.25 209 157.25 C 216.021 157.25 225.5 160.75 230.75 163.125 C 234 165 237 167.75 238.375 169.25 C 239.481 169.25 246.333 176 246.333 176 C 246.333 173.205 247.5 174 247.625 171.25 C 247.754 170.592 247.985 167.919 248.25 167.125 C 248.367 166.775 248.883 164.008 248.813 163.625 C 248.938 162.5 249.085 161.455 249.25 161.125 C 249.415 160.795 249.563 159.75 249.75 158 C 249.587 158.082 250.063 155.875 250 155.125 C 250.075 154.639 251.502 149.414 251.625 148 C 252.186 145.639 253.804 141.517 254.25 140.625 C 259.375 130.625 255.678 137.519 259.375 130.125 C 259.862 129.152 261.5 126 264.625 121.625 C 269.375 114.875 278.125 106.375 278.125 106.375 C 279.662 104.838 285.026 100.441 287.375 98.875 C 291 95.5 296 93.202 296 92.875 C 295.875 92.375 306.625 87.875 306.625 87.875 C 313.25 85.25 317.426 84.57 324.875 83.5 C 329.625 83 331.257 82.948 333.625 82.875 C 337.377 82.759 339.647 83.377 342.5 83.75 C 344.575 84.168 347.366 84.668 350.5 86 C 351.189 86.345 365 93.444 365 93.75 C 369 96.625 376.625 103.25 378.5 105.625 C 381.125 108.5 387.004 116.132 388.5 119.125 C 392.375 130.375 392.875 131.625 393.875 140.5 C 393.875 150.591 394.313 153.25 393.875 163.375 C 393.75 165.563 390.938 180.5 392.982 180.618 C 393.016 180.842 393.063 180.975 393.125 181 C 396.25 181.688 404.375 164.75 409.375 157 C 414.125 150.875 417.375 148 422.375 144.125 C 437.125 135.125 450.091 133.125 462.25 133.125 C 477.146 133.125 487.75 137.875 497.875 143.5 C 503.625 146.625 506.576 149.75 509.125 151.875 C 515.458 157.155 516.541 159.526 519.75 164.25 C 525.375 174.125 526 180.5 526.875 184.875 C 528.125 195.25 528 202 527.125 209.25 C 527.125 217.77 522.894 234.961 519.5 241.75 C 516.761 249.418 509.125 257 510.625 258.625 C 513.125 260 522 257.813 525.063 258.063 C 532.375 258.313 544.422 261.461 550 264.25 C 563.202 270.851 574 288.25 576.625 298.5 C 580.5 308.875 582.625 317.605 582.625 327 C 582.625 336.394 582 343.375 577.875 352.25 C 575 359.125 576.059 358.523 570.875 365 C 566.25 372.75 562.25 377.5 556.375 383.875 C 552.125 388.75 551.75 388.25 547 391.75 C 540.625 395.875 539.75 396.625 535.875 398.875 C 532 400.875 527.625 403 522.875 404.625 C 511.875 407 513 406.625 503.875 406.25 C 493 405.875 490.875 404.5 481 403.25 C 475.875 402.438 469.75 399.375 467.375 401.875 C 466.063 403.875 467.375 405.875 468.25 408 C 469.931 414.481 470.875 417.875 472.125 422.375 C 473.875 426.5 474.125 429 475.375 433.5 C 476.375 439.125 475.875 437.5 476.682 441.29 C 476.682 447.133 477.788 451.964 477.788 456.774 C 478.125 466.5 478 473.625 475.875 483.125 C 473.25 493.125 470.375 497.625 464.75 505.125 C 459.5 512.25 451.974 516.776 448.75 520 C 446.698 522.052 436.592 529.189 436.125 529.5" fill="none" vector-effect="non-scaling-stroke" stroke-width="10" stroke="rgb(145,101,152)" stroke-linejoin="miter" stroke-linecap="square" stroke-miterlimit="3"/><path d=" M 429.34 628.04 L 429.556 627.392 L 429.556 627.392 Q 429.7 623.36 429.772 619.436 L 429.772 619.436 L 429.772 619.436 Q 429.844 615.512 429.844 611.12 L 429.844 611.12 L 429.844 611.12 Q 429.844 609.248 429.772 607.412 L 429.772 607.412 L 429.772 607.412 Q 429.7 605.576 429.556 603.848 L 429.556 603.848 L 429.556 611.768 L 429.556 611.768 Q 429.556 615.728 429.448 619.652 L 429.448 619.652 L 429.448 619.652 Q 429.34 623.576 428.908 627.392 L 428.908 627.392 L 428.908 627.392 Q 428.548 626.744 428.26 626.06 L 428.26 626.06 L 428.26 626.06 Q 427.972 625.376 427.828 624.584 L 427.828 624.584 L 427.828 624.584 Q 427.972 622.64 428.008 621.02 L 428.008 621.02 L 428.008 621.02 Q 428.044 619.4 428.044 617.456 L 428.044 617.456 L 428.908 617.024 L 428.908 617.024 Q 428.692 615.512 428.62 613.964 L 428.62 613.964 L 428.62 613.964 Q 428.548 612.416 428.548 610.904 L 428.548 610.904 L 428.548 610.904 Q 428.548 609.248 428.584 607.7 L 428.584 607.7 L 428.584 607.7 Q 428.62 606.152 428.62 604.496 L 428.62 604.496 L 428.62 604.496 Q 428.62 602.48 428.512 600.5 L 428.512 600.5 L 428.512 600.5 Q 428.404 598.52 428.044 596.504 L 428.044 596.504 L 427.828 596.504 L 427.828 596.504 Q 427.972 599.528 428.08 602.48 L 428.08 602.48 L 428.08 602.48 Q 428.188 605.432 428.188 608.384 L 428.188 608.384 L 428.188 608.384 Q 428.188 609.68 428.116 610.976 L 428.116 610.976 L 428.044 612.848 L 428.044 612.848 Q 427.9 605.936 427.54 599.312 L 427.54 599.312 L 427.54 599.312 Q 427.252 592.256 426.532 584.84 L 426.532 584.84 L 426.82 578.864 L 426.82 578.864 Q 426.028 578.792 425.164 578.792 L 425.164 578.792 L 423.508 578.792 L 423.292 577.136 L 423.292 577.136 Q 423.292 576.776 423.796 576.488 L 423.796 576.488 L 423.796 576.488 Q 424.3 576.2 425.812 576.2 L 425.812 576.2 L 426.532 576.2 L 426.532 575.336 L 426.532 575.336 Q 424.156 575.048 422.824 574.328 L 422.824 574.328 L 422.824 574.328 Q 421.492 573.608 421.492 572.816 L 421.492 572.816 L 421.492 572.816 Q 421.492 572.096 422.788 571.556 L 422.788 571.556 L 422.788 571.556 Q 424.084 571.016 426.136 570.692 L 426.136 570.692 L 426.136 570.692 Q 428.188 570.368 430.636 570.224 L 430.636 570.224 L 430.636 570.224 Q 433.084 570.08 435.388 570.08 L 435.388 570.08 L 435.388 570.08 Q 437.908 570.08 440.824 570.224 L 440.824 570.224 L 440.824 570.224 Q 443.74 570.368 446.692 570.944 L 446.692 570.944 L 446.692 570.944 Q 449.644 571.52 452.416 572.708 L 452.416 572.708 L 452.416 572.708 Q 455.188 573.896 457.42 576.02 L 457.42 576.02 L 457.42 576.02 Q 459.652 578.144 461.128 581.348 L 461.128 581.348 L 461.128 581.348 Q 462.604 584.552 463.036 589.16 L 463.036 589.16 L 463.036 589.16 Q 463.036 593.048 461.344 595.532 L 461.344 595.532 L 461.344 595.532 Q 459.652 598.016 457.276 599.528 L 457.276 599.528 L 457.276 599.528 Q 454.9 601.04 452.344 601.688 L 452.344 601.688 L 452.344 601.688 Q 449.788 602.336 448.132 602.552 L 448.132 602.552 L 448.132 602.552 Q 446.476 602.912 444.316 603.38 L 444.316 603.38 L 444.316 603.38 Q 442.156 603.848 440.644 603.848 L 440.644 603.848 L 440.644 603.848 Q 438.988 603.848 438.7 603.488 L 438.7 603.488 L 438.7 603.488 Q 438.412 603.128 438.412 602.552 L 438.412 602.552 L 438.412 602.552 Q 441.652 602.408 444.892 602.012 L 444.892 602.012 L 444.892 602.012 Q 448.132 601.616 451.372 600.608 L 451.372 600.608 L 451.372 600.608 Q 448.132 601.4 444.892 601.796 L 444.892 601.796 L 444.892 601.796 Q 441.652 602.192 438.412 602.336 L 438.412 602.336 L 438.412 602.336 Q 438.412 601.904 438.34 601.436 L 438.34 601.436 L 438.34 601.436 Q 438.268 600.968 437.908 600.968 L 437.908 600.968 L 437.908 600.968 Q 437.188 600.968 436.792 603.272 L 436.792 603.272 L 436.792 603.272 Q 436.396 605.576 436.216 608.78 L 436.216 608.78 L 436.216 608.78 Q 436.036 611.984 436 615.368 L 436 615.368 L 436 615.368 Q 435.964 618.752 435.964 620.984 L 435.964 620.984 L 435.964 620.984 Q 435.964 621.992 436.072 623.108 L 436.072 623.108 L 436.072 623.108 Q 436.18 624.224 436.18 625.016 L 436.18 625.016 L 436.18 625.016 Q 436.18 625.736 435.964 626.24 L 435.964 626.24 L 435.964 626.24 Q 435.748 626.744 434.74 626.744 L 434.74 626.744 L 434.74 617.672 L 434.74 617.672 Q 434.596 619.976 434.56 622.208 L 434.56 622.208 L 434.56 622.208 Q 434.524 624.44 434.524 626.744 L 434.524 626.744 L 433.228 626.744 L 433.228 627.32 L 433.228 627.32 Q 433.228 627.968 433.444 628.256 L 433.444 628.256 L 433.444 628.256 Q 432.652 629.624 431.644 629.624 L 431.644 629.624 L 431.644 629.624 Q 430.852 629.624 430.456 629.192 L 430.456 629.192 L 430.456 629.192 Q 430.06 628.76 429.34 628.04 L 429.34 628.04 L 429.34 628.04 Z  M 436.036 592.832 L 436.54 597.368 L 437.548 597.368 L 437.548 597.368 Q 440.068 597.368 443.344 597.08 L 443.344 597.08 L 443.344 597.08 Q 446.62 596.792 449.5 596 L 449.5 596 L 449.5 596 Q 452.38 595.208 454.36 593.768 L 454.36 593.768 L 454.36 593.768 Q 456.34 592.328 456.34 590.024 L 456.34 590.024 L 456.34 589.448 L 456.34 589.448 Q 456.34 588.728 456.232 587.864 L 456.232 587.864 L 456.232 587.864 Q 456.124 587 455.62 586.208 L 455.62 586.208 L 455.62 586.208 Q 455.692 586.568 455.98 587.648 L 455.98 587.648 L 455.98 587.648 Q 456.268 588.728 456.268 589.448 L 456.268 589.448 L 456.268 589.448 Q 456.268 591.68 454.72 593.084 L 454.72 593.084 L 454.72 593.084 Q 453.172 594.488 450.832 595.316 L 450.832 595.316 L 450.832 595.316 Q 448.492 596.144 445.72 596.468 L 445.72 596.468 L 445.72 596.468 Q 442.948 596.792 440.428 596.792 L 440.428 596.792 L 438.988 596.792 L 438.988 596.792 Q 438.268 596.792 437.548 596.72 L 437.548 596.72 L 437.548 596.72 Q 438.556 595.928 440.176 595.604 L 440.176 595.604 L 440.176 595.604 Q 441.796 595.28 443.596 595.064 L 443.596 595.064 L 443.596 595.064 Q 445.396 594.848 447.124 594.632 L 447.124 594.632 L 447.124 594.632 Q 448.852 594.416 450.076 593.912 L 450.076 593.912 L 450.508 594.776 L 450.508 594.776 Q 453.028 593.552 454.072 592.364 L 454.072 592.364 L 454.072 592.364 Q 455.116 591.176 455.116 589.088 L 455.116 589.088 L 455.116 589.088 Q 455.116 585.776 453.28 583.256 L 453.28 583.256 L 453.28 583.256 Q 451.444 580.736 448.348 579.872 L 448.348 579.872 L 448.132 580.304 L 448.132 580.304 Q 450.796 581.312 452.74 583.616 L 452.74 583.616 L 452.74 583.616 Q 454.684 585.92 454.684 589.16 L 454.684 589.16 L 454.684 589.16 Q 454.684 590.888 453.892 591.896 L 453.892 591.896 L 453.892 591.896 Q 453.172 592.76 451.588 593.48 L 451.588 593.48 L 451.588 593.48 Q 452.884 592.904 453.532 592.04 L 453.532 592.04 L 453.532 592.04 Q 454.324 591.032 454.612 589.808 L 454.612 589.808 L 454.612 589.808 Q 454.612 586.784 453.172 584.696 L 453.172 584.696 L 453.172 584.696 Q 451.732 582.608 449.14 581.348 L 449.14 581.348 L 449.14 581.348 Q 446.548 580.088 442.912 579.548 L 442.912 579.548 L 442.912 579.548 Q 439.276 579.008 434.884 579.008 L 434.884 579.008 L 434.884 579.008 Q 435.46 582.104 435.568 585.74 L 435.568 585.74 L 435.568 585.74 Q 435.676 589.376 436.036 592.832 L 436.036 592.832 L 436.036 592.832 Z  M 429.34 579.008 L 429.268 586.352 L 429.268 586.352 Q 429.412 586.208 429.556 585.128 L 429.556 585.128 L 429.556 585.128 Q 429.7 584.048 429.808 582.788 L 429.808 582.788 L 429.808 582.788 Q 429.916 581.528 430.024 580.412 L 430.024 580.412 L 430.024 580.412 Q 430.132 579.296 430.276 579.08 L 430.276 579.08 L 429.34 579.008 L 429.34 579.008 Z  M 451.588 593.48 L 451.228 593.624 L 451.588 593.48 L 451.588 593.48 Z  M 496.444 607.808 L 496.444 607.808 L 496.444 607.808 Q 493.708 608.744 492.268 608.852 L 492.268 608.852 L 492.268 608.852 Q 490.828 608.96 489.748 609.032 L 489.748 609.032 L 489.748 609.032 Q 485.716 609.032 482.476 607.52 L 482.476 607.52 L 482.476 607.52 Q 479.236 606.008 476.932 603.416 L 476.932 603.416 L 476.932 603.416 Q 474.628 600.824 473.368 597.332 L 473.368 597.332 L 473.368 597.332 Q 472.108 593.84 472.108 589.88 L 472.108 589.88 L 472.108 589.88 Q 472.108 587.576 472.54 585.092 L 472.54 585.092 L 472.54 585.092 Q 472.972 582.608 473.836 580.196 L 473.836 580.196 L 473.836 580.196 Q 474.7 577.784 476.068 575.696 L 476.068 575.696 L 476.068 575.696 Q 477.364 573.608 479.164 571.952 L 479.164 571.952 L 479.164 571.952 Q 477.292 573.464 475.996 575.552 L 475.996 575.552 L 475.996 575.552 Q 474.628 577.64 473.692 580.052 L 473.692 580.052 L 473.692 580.052 Q 472.756 582.464 472.324 585.02 L 472.324 585.02 L 472.324 585.02 Q 471.892 587.576 471.892 589.952 L 471.892 589.952 L 471.892 589.952 Q 471.892 592.976 472.864 596.396 L 472.864 596.396 L 472.864 596.396 Q 473.836 599.816 475.996 602.732 L 475.996 602.732 L 475.996 602.732 Q 478.156 605.648 481.576 607.592 L 481.576 607.592 L 481.576 607.592 Q 484.996 609.536 489.892 609.536 L 489.892 609.536 L 489.892 609.536 Q 492.196 609.536 494.716 608.888 L 494.716 608.888 L 494.716 608.888 Q 491.98 610.688 488.596 610.688 L 488.596 610.688 L 488.596 610.688 Q 485.86 610.688 483.448 609.86 L 483.448 609.86 L 483.448 609.86 Q 481.036 609.032 478.984 607.556 L 478.984 607.556 L 478.984 607.556 Q 476.932 606.08 475.276 604.064 L 475.276 604.064 L 475.276 604.064 Q 473.62 602.048 472.468 599.744 L 472.468 599.744 L 473.116 599.168 L 473.116 599.168 Q 471.892 596.72 471.352 594.272 L 471.352 594.272 L 471.352 594.272 Q 470.812 591.824 470.812 589.304 L 470.812 589.304 L 470.812 589.304 Q 470.812 585.632 471.856 582.248 L 471.856 582.248 L 471.856 582.248 Q 472.9 578.864 474.628 575.84 L 474.628 575.84 L 476.356 573.464 L 476.356 573.464 Q 476.788 572.672 477.616 571.88 L 477.616 571.88 L 477.616 571.88 Q 478.444 571.088 479.452 570.332 L 479.452 570.332 L 479.452 570.332 Q 480.46 569.576 481.576 568.964 L 481.576 568.964 L 481.576 568.964 Q 482.692 568.352 483.7 567.848 L 483.7 567.848 L 483.7 567.848 Q 486.292 566.552 488.884 565.508 L 488.884 565.508 L 488.884 565.508 Q 491.476 564.464 494.932 563.96 L 494.932 563.96 L 494.644 563.744 L 494.644 563.744 Q 488.02 564.392 483.412 566.948 L 483.412 566.948 L 483.412 566.948 Q 478.804 569.504 475.924 573.176 L 475.924 573.176 L 475.924 573.176 Q 473.044 576.848 471.748 581.204 L 471.748 581.204 L 471.748 581.204 Q 470.452 585.56 470.452 589.736 L 470.452 589.736 L 470.452 589.736 Q 470.452 591.968 470.848 594.236 L 470.848 594.236 L 470.848 594.236 Q 471.244 596.504 472.036 598.736 L 472.036 598.736 L 472.036 598.736 Q 470.236 594.416 470.236 589.592 L 470.236 589.592 L 470.236 589.592 Q 470.236 584.84 471.82 580.16 L 471.82 580.16 L 471.82 580.16 Q 473.404 575.48 476.788 571.52 L 476.788 571.52 L 476.788 571.52 Q 481.108 567.56 486.22 565.436 L 486.22 565.436 L 486.22 565.436 Q 491.332 563.312 496.084 563.312 L 496.084 563.312 L 496.084 563.312 Q 497.596 563.312 499.18 563.816 L 499.18 563.816 L 499.18 563.816 Q 500.764 564.32 502.06 565.364 L 502.06 565.364 L 502.06 565.364 Q 503.356 566.408 504.184 568.064 L 504.184 568.064 L 504.184 568.064 Q 505.012 569.72 505.012 572.096 L 505.012 572.096 L 505.012 572.096 Q 505.012 574.04 504.076 576.848 L 504.076 576.848 L 504.076 576.848 Q 503.14 579.656 501.304 582.284 L 501.304 582.284 L 501.304 582.284 Q 499.468 584.912 496.732 586.748 L 496.732 586.748 L 496.732 586.748 Q 493.996 588.584 490.396 588.584 L 490.396 588.584 L 488.02 588.584 L 488.02 588.584 Q 485.356 588.008 483.16 587.252 L 483.16 587.252 L 483.16 587.252 Q 480.964 586.496 479.02 586.064 L 479.02 586.064 L 479.02 586.064 Q 478.732 587.216 478.696 588.26 L 478.696 588.26 L 478.696 588.26 Q 478.66 589.304 478.66 590.312 L 478.66 590.312 L 478.66 590.312 Q 478.66 592.4 479.128 594.38 L 479.128 594.38 L 479.128 594.38 Q 479.596 596.36 480.604 598.016 L 480.604 598.016 L 480.604 598.016 Q 481.612 599.672 483.16 600.788 L 483.16 600.788 L 483.16 600.788 Q 484.708 601.904 486.94 602.192 L 486.94 602.192 L 486.94 602.192 Q 488.308 602.48 489.316 602.516 L 489.316 602.516 L 489.316 602.516 Q 490.324 602.552 491.008 602.588 L 491.008 602.588 L 491.008 602.588 Q 491.692 602.624 492.016 602.804 L 492.016 602.804 L 492.016 602.804 Q 492.34 602.984 492.34 603.488 L 492.34 603.488 L 492.34 603.488 Q 491.62 603.704 490.864 603.776 L 490.864 603.776 L 490.864 603.776 Q 490.108 603.848 489.316 603.848 L 489.316 603.848 L 489.316 603.848 Q 486.796 603.848 484.78 603.02 L 484.78 603.02 L 484.78 603.02 Q 482.764 602.192 481.324 601.112 L 481.324 601.112 L 481.324 601.112 Q 482.98 602.768 485.284 603.452 L 485.284 603.452 L 485.284 603.452 Q 487.588 604.136 489.82 604.136 L 489.82 604.136 L 489.82 604.136 Q 491.044 604.136 492.34 603.92 L 492.34 603.92 L 492.34 603.92 Q 492.196 604.352 492.196 604.424 L 492.196 604.424 L 492.196 604.424 Q 492.196 604.856 492.556 605 L 492.556 605 L 492.556 605 Q 492.844 604.928 493.564 604.604 L 493.564 604.604 L 493.564 604.604 Q 494.284 604.28 495.04 603.956 L 495.04 603.956 L 495.04 603.956 Q 495.796 603.632 496.516 603.38 L 496.516 603.38 L 496.516 603.38 Q 497.236 603.128 497.524 603.128 L 497.524 603.128 L 497.524 603.128 Q 497.884 603.128 498.172 603.236 L 498.172 603.236 L 498.172 603.236 Q 498.46 603.344 498.46 604.064 L 498.46 604.064 L 498.46 604.064 Q 498.46 604.784 497.956 605.792 L 497.956 605.792 L 497.956 605.792 Q 497.452 606.8 496.444 607.808 Z  M 486.508 579.296 L 486.508 579.296 L 488.092 579.584 L 488.092 579.584 Q 488.884 579.728 489.532 579.728 L 489.532 579.728 L 489.532 579.728 Q 490.252 579.728 491.224 579.26 L 491.224 579.26 L 491.224 579.26 Q 492.196 578.792 493.168 577.928 L 493.168 577.928 L 493.168 577.928 Q 494.14 577.064 494.896 575.768 L 494.896 575.768 L 494.896 575.768 Q 495.652 574.472 496.012 572.816 L 496.012 572.816 L 496.156 572.384 L 496.156 572.384 Q 495.148 572.384 493.132 572.888 L 493.132 572.888 L 493.132 572.888 Q 491.116 573.392 488.956 574.22 L 488.956 574.22 L 488.956 574.22 Q 486.796 575.048 484.924 576.164 L 484.924 576.164 L 484.924 576.164 Q 483.052 577.28 482.332 578.576 L 482.332 578.576 L 482.332 578.576 Q 483.412 578.792 484.456 578.972 L 484.456 578.972 L 484.456 578.972 Q 485.5 579.152 486.508 579.296 Z  M 479.668 583.544 L 483.196 584.624 L 483.196 584.624 Q 483.34 584.48 483.376 584.192 L 483.376 584.192 L 483.376 584.192 Q 483.412 583.904 483.412 583.76 L 483.412 583.76 L 480.028 582.536 L 479.668 583.544 L 479.668 583.544 Z  M 481.18 600.968 L 481.18 600.968 L 481.18 600.968 Q 480.676 600.392 480.172 599.816 L 480.172 599.816 L 480.172 599.816 Q 479.74 599.312 479.452 598.808 L 479.452 598.808 L 479.452 598.808 Q 480.1 600.032 481.18 600.968 Z  M 525.748 606.584 L 523.948 607.304 L 523.948 607.304 Q 523.228 607.448 522.364 607.448 L 522.364 607.448 L 520.276 607.448 L 520.276 607.448 Q 518.404 607.448 517.648 607.88 L 517.648 607.88 L 517.648 607.88 Q 516.892 608.312 516.748 608.312 L 516.748 608.312 L 516.46 607.016 L 516.46 605.72 L 516.1 598.952 L 516.1 598.952 Q 515.956 597.008 515.308 594.776 L 515.308 594.776 L 515.308 594.776 Q 514.66 592.544 514.3 590.24 L 514.3 590.24 L 514.3 590.24 Q 514.084 588.728 513.94 587.36 L 513.94 587.36 L 513.652 584.552 L 513.652 584.552 Q 513.508 583.112 513.328 581.6 L 513.328 581.6 L 513.328 581.6 Q 513.148 580.088 512.788 578.36 L 512.788 578.36 L 512.788 578.36 Q 512.788 577.928 512.824 577.496 L 512.824 577.496 L 512.824 577.496 Q 512.86 577.064 512.86 576.632 L 512.86 576.632 L 512.86 576.632 Q 512.86 574.4 512.5 572.24 L 512.5 572.24 L 512.5 572.24 Q 512.14 570.08 511.492 567.992 L 511.492 567.992 L 511.492 567.992 Q 511.996 567.776 512.428 567.596 L 512.428 567.596 L 512.428 567.596 Q 512.86 567.416 513.22 567.416 L 513.22 567.416 L 513.22 567.416 Q 513.58 567.416 514.012 568.244 L 514.012 568.244 L 514.012 568.244 Q 514.444 569.072 514.948 571.664 L 514.948 571.664 L 514.948 571.664 Q 515.092 571.664 515.38 571.556 L 515.38 571.556 L 515.38 571.556 Q 515.668 571.448 515.812 571.448 L 515.812 571.448 L 515.812 571.448 Q 515.74 570.224 515.452 568.82 L 515.452 568.82 L 515.452 568.82 Q 515.164 567.416 514.876 566.12 L 514.876 566.12 L 514.876 566.12 Q 514.588 564.824 514.336 563.78 L 514.336 563.78 L 514.336 563.78 Q 514.084 562.736 514.084 562.088 L 514.084 562.088 L 514.084 562.088 Q 514.084 561.944 514.12 561.728 L 514.12 561.728 L 514.12 561.728 Q 514.156 561.512 514.444 561.512 L 514.444 561.512 L 514.444 561.512 Q 514.804 561.512 515.38 562.304 L 515.38 562.304 L 515.38 562.304 Q 515.956 563.096 516.604 564.32 L 516.604 564.32 L 516.604 564.32 Q 517.252 565.544 517.864 566.948 L 517.864 566.948 L 517.864 566.948 Q 518.476 568.352 518.98 569.576 L 518.98 569.576 L 518.98 569.576 Q 520.924 565.904 523.408 563.996 L 523.408 563.996 L 523.408 563.996 Q 525.892 562.088 529.924 562.088 L 529.924 562.088 L 529.924 562.088 Q 532.876 562.088 534.748 562.772 L 534.748 562.772 L 534.748 562.772 Q 536.62 563.456 537.664 564.284 L 537.664 564.284 L 537.664 564.284 Q 538.708 565.112 539.068 565.832 L 539.068 565.832 L 539.5 566.552 L 539.5 566.552 Q 539.5 566.984 539.068 567.128 L 539.068 567.128 L 539.068 567.128 Q 537.196 565.328 534.82 564.392 L 534.82 564.392 L 534.82 564.392 Q 532.444 563.456 529.924 563.456 L 529.924 563.456 L 529.924 563.456 Q 527.476 563.456 526.252 564.104 L 526.252 564.104 L 526.252 564.104 Q 525.1 564.68 523.804 565.544 L 523.804 565.544 L 523.804 565.544 Q 525.172 564.68 526.324 564.176 L 526.324 564.176 L 526.324 564.176 Q 527.548 563.672 529.852 563.672 L 529.852 563.672 L 529.852 563.672 Q 532.372 563.672 534.676 564.644 L 534.676 564.644 L 534.676 564.644 Q 536.98 565.616 538.636 567.128 L 538.636 567.128 L 538.636 567.128 Q 538.276 567.272 538.024 567.452 L 538.024 567.452 L 538.024 567.452 Q 537.772 567.632 537.772 567.992 L 537.772 567.992 L 537.772 567.992 Q 538.132 567.992 538.564 568.46 L 538.564 568.46 L 538.564 568.46 Q 538.996 568.928 539.356 569.576 L 539.356 569.576 L 539.356 569.576 Q 539.716 570.224 539.968 570.908 L 539.968 570.908 L 539.968 570.908 Q 540.22 571.592 540.22 572.024 L 540.22 572.024 L 540.22 572.024 Q 540.22 573.248 539.284 573.248 L 539.284 573.248 L 539.284 573.248 Q 538.564 573.248 537.556 572.744 L 537.556 572.744 L 537.556 572.744 Q 537.34 572.672 536.656 571.952 L 536.656 571.952 L 536.656 571.952 Q 535.972 571.232 534.964 570.476 L 534.964 570.476 L 534.964 570.476 Q 533.956 569.72 532.66 569.072 L 532.66 569.072 L 532.66 569.072 Q 531.364 568.424 529.78 568.424 L 529.78 568.424 L 529.78 568.424 Q 528.484 568.424 527.512 568.964 L 527.512 568.964 L 527.512 568.964 Q 526.54 569.504 525.748 570.404 L 525.748 570.404 L 525.748 570.404 Q 524.956 571.304 524.308 572.456 L 524.308 572.456 L 523.372 574.184 L 523.372 574.184 Q 524.452 572.24 525.748 570.656 L 525.748 570.656 L 525.748 570.656 Q 527.188 568.784 529.348 568.784 L 529.348 568.784 L 529.348 568.784 Q 531.22 568.784 532.804 569.612 L 532.804 569.612 L 532.804 569.612 Q 534.388 570.44 535.396 571.664 L 535.396 571.664 L 535.396 571.664 Q 534.172 571.16 532.516 570.656 L 532.516 570.656 L 532.516 570.656 Q 530.86 570.152 529.348 570.152 L 529.348 570.152 L 529.348 570.152 Q 528.556 570.152 527.98 570.512 L 527.98 570.512 L 527.98 570.512 Q 527.404 570.872 527.008 571.412 L 527.008 571.412 L 527.008 571.412 Q 526.612 571.952 526.288 572.6 L 526.288 572.6 L 526.288 572.6 Q 525.964 573.248 525.604 573.824 L 525.604 573.824 L 524.668 573.968 L 524.668 573.968 Q 523.444 576.056 522.688 578.828 L 522.688 578.828 L 522.688 578.828 Q 521.932 581.6 521.932 584.624 L 521.932 584.624 L 521.932 584.624 Q 521.932 586.424 522.112 587.864 L 522.112 587.864 L 522.112 587.864 Q 522.292 589.304 522.652 590.816 L 522.652 590.816 L 523.516 593.048 L 523.372 590.96 L 523.372 590.96 Q 523.228 588.512 523.084 586.604 L 523.084 586.604 L 523.084 586.604 Q 522.94 584.696 522.94 582.392 L 522.94 582.392 L 522.94 582.392 Q 523.084 580.304 523.516 578.432 L 523.516 578.432 L 523.516 578.432 Q 523.876 576.848 524.596 575.48 L 524.596 575.48 L 524.596 575.48 Q 523.732 577.208 523.444 579.44 L 523.444 579.44 L 523.444 579.44 Q 523.084 581.888 523.084 584.624 L 523.084 584.624 L 523.084 584.624 Q 523.084 586.784 523.3 588.728 L 523.3 588.728 L 523.3 588.728 Q 523.516 590.672 523.84 592.616 L 523.84 592.616 L 523.84 592.616 Q 524.164 594.56 524.524 596.612 L 524.524 596.612 L 524.524 596.612 Q 524.884 598.664 525.1 601.112 L 525.1 601.112 L 525.316 602.48 L 525.748 606.584 L 525.748 606.584 Z  M 524.596 575.48 L 524.812 575.12 L 524.596 575.48 L 524.596 575.48 Z  M 558.076 606.584 L 556.276 607.304 L 556.276 607.304 Q 555.556 607.448 554.692 607.448 L 554.692 607.448 L 552.604 607.448 L 552.604 607.448 Q 550.732 607.448 549.976 607.88 L 549.976 607.88 L 549.976 607.88 Q 549.22 608.312 549.076 608.312 L 549.076 608.312 L 548.788 607.016 L 548.788 605.72 L 548.428 598.952 L 548.428 598.952 Q 548.284 597.008 547.636 594.776 L 547.636 594.776 L 547.636 594.776 Q 546.988 592.544 546.628 590.24 L 546.628 590.24 L 546.628 590.24 Q 546.412 588.728 546.268 587.36 L 546.268 587.36 L 545.98 584.552 L 545.98 584.552 Q 545.836 583.112 545.656 581.6 L 545.656 581.6 L 545.656 581.6 Q 545.476 580.088 545.116 578.36 L 545.116 578.36 L 545.116 578.36 Q 545.116 577.928 545.152 577.496 L 545.152 577.496 L 545.152 577.496 Q 545.188 577.064 545.188 576.632 L 545.188 576.632 L 545.188 576.632 Q 545.188 574.4 544.828 572.24 L 544.828 572.24 L 544.828 572.24 Q 544.468 570.08 543.82 567.992 L 543.82 567.992 L 543.82 567.992 Q 544.324 567.776 544.756 567.596 L 544.756 567.596 L 544.756 567.596 Q 545.188 567.416 545.548 567.416 L 545.548 567.416 L 545.548 567.416 Q 545.908 567.416 546.34 568.244 L 546.34 568.244 L 546.34 568.244 Q 546.772 569.072 547.276 571.664 L 547.276 571.664 L 547.276 571.664 Q 547.42 571.664 547.708 571.556 L 547.708 571.556 L 547.708 571.556 Q 547.996 571.448 548.14 571.448 L 548.14 571.448 L 548.14 571.448 Q 548.068 570.224 547.78 568.82 L 547.78 568.82 L 547.78 568.82 Q 547.492 567.416 547.204 566.12 L 547.204 566.12 L 547.204 566.12 Q 546.916 564.824 546.664 563.78 L 546.664 563.78 L 546.664 563.78 Q 546.412 562.736 546.412 562.088 L 546.412 562.088 L 546.412 562.088 Q 546.412 561.944 546.448 561.728 L 546.448 561.728 L 546.448 561.728 Q 546.484 561.512 546.772 561.512 L 546.772 561.512 L 546.772 561.512 Q 547.132 561.512 547.708 562.304 L 547.708 562.304 L 547.708 562.304 Q 548.284 563.096 548.932 564.32 L 548.932 564.32 L 548.932 564.32 Q 549.58 565.544 550.192 566.948 L 550.192 566.948 L 550.192 566.948 Q 550.804 568.352 551.308 569.576 L 551.308 569.576 L 551.308 569.576 Q 553.252 565.904 555.736 563.996 L 555.736 563.996 L 555.736 563.996 Q 558.22 562.088 562.252 562.088 L 562.252 562.088 L 562.252 562.088 Q 565.204 562.088 567.076 562.772 L 567.076 562.772 L 567.076 562.772 Q 568.948 563.456 569.992 564.284 L 569.992 564.284 L 569.992 564.284 Q 571.036 565.112 571.396 565.832 L 571.396 565.832 L 571.828 566.552 L 571.828 566.552 Q 571.828 566.984 571.396 567.128 L 571.396 567.128 L 571.396 567.128 Q 569.524 565.328 567.148 564.392 L 567.148 564.392 L 567.148 564.392 Q 564.772 563.456 562.252 563.456 L 562.252 563.456 L 562.252 563.456 Q 559.804 563.456 558.58 564.104 L 558.58 564.104 L 558.58 564.104 Q 557.428 564.68 556.132 565.544 L 556.132 565.544 L 556.132 565.544 Q 557.5 564.68 558.652 564.176 L 558.652 564.176 L 558.652 564.176 Q 559.876 563.672 562.18 563.672 L 562.18 563.672 L 562.18 563.672 Q 564.7 563.672 567.004 564.644 L 567.004 564.644 L 567.004 564.644 Q 569.308 565.616 570.964 567.128 L 570.964 567.128 L 570.964 567.128 Q 570.604 567.272 570.352 567.452 L 570.352 567.452 L 570.352 567.452 Q 570.1 567.632 570.1 567.992 L 570.1 567.992 L 570.1 567.992 Q 570.46 567.992 570.892 568.46 L 570.892 568.46 L 570.892 568.46 Q 571.324 568.928 571.684 569.576 L 571.684 569.576 L 571.684 569.576 Q 572.044 570.224 572.296 570.908 L 572.296 570.908 L 572.296 570.908 Q 572.548 571.592 572.548 572.024 L 572.548 572.024 L 572.548 572.024 Q 572.548 573.248 571.612 573.248 L 571.612 573.248 L 571.612 573.248 Q 570.892 573.248 569.884 572.744 L 569.884 572.744 L 569.884 572.744 Q 569.668 572.672 568.984 571.952 L 568.984 571.952 L 568.984 571.952 Q 568.3 571.232 567.292 570.476 L 567.292 570.476 L 567.292 570.476 Q 566.284 569.72 564.988 569.072 L 564.988 569.072 L 564.988 569.072 Q 563.692 568.424 562.108 568.424 L 562.108 568.424 L 562.108 568.424 Q 560.812 568.424 559.84 568.964 L 559.84 568.964 L 559.84 568.964 Q 558.868 569.504 558.076 570.404 L 558.076 570.404 L 558.076 570.404 Q 557.284 571.304 556.636 572.456 L 556.636 572.456 L 555.7 574.184 L 555.7 574.184 Q 556.78 572.24 558.076 570.656 L 558.076 570.656 L 558.076 570.656 Q 559.516 568.784 561.676 568.784 L 561.676 568.784 L 561.676 568.784 Q 563.548 568.784 565.132 569.612 L 565.132 569.612 L 565.132 569.612 Q 566.716 570.44 567.724 571.664 L 567.724 571.664 L 567.724 571.664 Q 566.5 571.16 564.844 570.656 L 564.844 570.656 L 564.844 570.656 Q 563.188 570.152 561.676 570.152 L 561.676 570.152 L 561.676 570.152 Q 560.884 570.152 560.308 570.512 L 560.308 570.512 L 560.308 570.512 Q 559.732 570.872 559.336 571.412 L 559.336 571.412 L 559.336 571.412 Q 558.94 571.952 558.616 572.6 L 558.616 572.6 L 558.616 572.6 Q 558.292 573.248 557.932 573.824 L 557.932 573.824 L 556.996 573.968 L 556.996 573.968 Q 555.772 576.056 555.016 578.828 L 555.016 578.828 L 555.016 578.828 Q 554.26 581.6 554.26 584.624 L 554.26 584.624 L 554.26 584.624 Q 554.26 586.424 554.44 587.864 L 554.44 587.864 L 554.44 587.864 Q 554.62 589.304 554.98 590.816 L 554.98 590.816 L 555.844 593.048 L 555.7 590.96 L 555.7 590.96 Q 555.556 588.512 555.412 586.604 L 555.412 586.604 L 555.412 586.604 Q 555.268 584.696 555.268 582.392 L 555.268 582.392 L 555.268 582.392 Q 555.412 580.304 555.844 578.432 L 555.844 578.432 L 555.844 578.432 Q 556.204 576.848 556.924 575.48 L 556.924 575.48 L 556.924 575.48 Q 556.06 577.208 555.772 579.44 L 555.772 579.44 L 555.772 579.44 Q 555.412 581.888 555.412 584.624 L 555.412 584.624 L 555.412 584.624 Q 555.412 586.784 555.628 588.728 L 555.628 588.728 L 555.628 588.728 Q 555.844 590.672 556.168 592.616 L 556.168 592.616 L 556.168 592.616 Q 556.492 594.56 556.852 596.612 L 556.852 596.612 L 556.852 596.612 Q 557.212 598.664 557.428 601.112 L 557.428 601.112 L 557.644 602.48 L 558.076 606.584 L 558.076 606.584 Z  M 556.924 575.48 L 557.14 575.12 L 556.924 575.48 L 556.924 575.48 Z  M 591.412 563.168 L 591.412 563.168 L 591.412 563.168 Q 591.484 563.528 592.204 563.528 L 592.204 563.528 L 592.348 563.528 L 592.348 563.528 Q 592.78 563.528 592.924 563.6 L 592.924 563.6 L 592.924 563.6 Q 596.668 564.752 600.376 566.948 L 600.376 566.948 L 600.376 566.948 Q 604.084 569.144 607.072 572.204 L 607.072 572.204 L 607.072 572.204 Q 610.06 575.264 611.896 579.152 L 611.896 579.152 L 611.896 579.152 Q 613.732 583.04 613.732 587.504 L 613.732 587.504 L 613.732 587.504 Q 613.732 591.392 612.22 594.992 L 612.22 594.992 L 612.22 594.992 Q 610.708 598.592 608.044 601.256 L 608.044 601.256 L 608.044 601.256 Q 610.78 598.88 612.4 595.316 L 612.4 595.316 L 612.4 595.316 Q 614.02 591.752 614.02 587.648 L 614.02 587.648 L 614.02 587.648 Q 614.02 583.04 612.076 579.044 L 612.076 579.044 L 612.076 579.044 Q 610.132 575.048 607.108 571.88 L 607.108 571.88 L 607.108 571.88 Q 604.084 568.712 600.376 566.444 L 600.376 566.444 L 600.376 566.444 Q 596.668 564.176 593.14 562.952 L 593.14 562.952 L 593.14 562.952 Q 595.876 562.952 598.72 564.176 L 598.72 564.176 L 598.72 564.176 Q 601.564 565.4 604.156 567.38 L 604.156 567.38 L 604.156 567.38 Q 606.748 569.36 608.944 571.916 L 608.944 571.916 L 608.944 571.916 Q 611.14 574.472 612.652 577.136 L 612.652 577.136 L 612.148 577.856 L 612.148 577.856 Q 613.588 580.016 614.344 582.536 L 614.344 582.536 L 614.344 582.536 Q 615.1 585.056 615.1 587.72 L 615.1 587.72 L 615.1 587.72 Q 615.1 592.832 612.904 596.684 L 612.904 596.684 L 612.904 596.684 Q 610.708 600.536 607.36 603.092 L 607.36 603.092 L 607.36 603.092 Q 604.012 605.648 600.016 606.944 L 600.016 606.944 L 600.016 606.944 Q 596.02 608.24 592.492 608.24 L 592.492 608.24 L 592.492 608.24 Q 590.476 608.24 588.424 607.808 L 588.424 607.808 L 588.424 607.808 Q 586.372 607.376 584.284 606.368 L 584.284 606.368 L 584.284 606.8 L 584.284 606.8 Q 586.3 607.952 588.424 608.384 L 588.424 608.384 L 588.424 608.384 Q 590.548 608.816 592.636 608.816 L 592.636 608.816 L 592.636 608.816 Q 597.82 608.816 602.824 606.548 L 602.824 606.548 L 602.824 606.548 Q 607.828 604.28 611.284 600.176 L 611.284 600.176 L 611.284 600.176 Q 607.972 604.424 603.04 606.8 L 603.04 606.8 L 603.04 606.8 Q 598.108 609.176 592.78 609.176 L 592.78 609.176 L 592.78 609.176 Q 587.308 609.176 583.924 607.052 L 583.924 607.052 L 583.924 607.052 Q 580.54 604.928 578.632 601.832 L 578.632 601.832 L 578.632 601.832 Q 576.724 598.736 576.076 595.28 L 576.076 595.28 L 576.076 595.28 Q 575.428 591.824 575.428 589.088 L 575.428 589.088 L 575.428 589.088 Q 575.428 585.416 576.4 581.888 L 576.4 581.888 L 576.4 581.888 Q 577.372 578.36 579.388 575.408 L 579.388 575.408 L 579.388 575.408 Q 581.404 572.456 584.572 570.332 L 584.572 570.332 L 584.572 570.332 Q 587.74 568.208 592.204 567.344 L 592.204 567.344 L 590.116 566.84 L 590.116 566.84 Q 588.604 566.48 587.956 565.976 L 587.956 565.976 L 587.956 565.976 Q 587.308 565.472 587.308 565.112 L 587.308 565.112 L 587.308 565.112 Q 587.308 564.536 588.568 563.852 L 588.568 563.852 L 588.568 563.852 Q 589.828 563.168 591.412 563.168 Z  M 587.74 571.592 L 588.172 572.24 L 588.172 572.24 Q 590.116 571.52 591.916 571.52 L 591.916 571.52 L 591.916 571.52 Q 593.716 571.52 594.688 572.06 L 594.688 572.06 L 594.688 572.06 Q 595.66 572.6 595.66 573.176 L 595.66 573.176 L 595.66 573.176 Q 595.66 573.536 594.832 573.968 L 594.832 573.968 L 594.832 573.968 Q 594.004 574.4 592.744 575.156 L 592.744 575.156 L 592.744 575.156 Q 591.484 575.912 590.008 577.064 L 590.008 577.064 L 590.008 577.064 Q 588.532 578.216 587.272 579.98 L 587.272 579.98 L 587.272 579.98 Q 586.012 581.744 585.184 584.264 L 585.184 584.264 L 585.184 584.264 Q 584.356 586.784 584.356 590.168 L 584.356 590.168 L 584.356 590.168 Q 584.356 595.136 586.588 597.656 L 586.588 597.656 L 586.588 597.656 Q 588.82 600.176 592.78 600.176 L 592.78 600.176 L 592.78 600.176 Q 595.3 600.176 597.928 599.312 L 597.928 599.312 L 597.928 599.312 Q 600.556 598.448 602.68 596.864 L 602.68 596.864 L 602.68 596.864 Q 604.804 595.28 606.136 592.976 L 606.136 592.976 L 606.136 592.976 Q 607.468 590.672 607.468 587.792 L 607.468 587.792 L 607.468 587.792 Q 607.468 585.632 606.712 583.472 L 606.712 583.472 L 606.712 583.472 Q 605.956 581.312 604.624 579.332 L 604.624 579.332 L 604.624 579.332 Q 603.292 577.352 601.456 575.624 L 601.456 575.624 L 601.456 575.624 Q 599.62 573.896 597.46 572.672 L 597.46 572.672 L 597.46 572.672 Q 595.372 571.52 594.04 570.908 L 594.04 570.908 L 594.04 570.908 Q 592.708 570.296 592.132 569.72 L 592.132 569.72 L 592.132 569.72 Q 591.556 570.008 590.512 570.404 L 590.512 570.404 L 590.512 570.404 Q 589.468 570.8 587.74 571.592 L 587.74 571.592 L 587.74 571.592 Z  M 593.284 568.352 L 592.996 568.856 L 592.996 568.856 Q 596.308 569.936 599.332 572.096 L 599.332 572.096 L 599.332 572.096 Q 601.924 574.04 604.084 576.344 L 604.084 576.344 L 604.084 576.344 Q 601.996 573.896 599.548 571.952 L 599.548 571.952 L 599.548 571.952 Q 596.74 569.648 593.284 568.352 L 593.284 568.352 L 593.284 568.352 Z  M 606.964 593.408 L 606.964 593.408 L 606.964 593.408 Q 605.884 595.712 603.94 597.512 L 603.94 597.512 L 603.94 597.512 Q 605.236 596.648 606.136 595.424 L 606.136 595.424 L 606.136 595.424 Q 607.036 594.2 607.612 592.976 L 607.612 592.976 L 607.612 592.976 Q 608.188 591.752 608.476 590.744 L 608.476 590.744 L 608.476 590.744 Q 608.692 589.808 608.836 589.232 L 608.836 589.232 L 608.836 589.232 Q 608.044 591.104 606.964 593.408 Z  M 611.788 599.6 L 611.788 599.6 L 611.788 599.6 Q 611.716 599.744 611.572 599.888 L 611.572 599.888 L 611.572 599.888 Q 611.5 599.96 611.428 599.96 L 611.428 599.96 L 611.428 599.96 Q 611.356 599.96 611.788 599.204 L 611.788 599.204 L 611.788 599.204 Q 612.22 598.448 612.832 597.404 L 612.832 597.404 L 612.832 597.404 Q 613.444 596.36 614.02 595.208 L 614.02 595.208 L 614.02 595.208 Q 614.524 594.344 614.74 593.696 L 614.74 593.696 L 614.74 593.696 Q 613.732 596.792 611.788 599.6 Z  M 615.82 587.936 L 615.82 587.936 L 615.82 587.936 Q 615.82 589.088 615.676 590.204 L 615.676 590.204 L 615.676 590.204 Q 615.532 591.32 615.172 592.256 L 615.172 592.256 L 615.172 592.256 Q 615.676 590.456 615.676 588.224 L 615.676 588.224 L 615.676 588.224 Q 615.676 586.568 615.388 584.984 L 615.388 584.984 L 615.388 584.984 Q 615.172 583.616 614.812 582.32 L 614.812 582.32 L 614.812 582.32 Q 615.172 583.616 615.46 584.912 L 615.46 584.912 L 615.46 584.912 Q 615.82 586.352 615.82 587.936 Z  M 592.492 568.784 L 592.996 567.704 L 592.348 567.416 L 592.348 567.416 Q 592.276 567.56 592.132 567.704 L 592.132 567.704 L 592.132 567.704 Q 591.988 567.848 591.988 567.992 L 591.988 567.992 L 591.988 567.992 Q 591.988 568.136 592.168 568.388 L 592.168 568.388 L 592.168 568.388 Q 592.348 568.64 592.492 568.784 L 592.492 568.784 L 592.492 568.784 Z  M 604.516 576.848 L 604.516 576.848 L 604.516 576.848 Q 604.3 576.56 604.084 576.344 L 604.084 576.344 L 604.084 576.344 Q 604.3 576.632 604.516 576.848 Z  M 614.74 593.696 L 614.74 593.696 L 614.74 593.696 Q 614.812 593.552 614.812 593.408 L 614.812 593.408 L 614.812 593.408 Q 614.812 593.552 614.74 593.696 Z  M 614.884 593.264 L 614.884 593.264 L 614.884 593.264 Q 614.812 593.336 614.812 593.408 L 614.812 593.408 L 614.812 593.408 Q 614.812 593.336 614.884 593.264 Z  M 347.332 552.44 L 347.116 553.952 L 347.116 553.952 Q 347.26 556.04 347.332 558.02 L 347.332 558.02 L 347.332 558.02 Q 347.404 560 347.404 562.088 L 347.404 562.088 L 347.404 562.088 Q 347.404 566.408 347.152 570.764 L 347.152 570.764 L 347.152 570.764 Q 346.9 575.12 346.54 579.584 L 346.54 579.584 L 346.54 579.584 Q 346.18 584.048 345.82 588.728 L 345.82 588.728 L 345.82 588.728 Q 345.46 593.408 345.172 598.448 L 345.172 598.448 L 345.172 598.448 Q 345.172 599.24 345.136 600.068 L 345.136 600.068 L 345.136 600.068 Q 345.1 600.896 344.956 601.904 L 344.956 601.904 L 344.956 602.768 L 344.956 602.768 Q 344.956 602.984 344.812 603.344 L 344.812 603.344 L 344.812 603.344 Q 344.668 603.704 344.524 603.848 L 344.524 603.848 L 344.524 603.848 Q 343.588 604.928 342.832 605.468 L 342.832 605.468 L 342.832 605.468 Q 342.076 606.008 341.428 606.26 L 341.428 606.26 L 341.428 606.26 Q 340.78 606.512 340.204 606.548 L 340.204 606.548 L 340.204 606.548 Q 339.628 606.584 339.052 606.656 L 339.052 606.656 L 339.484 606.656 L 339.484 606.656 Q 339.7 606.656 340.312 606.584 L 340.312 606.584 L 340.312 606.584 Q 340.924 606.512 341.68 606.332 L 341.68 606.332 L 341.68 606.332 Q 342.436 606.152 343.12 605.828 L 343.12 605.828 L 343.12 605.828 Q 343.804 605.504 344.092 604.928 L 344.092 604.928 L 344.74 603.632 L 344.74 603.632 Q 345.172 602.84 345.28 601.94 L 345.28 601.94 L 345.28 601.94 Q 345.388 601.04 345.424 600.14 L 345.424 600.14 L 345.424 600.14 Q 345.46 599.24 345.46 598.376 L 345.46 598.376 L 345.46 598.376 Q 345.46 597.512 345.604 596.72 L 345.604 596.72 L 345.604 596.72 Q 345.82 592.184 346.216 587.648 L 346.216 587.648 L 346.216 587.648 Q 346.612 583.112 346.972 578.504 L 346.972 578.504 L 346.972 578.504 Q 347.332 573.896 347.62 569.18 L 347.62 569.18 L 347.62 569.18 Q 347.908 564.464 347.908 559.568 L 347.908 559.568 L 347.908 559.568 Q 347.908 558.056 347.872 556.652 L 347.872 556.652 L 347.872 556.652 Q 347.836 555.248 347.764 553.952 L 347.764 553.952 L 347.764 553.952 Q 347.98 554.24 348.232 554.852 L 348.232 554.852 L 348.232 554.852 Q 348.484 555.464 348.628 556.76 L 348.628 556.76 L 348.628 556.76 Q 348.988 557.552 349.06 558.488 L 349.06 558.488 L 349.06 558.488 Q 349.132 559.424 349.276 560.432 L 349.276 560.432 L 349.276 560.432 Q 349.276 565.328 348.916 569.9 L 348.916 569.9 L 348.916 569.9 Q 348.556 574.472 348.196 579.008 L 348.196 579.008 L 347.548 579.224 L 346.9 591.536 L 346.9 591.536 Q 346.9 596.72 346.432 600.068 L 346.432 600.068 L 346.432 600.068 Q 345.964 603.416 345.604 604.496 L 345.604 604.496 L 345.604 604.712 L 345.604 604.712 Q 344.524 605.792 343.768 606.332 L 343.768 606.332 L 343.768 606.332 Q 343.012 606.872 342.364 607.16 L 342.364 607.16 L 342.364 607.16 Q 341.716 607.448 341.176 607.484 L 341.176 607.484 L 341.176 607.484 Q 340.636 607.52 340.06 607.52 L 340.06 607.52 L 335.452 607.52 L 335.452 607.52 Q 333.508 607.304 331.276 607.34 L 331.276 607.34 L 331.276 607.34 Q 329.044 607.376 326.596 606.872 L 326.596 606.872 L 326.596 606.872 Q 324.148 606.368 321.592 604.784 L 321.592 604.784 L 321.592 604.784 Q 319.036 603.2 316.444 599.744 L 316.444 599.744 L 316.444 599.744 Q 316.444 599.888 316.372 599.96 L 316.372 599.96 L 316.372 599.96 Q 316.3 600.032 316.228 600.176 L 316.228 600.176 L 316.228 600.176 Q 318.604 603.416 321.952 605.504 L 321.952 605.504 L 321.952 605.504 Q 325.3 607.592 329.188 607.952 L 329.188 607.952 L 335.236 607.952 L 335.236 607.952 Q 336.1 608.096 337 608.132 L 337 608.132 L 337 608.132 Q 337.9 608.168 338.98 608.168 L 338.98 608.168 L 338.98 608.168 Q 340.06 608.168 341.824 607.88 L 341.824 607.88 L 341.824 607.88 Q 343.588 607.592 345.172 606.008 L 345.172 606.008 L 345.172 606.008 Q 345.46 605.648 345.568 605.468 L 345.568 605.468 L 345.568 605.468 Q 345.676 605.288 345.82 604.928 L 345.82 604.928 L 346.036 604.496 L 346.036 604.496 Q 346.396 603.848 346.576 603.164 L 346.576 603.164 L 346.576 603.164 Q 346.756 602.48 346.9 601.832 L 346.9 601.832 L 346.9 601.832 Q 346.9 602.624 346.792 603.2 L 346.792 603.2 L 346.792 603.2 Q 346.684 603.776 346.252 604.928 L 346.252 604.928 L 346.036 605.144 L 345.172 606.44 L 345.172 606.44 Q 344.524 607.088 343.732 607.448 L 343.732 607.448 L 343.732 607.448 Q 342.94 607.808 342.22 607.988 L 342.22 607.988 L 342.22 607.988 Q 341.5 608.168 340.888 608.24 L 340.888 608.24 L 340.888 608.24 Q 340.276 608.312 339.988 608.384 L 339.988 608.384 L 337.612 608.384 L 337.612 608.384 Q 336.676 608.384 336.064 608.348 L 336.064 608.348 L 336.064 608.348 Q 335.452 608.312 335.128 608.276 L 335.128 608.276 L 335.128 608.276 Q 334.804 608.24 334.588 608.168 L 334.588 608.168 L 332.428 608.168 L 332.428 608.168 Q 331.78 608.168 331.132 608.204 L 331.132 608.204 L 331.132 608.204 Q 330.484 608.24 329.764 608.24 L 329.764 608.24 L 329.764 608.24 Q 326.38 608.24 323.176 606.62 L 323.176 606.62 L 323.176 606.62 Q 319.972 605 317.272 602.048 L 317.272 602.048 L 317.272 602.048 Q 314.572 599.096 312.484 595.064 L 312.484 595.064 L 312.484 595.064 Q 310.396 591.032 309.316 586.136 L 309.316 586.136 L 309.316 586.136 Q 309.316 585.344 309.208 584.624 L 309.208 584.624 L 309.208 584.624 Q 309.1 583.904 309.1 583.112 L 309.1 583.112 L 309.1 583.112 Q 309.1 580.448 309.928 577.676 L 309.928 577.676 L 309.928 577.676 Q 310.756 574.904 312.916 572.672 L 312.916 572.672 L 312.916 572.672 Q 315.076 570.44 318.748 569.036 L 318.748 569.036 L 318.748 569.036 Q 322.42 567.632 328.036 567.632 L 328.036 567.632 L 328.036 567.632 Q 330.628 567.632 333.076 567.74 L 333.076 567.74 L 333.076 567.74 Q 335.524 567.848 338.044 567.992 L 338.044 567.992 L 338.044 567.992 Q 337.756 568.208 337.756 568.496 L 337.756 568.496 L 337.756 568.496 Q 337.756 568.856 337.9 569.108 L 337.9 569.108 L 337.9 569.108 Q 338.044 569.36 338.044 569.648 L 338.044 569.648 L 338.044 569.648 Q 338.044 570.008 337.504 570.26 L 337.504 570.26 L 337.504 570.26 Q 336.964 570.512 335.236 570.512 L 335.236 570.512 L 335.236 570.512 Q 334.66 570.512 333.904 570.476 L 333.904 570.476 L 333.904 570.476 Q 333.148 570.44 332.212 570.368 L 332.212 570.368 L 332.212 571.016 L 332.212 571.016 Q 335.668 571.52 337.792 572.348 L 337.792 572.348 L 337.792 572.348 Q 339.916 573.176 340.42 573.824 L 340.42 573.824 L 340.564 573.968 L 340.852 570.8 L 340.852 570.8 Q 341.068 568.856 341.068 566.408 L 341.068 566.408 L 341.068 566.408 Q 341.068 563.888 340.924 561.44 L 340.924 561.44 L 340.924 561.44 Q 340.78 558.992 340.78 557.624 L 340.78 557.624 L 340.78 557.624 Q 340.78 555.896 340.996 555.32 L 340.996 555.32 L 340.996 555.32 Q 341.212 554.744 341.572 554.744 L 341.572 554.744 L 341.572 554.744 Q 341.86 554.744 342.04 555.968 L 342.04 555.968 L 342.04 555.968 Q 342.22 557.192 342.328 558.74 L 342.328 558.74 L 342.328 558.74 Q 342.436 560.288 342.436 561.8 L 342.436 561.8 L 342.436 563.888 L 342.436 563.888 Q 342.436 565.976 342.364 568.1 L 342.364 568.1 L 342.364 568.1 Q 342.292 570.224 342.148 572.312 L 342.148 572.312 L 342.148 572.312 Q 342.364 569.576 342.508 566.948 L 342.508 566.948 L 342.508 566.948 Q 342.652 564.32 342.652 561.584 L 342.652 561.584 L 342.652 561.584 Q 342.652 559.928 342.58 558.308 L 342.58 558.308 L 342.58 558.308 Q 342.508 556.688 342.364 555.032 L 342.364 555.032 L 342.364 555.032 Q 342.796 555.464 343.012 555.464 L 343.012 555.464 L 343.012 555.464 Q 343.3 555.464 343.444 555.032 L 343.444 555.032 L 343.444 555.032 Q 343.372 554.456 343.3 553.808 L 343.3 553.808 L 343.3 553.808 Q 343.228 553.232 343.228 552.656 L 343.228 552.656 L 343.228 551.576 L 343.228 551.576 Q 343.588 550.712 344.164 550.244 L 344.164 550.244 L 344.164 550.244 Q 344.74 549.776 345.172 549.776 L 345.172 549.776 L 345.172 549.776 Q 346.396 549.776 347.332 552.44 L 347.332 552.44 L 347.332 552.44 Z  M 335.452 575.552 L 335.452 575.552 L 335.452 575.552 Q 333.076 575.696 330.088 575.84 L 330.088 575.84 L 330.088 575.84 Q 327.1 575.984 324.436 576.596 L 324.436 576.596 L 324.436 576.596 Q 321.772 577.208 319.864 578.432 L 319.864 578.432 L 319.864 578.432 Q 317.956 579.656 317.74 581.816 L 317.74 581.816 L 317.74 581.816 Q 317.74 584.192 318.748 587.144 L 318.748 587.144 L 318.748 587.144 Q 319.756 590.096 321.412 592.724 L 321.412 592.724 L 321.412 592.724 Q 323.068 595.352 325.192 597.224 L 325.192 597.224 L 325.192 597.224 Q 327.316 599.096 329.62 599.312 L 329.62 599.312 L 333.724 599.312 L 333.724 599.312 Q 334.084 599.312 334.264 599.348 L 334.264 599.348 L 334.264 599.348 Q 334.444 599.384 334.804 599.528 L 334.804 599.528 L 336.532 599.528 L 336.532 599.528 Q 337.612 599.744 338.692 599.744 L 338.692 599.744 L 338.692 599.744 Q 338.692 593.696 339.232 587.324 L 339.232 587.324 L 339.232 587.324 Q 339.772 580.952 340.42 574.832 L 340.42 574.832 L 340.42 574.832 Q 339.484 575.552 335.452 575.552 Z  M 340.636 590.456 L 340.636 590.456 L 340.636 590.456 Q 340.636 591.248 340.528 592.076 L 340.528 592.076 L 340.528 592.076 Q 340.42 592.904 340.42 593.912 L 340.42 593.912 L 340.42 593.912 Q 341.212 589.88 341.356 585.416 L 341.356 585.416 L 341.356 585.416 Q 341.5 580.952 341.716 576.848 L 341.716 576.848 L 341.716 576.848 Q 341.356 580.304 341.176 583.652 L 341.176 583.652 L 341.176 583.652 Q 340.996 587 340.636 590.456 Z  M 346.9 598.232 L 346.9 598.232 L 346.9 598.232 Q 346.9 597.44 346.972 596.612 L 346.972 596.612 L 346.972 596.612 Q 347.044 595.784 347.188 594.848 L 347.188 594.848 L 347.188 594.848 Q 347.116 597.008 347.116 598.916 L 347.116 598.916 L 347.116 598.916 Q 347.116 600.824 346.9 601.616 L 346.9 601.616 L 346.9 601.616 Q 346.9 601.256 346.936 600.932 L 346.936 600.932 L 346.936 600.932 Q 346.972 600.608 346.972 600.248 L 346.972 600.248 L 346.972 600.248 Q 346.972 599.672 346.936 599.168 L 346.936 599.168 L 346.936 599.168 Q 346.9 598.664 346.9 598.232 Z  M 347.836 583.976 L 347.98 586.568 L 347.98 586.568 Q 347.836 586.928 347.764 587.396 L 347.764 587.396 L 347.764 587.396 Q 347.692 587.864 347.548 588.368 L 347.548 588.368 L 347.836 583.976 L 347.836 583.976 Z  M 347.476 589.088 L 347.332 592.184 L 347.332 592.184 Q 347.332 592.832 347.296 593.48 L 347.296 593.48 L 347.296 593.48 Q 347.26 594.128 347.188 594.704 L 347.188 594.704 L 347.188 594.704 Q 347.188 593.264 347.26 591.788 L 347.26 591.788 L 347.26 591.788 Q 347.332 590.312 347.476 589.088 L 347.476 589.088 L 347.476 589.088 Z  M 340.204 595.208 L 340.204 596.648 L 340.204 596.648 Q 340.276 596.36 340.276 596.072 L 340.276 596.072 L 340.276 596.072 Q 340.276 595.784 340.42 595.424 L 340.42 595.424 L 340.42 594.632 L 340.42 594.632 Q 340.348 594.776 340.348 594.884 L 340.348 594.884 L 340.348 594.884 Q 340.348 594.992 340.276 595.064 L 340.276 595.064 L 340.204 595.208 L 340.204 595.208 Z  M 339.916 599.96 L 339.988 600.104 L 339.988 600.104 Q 340.06 599.456 340.132 598.772 L 340.132 598.772 L 340.132 598.772 Q 340.204 598.088 340.204 597.368 L 340.204 597.368 L 340.204 597.152 L 339.916 599.96 L 339.916 599.96 Z  M 382.684 607.808 L 382.684 607.808 L 382.684 607.808 Q 379.948 608.744 378.508 608.852 L 378.508 608.852 L 378.508 608.852 Q 377.068 608.96 375.988 609.032 L 375.988 609.032 L 375.988 609.032 Q 371.956 609.032 368.716 607.52 L 368.716 607.52 L 368.716 607.52 Q 365.476 606.008 363.172 603.416 L 363.172 603.416 L 363.172 603.416 Q 360.868 600.824 359.608 597.332 L 359.608 597.332 L 359.608 597.332 Q 358.348 593.84 358.348 589.88 L 358.348 589.88 L 358.348 589.88 Q 358.348 587.576 358.78 585.092 L 358.78 585.092 L 358.78 585.092 Q 359.212 582.608 360.076 580.196 L 360.076 580.196 L 360.076 580.196 Q 360.94 577.784 362.308 575.696 L 362.308 575.696 L 362.308 575.696 Q 363.604 573.608 365.404 571.952 L 365.404 571.952 L 365.404 571.952 Q 363.532 573.464 362.236 575.552 L 362.236 575.552 L 362.236 575.552 Q 360.868 577.64 359.932 580.052 L 359.932 580.052 L 359.932 580.052 Q 358.996 582.464 358.564 585.02 L 358.564 585.02 L 358.564 585.02 Q 358.132 587.576 358.132 589.952 L 358.132 589.952 L 358.132 589.952 Q 358.132 592.976 359.104 596.396 L 359.104 596.396 L 359.104 596.396 Q 360.076 599.816 362.236 602.732 L 362.236 602.732 L 362.236 602.732 Q 364.396 605.648 367.816 607.592 L 367.816 607.592 L 367.816 607.592 Q 371.236 609.536 376.132 609.536 L 376.132 609.536 L 376.132 609.536 Q 378.436 609.536 380.956 608.888 L 380.956 608.888 L 380.956 608.888 Q 378.22 610.688 374.836 610.688 L 374.836 610.688 L 374.836 610.688 Q 372.1 610.688 369.688 609.86 L 369.688 609.86 L 369.688 609.86 Q 367.276 609.032 365.224 607.556 L 365.224 607.556 L 365.224 607.556 Q 363.172 606.08 361.516 604.064 L 361.516 604.064 L 361.516 604.064 Q 359.86 602.048 358.708 599.744 L 358.708 599.744 L 359.356 599.168 L 359.356 599.168 Q 358.132 596.72 357.592 594.272 L 357.592 594.272 L 357.592 594.272 Q 357.052 591.824 357.052 589.304 L 357.052 589.304 L 357.052 589.304 Q 357.052 585.632 358.096 582.248 L 358.096 582.248 L 358.096 582.248 Q 359.14 578.864 360.868 575.84 L 360.868 575.84 L 362.596 573.464 L 362.596 573.464 Q 363.028 572.672 363.856 571.88 L 363.856 571.88 L 363.856 571.88 Q 364.684 571.088 365.692 570.332 L 365.692 570.332 L 365.692 570.332 Q 366.7 569.576 367.816 568.964 L 367.816 568.964 L 367.816 568.964 Q 368.932 568.352 369.94 567.848 L 369.94 567.848 L 369.94 567.848 Q 372.532 566.552 375.124 565.508 L 375.124 565.508 L 375.124 565.508 Q 377.716 564.464 381.172 563.96 L 381.172 563.96 L 380.884 563.744 L 380.884 563.744 Q 374.26 564.392 369.652 566.948 L 369.652 566.948 L 369.652 566.948 Q 365.044 569.504 362.164 573.176 L 362.164 573.176 L 362.164 573.176 Q 359.284 576.848 357.988 581.204 L 357.988 581.204 L 357.988 581.204 Q 356.692 585.56 356.692 589.736 L 356.692 589.736 L 356.692 589.736 Q 356.692 591.968 357.088 594.236 L 357.088 594.236 L 357.088 594.236 Q 357.484 596.504 358.276 598.736 L 358.276 598.736 L 358.276 598.736 Q 356.476 594.416 356.476 589.592 L 356.476 589.592 L 356.476 589.592 Q 356.476 584.84 358.06 580.16 L 358.06 580.16 L 358.06 580.16 Q 359.644 575.48 363.028 571.52 L 363.028 571.52 L 363.028 571.52 Q 367.348 567.56 372.46 565.436 L 372.46 565.436 L 372.46 565.436 Q 377.572 563.312 382.324 563.312 L 382.324 563.312 L 382.324 563.312 Q 383.836 563.312 385.42 563.816 L 385.42 563.816 L 385.42 563.816 Q 387.004 564.32 388.3 565.364 L 388.3 565.364 L 388.3 565.364 Q 389.596 566.408 390.424 568.064 L 390.424 568.064 L 390.424 568.064 Q 391.252 569.72 391.252 572.096 L 391.252 572.096 L 391.252 572.096 Q 391.252 574.04 390.316 576.848 L 390.316 576.848 L 390.316 576.848 Q 389.38 579.656 387.544 582.284 L 387.544 582.284 L 387.544 582.284 Q 385.708 584.912 382.972 586.748 L 382.972 586.748 L 382.972 586.748 Q 380.236 588.584 376.636 588.584 L 376.636 588.584 L 374.26 588.584 L 374.26 588.584 Q 371.596 588.008 369.4 587.252 L 369.4 587.252 L 369.4 587.252 Q 367.204 586.496 365.26 586.064 L 365.26 586.064 L 365.26 586.064 Q 364.972 587.216 364.936 588.26 L 364.936 588.26 L 364.936 588.26 Q 364.9 589.304 364.9 590.312 L 364.9 590.312 L 364.9 590.312 Q 364.9 592.4 365.368 594.38 L 365.368 594.38 L 365.368 594.38 Q 365.836 596.36 366.844 598.016 L 366.844 598.016 L 366.844 598.016 Q 367.852 599.672 369.4 600.788 L 369.4 600.788 L 369.4 600.788 Q 370.948 601.904 373.18 602.192 L 373.18 602.192 L 373.18 602.192 Q 374.548 602.48 375.556 602.516 L 375.556 602.516 L 375.556 602.516 Q 376.564 602.552 377.248 602.588 L 377.248 602.588 L 377.248 602.588 Q 377.932 602.624 378.256 602.804 L 378.256 602.804 L 378.256 602.804 Q 378.58 602.984 378.58 603.488 L 378.58 603.488 L 378.58 603.488 Q 377.86 603.704 377.104 603.776 L 377.104 603.776 L 377.104 603.776 Q 376.348 603.848 375.556 603.848 L 375.556 603.848 L 375.556 603.848 Q 373.036 603.848 371.02 603.02 L 371.02 603.02 L 371.02 603.02 Q 369.004 602.192 367.564 601.112 L 367.564 601.112 L 367.564 601.112 Q 369.22 602.768 371.524 603.452 L 371.524 603.452 L 371.524 603.452 Q 373.828 604.136 376.06 604.136 L 376.06 604.136 L 376.06 604.136 Q 377.284 604.136 378.58 603.92 L 378.58 603.92 L 378.58 603.92 Q 378.436 604.352 378.436 604.424 L 378.436 604.424 L 378.436 604.424 Q 378.436 604.856 378.796 605 L 378.796 605 L 378.796 605 Q 379.084 604.928 379.804 604.604 L 379.804 604.604 L 379.804 604.604 Q 380.524 604.28 381.28 603.956 L 381.28 603.956 L 381.28 603.956 Q 382.036 603.632 382.756 603.38 L 382.756 603.38 L 382.756 603.38 Q 383.476 603.128 383.764 603.128 L 383.764 603.128 L 383.764 603.128 Q 384.124 603.128 384.412 603.236 L 384.412 603.236 L 384.412 603.236 Q 384.7 603.344 384.7 604.064 L 384.7 604.064 L 384.7 604.064 Q 384.7 604.784 384.196 605.792 L 384.196 605.792 L 384.196 605.792 Q 383.692 606.8 382.684 607.808 Z  M 372.748 579.296 L 372.748 579.296 L 374.332 579.584 L 374.332 579.584 Q 375.124 579.728 375.772 579.728 L 375.772 579.728 L 375.772 579.728 Q 376.492 579.728 377.464 579.26 L 377.464 579.26 L 377.464 579.26 Q 378.436 578.792 379.408 577.928 L 379.408 577.928 L 379.408 577.928 Q 380.38 577.064 381.136 575.768 L 381.136 575.768 L 381.136 575.768 Q 381.892 574.472 382.252 572.816 L 382.252 572.816 L 382.396 572.384 L 382.396 572.384 Q 381.388 572.384 379.372 572.888 L 379.372 572.888 L 379.372 572.888 Q 377.356 573.392 375.196 574.22 L 375.196 574.22 L 375.196 574.22 Q 373.036 575.048 371.164 576.164 L 371.164 576.164 L 371.164 576.164 Q 369.292 577.28 368.572 578.576 L 368.572 578.576 L 368.572 578.576 Q 369.652 578.792 370.696 578.972 L 370.696 578.972 L 370.696 578.972 Q 371.74 579.152 372.748 579.296 Z  M 365.908 583.544 L 369.436 584.624 L 369.436 584.624 Q 369.58 584.48 369.616 584.192 L 369.616 584.192 L 369.616 584.192 Q 369.652 583.904 369.652 583.76 L 369.652 583.76 L 366.268 582.536 L 365.908 583.544 L 365.908 583.544 Z  M 367.42 600.968 L 367.42 600.968 L 367.42 600.968 Q 366.916 600.392 366.412 599.816 L 366.412 599.816 L 366.412 599.816 Q 365.98 599.312 365.692 598.808 L 365.692 598.808 L 365.692 598.808 Q 366.34 600.032 367.42 600.968 Z  M 115.06 592.04 L 115.06 592.04 L 115.06 593.552 L 115.06 593.552 Q 115.06 594.776 115.096 595.964 L 115.096 595.964 L 115.096 595.964 Q 115.132 597.152 115.42 598.16 L 115.42 598.16 L 115.42 598.16 Q 115.06 601.688 114.88 605.216 L 114.88 605.216 L 114.88 605.216 Q 114.7 608.744 114.7 612.272 L 114.7 612.272 L 113.116 612.344 L 113.116 612.344 Q 112.756 612.344 112.576 611.876 L 112.576 611.876 L 112.576 611.876 Q 112.396 611.408 112.288 610.724 L 112.288 610.724 L 112.288 610.724 Q 112.18 610.04 112.144 609.248 L 112.144 609.248 L 112.144 609.248 Q 112.108 608.456 112.108 607.808 L 112.108 607.808 L 112.108 606.368 L 111.388 606.368 L 111.388 606.368 Q 111.388 606.8 111.172 608.24 L 111.172 608.24 L 111.172 608.24 Q 110.956 609.68 110.632 611.264 L 110.632 611.264 L 110.632 611.264 Q 110.308 612.848 109.804 614.108 L 109.804 614.108 L 109.804 614.108 Q 109.3 615.368 108.652 615.368 L 108.652 615.368 L 108.652 615.368 Q 108.148 615.368 107.788 614.396 L 107.788 614.396 L 107.788 614.396 Q 107.428 613.424 107.212 612.2 L 107.212 612.2 L 107.212 612.2 Q 106.996 610.976 106.852 609.86 L 106.852 609.86 L 106.852 609.86 Q 106.708 608.744 106.708 608.384 L 106.708 608.384 L 106.708 608.384 Q 106.06 602.048 106.06 595.676 L 106.06 595.676 L 106.06 595.676 Q 106.06 589.304 105.484 582.968 L 105.484 582.968 L 105.484 582.968 Q 105.268 580.808 104.836 578.756 L 104.836 578.756 L 104.836 578.756 Q 104.404 576.704 103.936 574.616 L 103.936 574.616 L 103.936 574.616 Q 103.468 572.528 103.144 570.44 L 103.144 570.44 L 103.144 570.44 Q 102.82 568.352 102.82 566.048 L 102.82 566.048 L 102.82 566.048 Q 102.82 562.808 104.476 560.972 L 104.476 560.972 L 104.476 560.972 Q 106.132 559.136 108.616 558.2 L 108.616 558.2 L 108.616 558.2 Q 111.1 557.264 113.98 557.048 L 113.98 557.048 L 113.98 557.048 Q 116.86 556.832 119.308 556.832 L 119.308 556.832 L 119.308 556.832 Q 124.276 556.832 129.064 557.552 L 129.064 557.552 L 129.064 557.552 Q 133.852 558.272 137.596 560.36 L 137.596 560.36 L 137.596 560.36 Q 141.34 562.448 143.608 566.228 L 143.608 566.228 L 143.608 566.228 Q 145.876 570.008 145.876 576.056 L 145.876 576.056 L 145.876 576.056 Q 145.876 581.168 144.328 584.984 L 144.328 584.984 L 144.328 584.984 Q 142.78 588.8 139.972 591.32 L 139.972 591.32 L 139.972 591.32 Q 137.164 593.84 133.168 595.1 L 133.168 595.1 L 133.168 595.1 Q 129.172 596.36 124.276 596.36 L 124.276 596.36 L 124.276 596.36 Q 124.06 596.36 123.34 596.324 L 123.34 596.324 L 123.34 596.324 Q 122.62 596.288 121.828 596.18 L 121.828 596.18 L 121.828 596.18 Q 121.036 596.072 120.424 595.82 L 120.424 595.82 L 120.424 595.82 Q 119.812 595.568 119.812 595.136 L 119.812 595.136 L 120.028 594.632 L 120.028 594.632 Q 121.252 594.704 122.476 594.74 L 122.476 594.74 L 122.476 594.74 Q 123.7 594.776 124.924 594.776 L 124.924 594.776 L 124.924 594.776 Q 127.084 594.776 129.208 594.56 L 129.208 594.56 L 129.208 594.56 Q 131.332 594.344 133.348 593.696 L 133.348 593.696 L 133.348 593.696 Q 135.364 593.048 137.092 591.896 L 137.092 591.896 L 137.092 591.896 Q 138.676 590.816 140.044 589.16 L 140.044 589.16 L 140.044 589.16 Q 138.604 590.816 136.948 591.896 L 136.948 591.896 L 136.948 591.896 Q 135.148 593.048 133.096 593.624 L 133.096 593.624 L 133.096 593.624 Q 131.044 594.2 128.848 594.38 L 128.848 594.38 L 128.848 594.38 Q 126.652 594.56 124.42 594.56 L 124.42 594.56 L 124.42 594.56 Q 123.412 594.56 122.332 594.524 L 122.332 594.524 L 122.332 594.524 Q 121.252 594.488 120.244 594.416 L 120.244 594.416 L 120.172 593.048 L 120.172 593.048 Q 119.596 593.12 119.164 593.156 L 119.164 593.156 L 119.164 593.156 Q 118.732 593.192 118.372 593.192 L 118.372 593.192 L 118.372 593.192 Q 117.508 593.192 116.788 592.94 L 116.788 592.94 L 116.788 592.94 Q 116.068 592.688 115.06 592.04 Z  M 121.612 565.04 L 121.612 565.04 L 121.612 565.04 Q 119.164 565.04 116.428 565.22 L 116.428 565.22 L 116.428 565.22 Q 113.692 565.4 111.388 566.192 L 111.388 566.192 L 111.028 566.768 L 111.028 566.768 Q 113.764 565.976 116.068 565.832 L 116.068 565.832 L 116.068 565.832 Q 118.372 565.688 120.46 565.688 L 120.46 565.688 L 120.748 565.688 L 120.748 565.688 Q 123.844 565.688 126.868 565.868 L 126.868 565.868 L 126.868 565.868 Q 129.892 566.048 132.268 567.092 L 132.268 567.092 L 132.268 567.092 Q 134.644 568.136 136.12 570.332 L 136.12 570.332 L 136.12 570.332 Q 137.596 572.528 137.596 576.56 L 137.596 576.56 L 137.596 576.56 Q 137.596 577.784 137.38 578.864 L 137.38 578.864 L 137.38 578.864 Q 137.164 579.944 136.804 581.024 L 136.804 581.024 L 136.804 581.024 Q 137.092 580.016 137.272 578.972 L 137.272 578.972 L 137.272 578.972 Q 137.452 577.928 137.452 576.848 L 137.452 576.848 L 137.452 576.848 Q 137.452 574.112 136.516 571.88 L 136.516 571.88 L 136.516 571.88 Q 135.58 569.648 133.492 567.848 L 133.492 567.848 L 132.988 567.56 L 132.988 567.56 Q 131.908 567.056 130.288 566.768 L 130.288 566.768 L 130.288 566.768 Q 128.668 566.48 126.868 566.3 L 126.868 566.3 L 126.868 566.3 Q 125.068 566.12 123.232 566.084 L 123.232 566.084 L 123.232 566.084 Q 121.396 566.048 119.812 566.048 L 119.812 566.048 L 117.796 566.048 L 117.796 566.048 Q 116.5 566.048 114.808 566.264 L 114.808 566.264 L 114.808 566.264 Q 113.116 566.48 111.892 566.84 L 111.892 566.84 L 111.892 566.84 Q 111.892 568.64 112.216 570.404 L 112.216 570.404 L 112.216 570.404 Q 112.54 572.168 112.9 573.896 L 112.9 573.896 L 113.692 577.352 L 113.692 577.352 Q 114.124 579.08 114.268 580.808 L 114.268 580.808 L 114.916 589.808 L 114.916 589.808 Q 115.42 589.448 116.032 589.196 L 116.032 589.196 L 116.032 589.196 Q 116.644 588.944 117.652 588.944 L 117.652 588.944 L 118.012 588.944 L 118.012 588.944 Q 119.596 589.448 121.288 589.52 L 121.288 589.52 L 121.288 589.52 Q 122.98 589.592 124.636 589.592 L 124.636 589.592 L 124.636 589.592 Q 128.092 589.592 130.792 588.944 L 130.792 588.944 L 130.792 588.944 Q 133.492 588.296 135.364 586.748 L 135.364 586.748 L 135.364 586.748 Q 137.236 585.2 138.208 582.644 L 138.208 582.644 L 138.208 582.644 Q 139.18 580.088 139.18 576.344 L 139.18 576.344 L 139.18 576.344 Q 139.18 574.688 138.64 572.708 L 138.64 572.708 L 138.64 572.708 Q 138.1 570.728 137.02 569 L 137.02 569 L 137.02 569 Q 135.94 567.272 134.284 566.12 L 134.284 566.12 L 134.284 566.12 Q 132.7 564.968 130.612 564.896 L 130.612 564.896 L 130.612 564.896 Q 132.628 565.112 134.212 566.192 L 134.212 566.192 L 134.212 566.192 Q 135.796 567.272 136.876 568.928 L 136.876 568.928 L 136.876 568.928 Q 137.956 570.584 138.496 572.564 L 138.496 572.564 L 138.496 572.564 Q 139.036 574.544 139.036 576.416 L 139.036 576.416 L 139.036 576.416 Q 139.036 582.968 135.868 586.064 L 135.868 586.064 L 135.868 586.064 Q 132.7 589.16 126.148 589.16 L 126.148 589.16 L 126.148 589.16 Q 124.564 589.16 122.98 589.016 L 122.98 589.016 L 119.812 588.728 L 119.812 588.728 Q 122.188 588.152 124.672 588.044 L 124.672 588.044 L 124.672 588.044 Q 127.156 587.936 129.424 587.504 L 129.424 587.504 L 129.424 587.504 Q 131.692 587.072 133.528 585.884 L 133.528 585.884 L 133.528 585.884 Q 135.364 584.696 136.516 581.888 L 136.516 581.888 L 137.164 582.104 L 137.164 582.104 Q 138.028 579.728 138.028 577.136 L 138.028 577.136 L 138.028 577.136 Q 138.028 573.176 136.696 570.8 L 136.696 570.8 L 136.696 570.8 Q 135.364 568.424 133.132 567.128 L 133.132 567.128 L 133.132 567.128 Q 130.9 565.832 127.912 565.436 L 127.912 565.436 L 127.912 565.436 Q 124.924 565.04 121.612 565.04 Z  M 144.436 575.912 L 144.436 575.912 L 144.436 575.912 Q 144.436 572.96 143.644 570.476 L 143.644 570.476 L 143.644 570.476 Q 142.852 567.992 141.196 565.616 L 141.196 565.616 L 141.196 565.616 Q 142.708 567.992 143.464 570.692 L 143.464 570.692 L 143.464 570.692 Q 144.22 573.392 144.22 576.2 L 144.22 576.2 L 144.22 576.2 Q 144.22 580.736 142.42 584.912 L 142.42 584.912 L 142.42 584.912 Q 143.356 582.896 143.86 580.664 L 143.86 580.664 L 143.86 580.664 Q 144.436 578.288 144.436 575.912 Z  M 132.34 559.64 L 132.34 559.64 L 132.34 559.64 Q 133.348 560 134.32 560.252 L 134.32 560.252 L 134.32 560.252 Q 135.292 560.504 136.3 560.936 L 136.3 560.936 L 136.3 560.936 Q 134.5 560 132.34 559.64 Z  M 139.18 563.096 L 139.18 563.096 L 139.18 563.096 Q 138.892 562.52 137.884 561.872 L 137.884 561.872 L 137.884 561.872 Q 136.948 561.296 136.372 561.008 L 136.372 561.008 L 136.372 561.008 Q 137.092 561.584 137.74 561.944 L 137.74 561.944 L 137.74 561.944 Q 138.46 562.376 139.18 563.096 Z  M 176.908 587.648 L 176.908 587.648 L 176.908 587.648 Q 174.964 587.648 173.992 587.576 L 173.992 587.576 L 173.992 587.576 Q 173.02 587.504 172.228 587.504 L 172.228 587.504 L 172.228 587.504 Q 170.068 587.504 168.412 587.72 L 168.412 587.72 L 168.412 587.72 Q 166.756 587.936 165.604 588.584 L 165.604 588.584 L 165.604 588.584 Q 164.452 589.232 163.876 590.456 L 163.876 590.456 L 163.876 590.456 Q 163.3 591.68 163.3 593.696 L 163.3 593.696 L 163.3 593.696 Q 163.3 596.648 163.984 598.052 L 163.984 598.052 L 163.984 598.052 Q 164.668 599.456 165.928 600.068 L 165.928 600.068 L 165.928 600.068 Q 167.188 600.68 168.988 600.824 L 168.988 600.824 L 168.988 600.824 Q 170.788 600.968 173.02 601.472 L 173.02 601.472 L 173.02 601.472 Q 174.316 601.616 175.612 601.652 L 175.612 601.652 L 175.612 601.652 Q 176.908 601.688 178.204 601.688 L 178.204 601.688 L 183.388 601.688 L 183.388 601.688 Q 179.788 601.472 176.224 601.436 L 176.224 601.436 L 176.224 601.436 Q 172.66 601.4 169.816 600.824 L 169.816 600.824 L 169.816 600.824 Q 166.972 600.248 165.208 598.808 L 165.208 598.808 L 165.208 598.808 Q 163.444 597.368 163.444 594.416 L 163.444 594.416 L 163.444 594.416 Q 163.444 592.04 164.056 590.78 L 164.056 590.78 L 164.056 590.78 Q 164.668 589.52 165.712 588.908 L 165.712 588.908 L 165.712 588.908 Q 166.756 588.296 168.196 588.188 L 168.196 588.188 L 168.196 588.188 Q 169.636 588.08 171.292 588.08 L 171.292 588.08 L 171.292 588.08 Q 173.308 588.08 175.396 588.296 L 175.396 588.296 L 175.396 588.296 Q 173.74 588.8 172.048 589.052 L 172.048 589.052 L 172.048 589.052 Q 170.356 589.304 168.916 589.556 L 168.916 589.556 L 168.916 589.556 Q 167.476 589.808 166.432 590.204 L 166.432 590.204 L 166.432 590.204 Q 165.388 590.6 165.028 591.32 L 165.028 591.32 L 165.028 594.56 L 164.452 594.848 L 164.452 594.848 Q 164.74 596.648 164.992 597.548 L 164.992 597.548 L 164.992 597.548 Q 165.244 598.448 166.396 598.916 L 166.396 598.916 L 166.396 598.916 Q 167.548 599.384 170.104 599.672 L 170.104 599.672 L 170.104 599.672 Q 172.66 599.96 177.556 600.608 L 177.556 600.608 L 182.74 600.608 L 182.74 600.608 Q 184.108 600.608 184.36 600.5 L 184.36 600.5 L 184.36 600.5 Q 184.612 600.392 184.684 600.392 L 184.684 600.392 L 184.036 596.504 L 184.036 596.504 Q 183.892 595.064 183.676 593.912 L 183.676 593.912 L 183.676 593.912 Q 183.46 592.76 183.1 591.464 L 183.1 591.464 L 183.1 591.464 Q 183.028 591.68 182.668 591.68 L 182.668 591.68 L 182.668 591.68 Q 183.028 592.904 183.28 594.272 L 183.28 594.272 L 183.28 594.272 Q 183.532 595.64 183.712 596.864 L 183.712 596.864 L 183.712 596.864 Q 183.892 598.088 184 598.952 L 184 598.952 L 184 598.952 Q 184.108 599.816 184.252 599.96 L 184.252 599.96 L 183.82 600.104 L 183.82 600.104 Q 183.676 600.176 183.388 600.176 L 183.388 600.176 L 182.956 600.176 L 182.956 600.176 Q 182.452 600.176 181.804 600.068 L 181.804 600.068 L 181.804 600.068 Q 181.156 599.96 180.148 599.96 L 180.148 599.96 L 177.772 599.96 L 177.772 599.96 Q 174.964 599.96 172.588 599.672 L 172.588 599.672 L 172.588 599.672 Q 170.356 599.384 168.7 598.952 L 168.7 598.952 L 168.7 598.952 Q 170.356 599.312 172.732 599.528 L 172.732 599.528 L 172.732 599.528 Q 175.252 599.816 177.412 599.816 L 177.412 599.816 L 177.412 599.816 Q 178.348 599.816 179.392 599.78 L 179.392 599.78 L 179.392 599.78 Q 180.436 599.744 181.66 599.744 L 181.66 599.744 L 184.036 599.744 L 184.036 599.744 Q 183.82 599.528 183.532 599.528 L 183.532 599.528 L 183.388 599.528 L 183.388 599.528 Q 183.1 594.56 182.092 590.024 L 182.092 590.024 L 182.092 590.024 Q 181.084 585.488 178.852 582.068 L 178.852 582.068 L 178.852 582.068 Q 176.62 578.648 173.02 576.596 L 173.02 576.596 L 173.02 576.596 Q 169.42 574.544 164.02 574.544 L 164.02 574.544 L 164.02 574.544 Q 162.508 574.544 160.996 574.76 L 160.996 574.76 L 160.996 574.76 Q 159.484 574.976 157.9 575.336 L 157.9 575.336 L 157.9 575.336 Q 158.044 575.192 158.044 575.048 L 158.044 575.048 L 158.044 575.048 Q 158.044 574.688 157.756 574.364 L 157.756 574.364 L 157.756 574.364 Q 157.468 574.04 157.468 573.68 L 157.468 573.68 L 157.468 573.68 Q 157.468 573.248 158.368 572.852 L 158.368 572.852 L 158.368 572.852 Q 159.268 572.456 162.22 572.096 L 162.22 572.096 L 162.22 572.096 Q 162.076 571.952 162.04 571.664 L 162.04 571.664 L 162.04 571.664 Q 162.004 571.376 162.004 571.232 L 162.004 571.232 L 162.004 571.232 Q 158.116 571.232 155.956 571.052 L 155.956 571.052 L 155.956 571.052 Q 153.796 570.872 153.796 570.008 L 153.796 570.008 L 153.796 570.008 Q 153.796 569.648 154.696 569 L 154.696 569 L 154.696 569 Q 155.596 568.352 157.252 567.74 L 157.252 567.74 L 157.252 567.74 Q 158.908 567.128 161.248 566.66 L 161.248 566.66 L 161.248 566.66 Q 163.588 566.192 166.468 566.192 L 166.468 566.192 L 166.468 566.192 Q 172.012 566.192 175.972 567.884 L 175.972 567.884 L 175.972 567.884 Q 179.932 569.576 182.632 572.348 L 182.632 572.348 L 182.632 572.348 Q 185.332 575.12 187.024 578.648 L 187.024 578.648 L 187.024 578.648 Q 188.716 582.176 189.76 585.74 L 189.76 585.74 L 189.76 585.74 Q 190.804 589.304 191.308 592.652 L 191.308 592.652 L 191.308 592.652 Q 191.812 596 192.244 598.448 L 192.244 598.448 L 192.244 598.448 Q 192.244 598.88 192.28 599.312 L 192.28 599.312 L 192.28 599.312 Q 192.316 599.744 192.316 600.32 L 192.316 600.32 L 192.316 600.32 Q 192.316 602.408 191.56 603.956 L 191.56 603.956 L 191.56 603.956 Q 190.804 605.504 189.472 606.548 L 189.472 606.548 L 189.472 606.548 Q 188.14 607.592 186.376 608.132 L 186.376 608.132 L 186.376 608.132 Q 184.612 608.672 182.596 608.672 L 182.596 608.672 L 182.596 608.672 Q 181.012 608.672 178.492 608.6 L 178.492 608.6 L 178.492 608.6 Q 175.972 608.528 173.668 608.168 L 173.668 608.168 L 173.668 608.168 Q 172.156 607.808 170.356 607.628 L 170.356 607.628 L 170.356 607.628 Q 168.556 607.448 166.684 607.016 L 166.684 607.016 L 166.684 607.016 Q 164.812 606.584 163.048 605.792 L 163.048 605.792 L 163.048 605.792 Q 161.284 605 159.88 603.38 L 159.88 603.38 L 159.88 603.38 Q 158.476 601.76 157.648 599.168 L 157.648 599.168 L 157.648 599.168 Q 156.82 596.576 156.82 592.616 L 156.82 592.616 L 156.82 592.616 Q 156.82 588.872 158.548 586.604 L 158.548 586.604 L 158.548 586.604 Q 160.276 584.336 162.688 583.076 L 162.688 583.076 L 162.688 583.076 Q 165.1 581.816 167.62 581.42 L 167.62 581.42 L 167.62 581.42 Q 170.14 581.024 171.724 581.024 L 171.724 581.024 L 171.724 581.024 Q 173.74 581.024 174.388 581.312 L 174.388 581.312 L 174.388 581.312 Q 175.036 581.6 175.036 581.888 L 175.036 581.888 L 175.036 581.888 Q 175.036 582.104 174.964 582.248 L 174.964 582.248 L 174.964 582.248 Q 173.164 582.248 170.356 582.392 L 170.356 582.392 L 170.356 582.392 Q 167.548 582.536 164.92 583.328 L 164.92 583.328 L 164.92 583.328 Q 162.292 584.12 160.42 585.74 L 160.42 585.74 L 160.42 585.74 Q 158.548 587.36 158.548 590.312 L 158.548 590.312 L 158.548 590.312 Q 159.196 587.648 160.744 586.1 L 160.744 586.1 L 160.744 586.1 Q 162.292 584.552 164.308 583.796 L 164.308 583.796 L 164.308 583.796 Q 166.324 583.04 168.448 582.86 L 168.448 582.86 L 168.448 582.86 Q 170.572 582.68 172.3 582.68 L 172.3 582.68 L 174.748 582.68 L 174.748 582.68 Q 174.46 582.968 174.46 583.256 L 174.46 583.256 L 174.46 583.256 Q 174.46 583.544 174.748 583.76 L 174.748 583.76 L 177.556 583.76 L 177.556 583.76 Q 178.708 583.976 179.212 584.516 L 179.212 584.516 L 179.212 584.516 Q 179.716 585.056 179.716 585.488 L 179.716 585.488 L 179.716 585.488 Q 179.716 586.136 179.068 586.64 L 179.068 586.64 L 179.068 586.64 Q 178.42 587.144 176.908 587.648 Z  M 164.812 605.072 L 164.812 605.072 L 164.812 605.072 Q 166.828 605.864 168.952 606.296 L 168.952 606.296 L 168.952 606.296 Q 171.076 606.728 173.164 606.872 L 173.164 606.872 L 173.164 606.872 Q 175.252 607.088 177.052 607.088 L 177.052 607.088 L 177.052 607.088 Q 175.612 606.944 174.172 606.584 L 174.172 606.584 L 174.172 606.584 Q 172.66 606.224 171.508 605.936 L 171.508 605.936 L 171.508 605.936 Q 170.284 605.648 169.096 605.54 L 169.096 605.54 L 169.096 605.54 Q 167.908 605.432 166.648 605.216 L 166.648 605.216 L 166.648 605.216 Q 165.388 605 164.092 604.532 L 164.092 604.532 L 164.092 604.532 Q 162.796 604.064 161.5 603.128 L 161.5 603.128 L 161.5 603.128 Q 162.868 604.352 164.812 605.072 Z  M 165.244 597.368 L 165.532 597.512 L 165.532 597.512 Q 165.46 597.44 165.964 597.944 L 165.964 597.944 L 165.964 597.944 Q 166.396 598.376 167.116 598.592 L 167.116 598.592 L 167.116 598.592 Q 166.756 598.448 166.036 598.232 L 166.036 598.232 L 166.036 598.232 Q 165.244 597.944 165.244 597.368 L 165.244 597.368 L 165.244 597.368 Z  M 167.332 598.592 L 167.332 598.592 L 167.332 598.592 Q 167.26 598.592 167.116 598.592 L 167.116 598.592 L 167.116 598.592 Q 167.188 598.592 167.332 598.592 Z  M 227.38 570.512 L 227.38 570.512 L 227.38 570.512 Q 226.732 570.512 225.616 570.728 L 225.616 570.728 L 225.616 570.728 Q 224.5 570.944 223.384 571.232 L 223.384 571.232 L 223.384 571.232 Q 222.268 571.52 221.368 571.808 L 221.368 571.808 L 221.368 571.808 Q 220.468 572.096 220.252 572.24 L 220.252 572.24 L 220.252 572.24 Q 222.124 571.952 223.708 571.556 L 223.708 571.556 L 223.708 571.556 Q 225.292 571.16 227.164 571.16 L 227.164 571.16 L 227.164 571.16 Q 226.804 571.808 226.228 572.168 L 226.228 572.168 L 226.228 572.168 Q 225.652 572.528 224.968 572.708 L 224.968 572.708 L 224.968 572.708 Q 224.284 572.888 223.492 572.996 L 223.492 572.996 L 223.492 572.996 Q 222.7 573.104 221.836 573.32 L 221.836 573.32 L 221.332 572.672 L 221.332 572.672 Q 219.964 573.176 219.244 573.284 L 219.244 573.284 L 219.244 573.284 Q 218.524 573.392 217.732 573.392 L 217.732 573.392 L 217.732 573.392 Q 216.868 573.392 215.968 573.356 L 215.968 573.356 L 215.968 573.356 Q 215.068 573.32 213.988 573.32 L 213.988 573.32 L 213.988 573.32 Q 213.988 573.68 213.916 573.896 L 213.916 573.896 L 213.916 573.896 Q 215.572 573.896 216.724 573.86 L 216.724 573.86 L 216.724 573.86 Q 217.876 573.824 219.532 573.608 L 219.532 573.608 L 219.532 573.608 Q 217.948 573.896 216.76 574.04 L 216.76 574.04 L 216.76 574.04 Q 215.572 574.184 213.916 574.184 L 213.916 574.184 L 213.916 574.184 Q 213.628 575.84 213.412 577.424 L 213.412 577.424 L 213.412 577.424 Q 213.196 579.008 213.196 580.52 L 213.196 580.52 L 213.196 580.52 Q 213.196 581.384 213.268 582.536 L 213.268 582.536 L 213.268 582.536 Q 213.34 583.688 213.448 584.876 L 213.448 584.876 L 213.448 584.876 Q 213.556 586.064 213.628 587.108 L 213.628 587.108 L 213.628 587.108 Q 213.7 588.152 213.7 588.656 L 213.7 588.656 L 213.7 592.976 L 213.7 592.976 Q 214.06 594.416 215.788 595.136 L 215.788 595.136 L 215.788 595.136 Q 217.516 595.856 220.756 595.856 L 220.756 595.856 L 223.06 595.856 L 223.06 595.856 Q 224.284 595.856 224.752 596.108 L 224.752 596.108 L 224.752 596.108 Q 225.22 596.36 225.22 596.792 L 225.22 596.792 L 225.22 596.792 Q 225.22 597.152 224.644 597.188 L 224.644 597.188 L 224.644 597.188 Q 224.068 597.224 223.492 597.224 L 223.492 597.224 L 223.492 597.224 Q 221.404 597.224 219.1 596.936 L 219.1 596.936 L 219.1 596.936 Q 216.94 596.648 214.852 596.288 L 214.852 596.288 L 214.852 596.288 Q 216.94 596.792 219.244 597.224 L 219.244 597.224 L 219.244 597.224 Q 221.62 597.584 223.852 597.584 L 223.852 597.584 L 224.5 597.584 L 224.5 597.584 Q 224.788 597.584 225.148 597.512 L 225.148 597.512 L 225.148 597.512 Q 225.148 597.872 225.184 598.16 L 225.184 598.16 L 225.184 598.16 Q 225.22 598.448 225.364 598.808 L 225.364 598.808 L 225.94 598.664 L 225.94 598.664 Q 226.156 598.592 226.444 598.556 L 226.444 598.556 L 226.444 598.556 Q 226.732 598.52 226.876 598.376 L 226.876 598.376 L 226.876 598.376 Q 229.18 598.592 229.18 599.96 L 229.18 599.96 L 229.18 599.96 Q 229.18 600.752 228.748 601.256 L 228.748 601.256 L 228.748 601.256 Q 228.316 601.76 227.668 602.048 L 227.668 602.048 L 227.668 602.048 Q 227.02 602.336 226.228 602.444 L 226.228 602.444 L 226.228 602.444 Q 225.436 602.552 224.716 602.552 L 224.716 602.552 L 224.716 602.552 Q 222.196 602.552 219.784 602.228 L 219.784 602.228 L 219.784 602.228 Q 217.372 601.904 215.068 601.544 L 215.068 601.544 L 215.068 601.544 Q 217.084 602.264 220.18 602.696 L 220.18 602.696 L 220.18 602.696 Q 223.276 603.128 226.444 603.128 L 226.444 603.128 L 226.444 603.128 Q 225.652 603.632 224.572 603.92 L 224.572 603.92 L 224.572 603.92 Q 223.492 604.208 222.34 604.208 L 222.34 604.208 L 217.156 603.56 L 217.156 603.56 Q 216.148 603.416 215.608 603.272 L 215.608 603.272 L 215.608 603.272 Q 215.068 603.128 214.564 602.948 L 214.564 602.948 L 214.564 602.948 Q 214.06 602.768 213.448 602.552 L 213.448 602.552 L 213.448 602.552 Q 212.836 602.336 211.756 602.048 L 211.756 602.048 L 211.756 601.256 L 211.756 601.256 Q 209.884 600.752 208.732 599.528 L 208.732 599.528 L 208.732 599.528 Q 207.58 598.304 206.932 596.864 L 206.932 596.864 L 206.932 596.864 Q 206.284 595.424 206.068 593.948 L 206.068 593.948 L 206.068 593.948 Q 205.852 592.472 205.852 591.32 L 205.852 591.32 L 205.852 591.32 Q 205.852 590.096 205.888 589.052 L 205.888 589.052 L 205.888 589.052 Q 205.924 588.008 205.924 586.928 L 205.924 586.928 L 205.924 586.928 Q 205.924 586.136 205.888 584.912 L 205.888 584.912 L 205.888 584.912 Q 205.852 583.688 205.78 582.32 L 205.78 582.32 L 205.78 582.32 Q 205.708 580.952 205.672 579.512 L 205.672 579.512 L 205.672 579.512 Q 205.636 578.072 205.636 576.776 L 205.636 576.776 L 205.636 576.776 Q 205.636 575.984 205.672 575.264 L 205.672 575.264 L 205.672 575.264 Q 205.708 574.544 205.78 573.968 L 205.78 573.968 L 205.06 573.968 L 205.06 573.968 Q 204.988 574.472 204.988 575.12 L 204.988 575.12 L 204.988 576.416 L 204.988 576.416 Q 204.988 578.504 205.06 580.556 L 205.06 580.556 L 205.06 580.556 Q 205.132 582.608 205.168 584.336 L 205.168 584.336 L 205.168 584.336 Q 205.204 586.064 205.276 587.324 L 205.276 587.324 L 205.276 587.324 Q 205.348 588.584 205.348 589.16 L 205.348 589.16 L 205.348 592.04 L 205.348 592.616 L 205.348 592.616 Q 205.132 590.672 204.916 587.072 L 204.916 587.072 L 204.916 587.072 Q 204.7 582.896 204.7 577.856 L 204.7 577.856 L 204.7 576.56 L 204.7 576.56 Q 204.7 575.768 204.736 575.048 L 204.736 575.048 L 204.736 575.048 Q 204.772 574.328 204.916 573.968 L 204.916 573.968 L 202.468 573.824 L 202.468 573.824 Q 201.676 573.32 200.884 573.032 L 200.884 573.032 L 200.884 573.032 Q 200.092 572.744 199.444 572.744 L 199.444 572.744 L 199.444 571.304 L 199.444 571.304 Q 199.444 570.872 199.552 570.548 L 199.552 570.548 L 199.552 570.548 Q 199.66 570.224 200.236 570.224 L 200.236 570.224 L 200.236 570.224 Q 200.38 570.224 200.956 570.368 L 200.956 570.368 L 200.956 569.504 L 200.956 569.504 Q 200.164 569.072 199.66 568.316 L 199.66 568.316 L 199.66 568.316 Q 199.156 567.56 199.156 566.768 L 199.156 566.768 L 199.156 566.768 Q 199.156 564.896 201.82 564.896 L 201.82 564.896 L 201.82 564.896 Q 202.828 564.896 203.908 565.04 L 203.908 565.04 L 203.908 565.04 Q 204.988 565.184 206.14 565.256 L 206.14 565.256 L 206.14 565.256 Q 206.428 563.672 206.644 562.412 L 206.644 562.412 L 206.644 562.412 Q 206.86 561.152 207.076 559.964 L 207.076 559.964 L 207.076 559.964 Q 207.292 558.776 207.58 557.588 L 207.58 557.588 L 207.58 557.588 Q 207.868 556.4 208.3 555.104 L 208.3 555.104 L 208.3 555.104 Q 208.948 553.664 209.308 551.972 L 209.308 551.972 L 209.308 551.972 Q 209.668 550.28 209.812 548.624 L 209.812 548.624 L 211.324 548.696 L 211.324 548.696 Q 211.684 548.696 211.936 548.912 L 211.936 548.912 L 211.936 548.912 Q 212.188 549.128 212.188 549.92 L 212.188 549.92 L 212.188 549.92 Q 212.188 550.568 211.972 551.648 L 211.972 551.648 L 212.836 551.864 L 212.836 551.864 Q 213.412 549.92 214.24 548.696 L 214.24 548.696 L 214.24 548.696 Q 215.068 547.472 215.86 547.472 L 215.86 547.472 L 215.86 547.472 Q 217.084 547.472 217.372 550.568 L 217.372 550.568 L 217.372 551.864 L 217.372 551.864 Q 217.372 553.736 217.12 555.356 L 217.12 555.356 L 217.12 555.356 Q 216.868 556.976 216.508 558.56 L 216.508 558.56 L 216.508 558.56 Q 216.148 560.144 215.788 561.8 L 215.788 561.8 L 215.788 561.8 Q 215.428 563.456 215.14 565.4 L 215.14 565.4 L 215.14 565.4 Q 216.724 565.616 218.236 565.616 L 218.236 565.616 L 218.236 565.616 Q 218.956 565.616 219.676 565.58 L 219.676 565.58 L 219.676 565.58 Q 220.396 565.544 221.116 565.544 L 221.116 565.544 L 221.116 565.544 Q 221.836 565.544 222.628 564.968 L 222.628 564.968 L 222.628 564.968 Q 223.42 564.392 224.068 564.392 L 224.068 564.392 L 224.068 564.392 Q 224.644 564.392 224.932 564.752 L 224.932 564.752 L 224.932 564.752 Q 225.22 565.112 225.22 565.544 L 225.22 565.544 L 225.22 565.544 Q 223.924 565.904 222.664 566.3 L 222.664 566.3 L 222.664 566.3 Q 221.404 566.696 220.252 567.056 L 220.252 567.056 L 220.252 567.056 Q 221.404 566.912 222.7 566.516 L 222.7 566.516 L 222.7 566.516 Q 223.996 566.12 225.436 565.76 L 225.436 565.76 L 225.436 565.76 Q 225.436 566.12 225.472 566.408 L 225.472 566.408 L 225.472 566.408 Q 225.508 566.696 225.652 567.056 L 225.652 567.056 L 225.652 567.056 Q 225.796 567.056 226.012 566.984 L 226.012 566.984 L 226.012 566.984 Q 226.444 566.84 226.516 566.84 L 226.516 566.84 L 226.516 566.84 Q 227.236 567.2 227.452 567.74 L 227.452 567.74 L 227.452 567.74 Q 227.668 568.28 227.668 568.928 L 227.668 568.928 L 227.668 568.928 Q 227.668 569.432 227.524 569.828 L 227.524 569.828 L 227.524 569.828 Q 227.38 570.224 227.38 570.512 Z  M 208.3 597.08 L 208.3 597.08 L 208.3 597.08 Q 207.292 595.136 207.22 593.264 L 207.22 593.264 L 207.22 593.264 Q 207.148 591.392 207.004 589.736 L 207.004 589.736 L 206.356 578.792 L 206.14 580.088 L 206.14 580.088 Q 206.14 584.912 206.464 588.836 L 206.464 588.836 L 206.464 588.836 Q 206.788 592.76 207.436 594.92 L 207.436 594.92 L 207.436 594.92 Q 207.436 595.568 207.4 595.784 L 207.4 595.784 L 207.4 595.784 Q 207.364 596 207.364 596.144 L 207.364 596.144 L 207.364 596.144 Q 207.364 596.288 207.544 596.504 L 207.544 596.504 L 207.544 596.504 Q 207.724 596.72 208.3 597.08 Z  M 212.404 593.192 L 212.404 593.192 L 212.404 593.192 Q 212.26 592.616 212.26 591.968 L 212.26 591.968 L 212.26 588.44 L 212.26 588.44 Q 212.188 589.16 212.116 589.844 L 212.116 589.844 L 212.116 589.844 Q 212.044 590.528 212.044 591.248 L 212.044 591.248 L 212.044 591.248 Q 212.044 593.12 212.26 594.128 L 212.26 594.128 L 212.26 594.128 Q 212.476 594.992 213.124 595.568 L 213.124 595.568 L 213.124 595.568 Q 212.764 595.136 212.62 594.632 L 212.62 594.632 L 212.62 594.632 Q 212.548 594.056 212.404 593.192 Z  M 205.348 592.616 L 205.42 593.12 L 205.348 592.616 L 205.348 592.616 Z  M 213.268 595.64 L 213.268 595.64 L 213.268 595.64 Q 213.196 595.568 213.124 595.568 L 213.124 595.568 L 213.124 595.568 Q 213.196 595.568 213.268 595.64 Z  M 260.212 587.648 L 260.212 587.648 L 260.212 587.648 Q 258.268 587.648 257.296 587.576 L 257.296 587.576 L 257.296 587.576 Q 256.324 587.504 255.532 587.504 L 255.532 587.504 L 255.532 587.504 Q 253.372 587.504 251.716 587.72 L 251.716 587.72 L 251.716 587.72 Q 250.06 587.936 248.908 588.584 L 248.908 588.584 L 248.908 588.584 Q 247.756 589.232 247.18 590.456 L 247.18 590.456 L 247.18 590.456 Q 246.604 591.68 246.604 593.696 L 246.604 593.696 L 246.604 593.696 Q 246.604 596.648 247.288 598.052 L 247.288 598.052 L 247.288 598.052 Q 247.972 599.456 249.232 600.068 L 249.232 600.068 L 249.232 600.068 Q 250.492 600.68 252.292 600.824 L 252.292 600.824 L 252.292 600.824 Q 254.092 600.968 256.324 601.472 L 256.324 601.472 L 256.324 601.472 Q 257.62 601.616 258.916 601.652 L 258.916 601.652 L 258.916 601.652 Q 260.212 601.688 261.508 601.688 L 261.508 601.688 L 266.692 601.688 L 266.692 601.688 Q 263.092 601.472 259.528 601.436 L 259.528 601.436 L 259.528 601.436 Q 255.964 601.4 253.12 600.824 L 253.12 600.824 L 253.12 600.824 Q 250.276 600.248 248.512 598.808 L 248.512 598.808 L 248.512 598.808 Q 246.748 597.368 246.748 594.416 L 246.748 594.416 L 246.748 594.416 Q 246.748 592.04 247.36 590.78 L 247.36 590.78 L 247.36 590.78 Q 247.972 589.52 249.016 588.908 L 249.016 588.908 L 249.016 588.908 Q 250.06 588.296 251.5 588.188 L 251.5 588.188 L 251.5 588.188 Q 252.94 588.08 254.596 588.08 L 254.596 588.08 L 254.596 588.08 Q 256.612 588.08 258.7 588.296 L 258.7 588.296 L 258.7 588.296 Q 257.044 588.8 255.352 589.052 L 255.352 589.052 L 255.352 589.052 Q 253.66 589.304 252.22 589.556 L 252.22 589.556 L 252.22 589.556 Q 250.78 589.808 249.736 590.204 L 249.736 590.204 L 249.736 590.204 Q 248.692 590.6 248.332 591.32 L 248.332 591.32 L 248.332 594.56 L 247.756 594.848 L 247.756 594.848 Q 248.044 596.648 248.296 597.548 L 248.296 597.548 L 248.296 597.548 Q 248.548 598.448 249.7 598.916 L 249.7 598.916 L 249.7 598.916 Q 250.852 599.384 253.408 599.672 L 253.408 599.672 L 253.408 599.672 Q 255.964 599.96 260.86 600.608 L 260.86 600.608 L 266.044 600.608 L 266.044 600.608 Q 267.412 600.608 267.664 600.5 L 267.664 600.5 L 267.664 600.5 Q 267.916 600.392 267.988 600.392 L 267.988 600.392 L 267.34 596.504 L 267.34 596.504 Q 267.196 595.064 266.98 593.912 L 266.98 593.912 L 266.98 593.912 Q 266.764 592.76 266.404 591.464 L 266.404 591.464 L 266.404 591.464 Q 266.332 591.68 265.972 591.68 L 265.972 591.68 L 265.972 591.68 Q 266.332 592.904 266.584 594.272 L 266.584 594.272 L 266.584 594.272 Q 266.836 595.64 267.016 596.864 L 267.016 596.864 L 267.016 596.864 Q 267.196 598.088 267.304 598.952 L 267.304 598.952 L 267.304 598.952 Q 267.412 599.816 267.556 599.96 L 267.556 599.96 L 267.124 600.104 L 267.124 600.104 Q 266.98 600.176 266.692 600.176 L 266.692 600.176 L 266.26 600.176 L 266.26 600.176 Q 265.756 600.176 265.108 600.068 L 265.108 600.068 L 265.108 600.068 Q 264.46 599.96 263.452 599.96 L 263.452 599.96 L 261.076 599.96 L 261.076 599.96 Q 258.268 599.96 255.892 599.672 L 255.892 599.672 L 255.892 599.672 Q 253.66 599.384 252.004 598.952 L 252.004 598.952 L 252.004 598.952 Q 253.66 599.312 256.036 599.528 L 256.036 599.528 L 256.036 599.528 Q 258.556 599.816 260.716 599.816 L 260.716 599.816 L 260.716 599.816 Q 261.652 599.816 262.696 599.78 L 262.696 599.78 L 262.696 599.78 Q 263.74 599.744 264.964 599.744 L 264.964 599.744 L 267.34 599.744 L 267.34 599.744 Q 267.124 599.528 266.836 599.528 L 266.836 599.528 L 266.692 599.528 L 266.692 599.528 Q 266.404 594.56 265.396 590.024 L 265.396 590.024 L 265.396 590.024 Q 264.388 585.488 262.156 582.068 L 262.156 582.068 L 262.156 582.068 Q 259.924 578.648 256.324 576.596 L 256.324 576.596 L 256.324 576.596 Q 252.724 574.544 247.324 574.544 L 247.324 574.544 L 247.324 574.544 Q 245.812 574.544 244.3 574.76 L 244.3 574.76 L 244.3 574.76 Q 242.788 574.976 241.204 575.336 L 241.204 575.336 L 241.204 575.336 Q 241.348 575.192 241.348 575.048 L 241.348 575.048 L 241.348 575.048 Q 241.348 574.688 241.06 574.364 L 241.06 574.364 L 241.06 574.364 Q 240.772 574.04 240.772 573.68 L 240.772 573.68 L 240.772 573.68 Q 240.772 573.248 241.672 572.852 L 241.672 572.852 L 241.672 572.852 Q 242.572 572.456 245.524 572.096 L 245.524 572.096 L 245.524 572.096 Q 245.38 571.952 245.344 571.664 L 245.344 571.664 L 245.344 571.664 Q 245.308 571.376 245.308 571.232 L 245.308 571.232 L 245.308 571.232 Q 241.42 571.232 239.26 571.052 L 239.26 571.052 L 239.26 571.052 Q 237.1 570.872 237.1 570.008 L 237.1 570.008 L 237.1 570.008 Q 237.1 569.648 238 569 L 238 569 L 238 569 Q 238.9 568.352 240.556 567.74 L 240.556 567.74 L 240.556 567.74 Q 242.212 567.128 244.552 566.66 L 244.552 566.66 L 244.552 566.66 Q 246.892 566.192 249.772 566.192 L 249.772 566.192 L 249.772 566.192 Q 255.316 566.192 259.276 567.884 L 259.276 567.884 L 259.276 567.884 Q 263.236 569.576 265.936 572.348 L 265.936 572.348 L 265.936 572.348 Q 268.636 575.12 270.328 578.648 L 270.328 578.648 L 270.328 578.648 Q 272.02 582.176 273.064 585.74 L 273.064 585.74 L 273.064 585.74 Q 274.108 589.304 274.612 592.652 L 274.612 592.652 L 274.612 592.652 Q 275.116 596 275.548 598.448 L 275.548 598.448 L 275.548 598.448 Q 275.548 598.88 275.584 599.312 L 275.584 599.312 L 275.584 599.312 Q 275.62 599.744 275.62 600.32 L 275.62 600.32 L 275.62 600.32 Q 275.62 602.408 274.864 603.956 L 274.864 603.956 L 274.864 603.956 Q 274.108 605.504 272.776 606.548 L 272.776 606.548 L 272.776 606.548 Q 271.444 607.592 269.68 608.132 L 269.68 608.132 L 269.68 608.132 Q 267.916 608.672 265.9 608.672 L 265.9 608.672 L 265.9 608.672 Q 264.316 608.672 261.796 608.6 L 261.796 608.6 L 261.796 608.6 Q 259.276 608.528 256.972 608.168 L 256.972 608.168 L 256.972 608.168 Q 255.46 607.808 253.66 607.628 L 253.66 607.628 L 253.66 607.628 Q 251.86 607.448 249.988 607.016 L 249.988 607.016 L 249.988 607.016 Q 248.116 606.584 246.352 605.792 L 246.352 605.792 L 246.352 605.792 Q 244.588 605 243.184 603.38 L 243.184 603.38 L 243.184 603.38 Q 241.78 601.76 240.952 599.168 L 240.952 599.168 L 240.952 599.168 Q 240.124 596.576 240.124 592.616 L 240.124 592.616 L 240.124 592.616 Q 240.124 588.872 241.852 586.604 L 241.852 586.604 L 241.852 586.604 Q 243.58 584.336 245.992 583.076 L 245.992 583.076 L 245.992 583.076 Q 248.404 581.816 250.924 581.42 L 250.924 581.42 L 250.924 581.42 Q 253.444 581.024 255.028 581.024 L 255.028 581.024 L 255.028 581.024 Q 257.044 581.024 257.692 581.312 L 257.692 581.312 L 257.692 581.312 Q 258.34 581.6 258.34 581.888 L 258.34 581.888 L 258.34 581.888 Q 258.34 582.104 258.268 582.248 L 258.268 582.248 L 258.268 582.248 Q 256.468 582.248 253.66 582.392 L 253.66 582.392 L 253.66 582.392 Q 250.852 582.536 248.224 583.328 L 248.224 583.328 L 248.224 583.328 Q 245.596 584.12 243.724 585.74 L 243.724 585.74 L 243.724 585.74 Q 241.852 587.36 241.852 590.312 L 241.852 590.312 L 241.852 590.312 Q 242.5 587.648 244.048 586.1 L 244.048 586.1 L 244.048 586.1 Q 245.596 584.552 247.612 583.796 L 247.612 583.796 L 247.612 583.796 Q 249.628 583.04 251.752 582.86 L 251.752 582.86 L 251.752 582.86 Q 253.876 582.68 255.604 582.68 L 255.604 582.68 L 258.052 582.68 L 258.052 582.68 Q 257.764 582.968 257.764 583.256 L 257.764 583.256 L 257.764 583.256 Q 257.764 583.544 258.052 583.76 L 258.052 583.76 L 260.86 583.76 L 260.86 583.76 Q 262.012 583.976 262.516 584.516 L 262.516 584.516 L 262.516 584.516 Q 263.02 585.056 263.02 585.488 L 263.02 585.488 L 263.02 585.488 Q 263.02 586.136 262.372 586.64 L 262.372 586.64 L 262.372 586.64 Q 261.724 587.144 260.212 587.648 Z  M 248.116 605.072 L 248.116 605.072 L 248.116 605.072 Q 250.132 605.864 252.256 606.296 L 252.256 606.296 L 252.256 606.296 Q 254.38 606.728 256.468 606.872 L 256.468 606.872 L 256.468 606.872 Q 258.556 607.088 260.356 607.088 L 260.356 607.088 L 260.356 607.088 Q 258.916 606.944 257.476 606.584 L 257.476 606.584 L 257.476 606.584 Q 255.964 606.224 254.812 605.936 L 254.812 605.936 L 254.812 605.936 Q 253.588 605.648 252.4 605.54 L 252.4 605.54 L 252.4 605.54 Q 251.212 605.432 249.952 605.216 L 249.952 605.216 L 249.952 605.216 Q 248.692 605 247.396 604.532 L 247.396 604.532 L 247.396 604.532 Q 246.1 604.064 244.804 603.128 L 244.804 603.128 L 244.804 603.128 Q 246.172 604.352 248.116 605.072 Z  M 248.548 597.368 L 248.836 597.512 L 248.836 597.512 Q 248.764 597.44 249.268 597.944 L 249.268 597.944 L 249.268 597.944 Q 249.7 598.376 250.42 598.592 L 250.42 598.592 L 250.42 598.592 Q 250.06 598.448 249.34 598.232 L 249.34 598.232 L 249.34 598.232 Q 248.548 597.944 248.548 597.368 L 248.548 597.368 L 248.548 597.368 Z  M 250.636 598.592 L 250.636 598.592 L 250.636 598.592 Q 250.564 598.592 250.42 598.592 L 250.42 598.592 L 250.42 598.592 Q 250.492 598.592 250.636 598.592 Z " fill-rule="evenodd" fill="rgb(53,31,61)"/></g></svg>